<svg width="224" height="212" viewBox="0 0 224 212" fill="none" xmlns="http://www.w3.org/2000/svg">
<path d="M210.23 51.61L152.01 105.91L210.21 160.2C223 171 222.05 188.25 211.58 199.47C201.11 210.7 183.53 211.31 172.31 200.84L111.27 143.9L50.23 200.84C39.01 211.3 21.43 210.69 10.96 199.47C0.499994 188.25 1.10999 170.67 12.33 160.2L70.55 105.9L12.33 51.6C1.10999 41.14 0.499994 23.55 10.97 12.33C21.43 1.11003 39.02 0.500031 50.24 10.97L111.29 67.91L172.33 10.97C183.55 0.510031 201.13 1.12003 211.6 12.34C222.06 23.56 221.45 41.14 210.23 51.61Z" stroke="white" stroke-width="7" stroke-miterlimit="10"/>
</svg>
