<svg width="339" height="233" viewBox="0 0 339 233" fill="none" xmlns="http://www.w3.org/2000/svg">
<mask id="path-1-inside-1_1_1326" fill="white">
<path d="M232.475 62.8357C263.197 80.6006 274.944 99.6756 280.074 114.225C285.928 130.77 288.514 157.835 304.185 176.089C309.687 182.524 313.124 183.687 315.619 183.083C320.875 181.779 322.448 171.574 323.07 167.886C326.899 142.711 313.813 118.702 306.998 106.57C305.68 104.187 294.503 84.6044 273.807 66.215C266.465 59.694 257.96 53.2934 246.762 51.9343C244.874 51.7158 232.417 50.2111 229.916 55.7847C229.152 57.4168 229.513 59.243 229.911 60.7547"/>
</mask>
<path d="M280.074 114.225L278.188 114.89L278.189 114.892L280.074 114.225ZM304.185 176.089L305.705 174.79L305.703 174.786L304.185 176.089ZM315.619 183.083L316.09 185.027L316.101 185.024L315.619 183.083ZM323.07 167.886L325.042 168.219L325.045 168.203L325.047 168.187L323.07 167.886ZM306.998 106.57L305.247 107.537L305.254 107.549L306.998 106.57ZM273.807 66.215L275.135 64.7203L275.135 64.72L273.807 66.215ZM246.762 51.9343L247.003 49.949L246.992 49.9477L246.762 51.9343ZM229.916 55.7847L231.728 56.6332L231.735 56.6183L231.741 56.6034L229.916 55.7847ZM231.474 64.5668C261.801 82.1033 273.223 100.809 278.188 114.89L281.961 113.561C276.666 98.5423 264.593 79.0979 233.476 61.1046L231.474 64.5668ZM278.189 114.892C279.617 118.93 280.856 123.639 282.169 128.797C283.475 133.927 284.849 139.482 286.532 145.091C289.898 156.3 294.56 167.948 302.668 177.391L305.703 174.786C298.139 165.976 293.673 154.964 290.364 143.941C288.711 138.434 287.361 132.98 286.046 127.811C284.738 122.671 283.458 117.793 281.96 113.559L278.189 114.892ZM302.665 177.388C308.216 183.881 312.381 185.924 316.09 185.027L315.148 181.139C313.868 181.449 311.158 181.168 305.705 174.79L302.665 177.388ZM316.101 185.024C318.01 184.551 319.449 183.299 320.515 181.875C321.578 180.455 322.368 178.735 322.967 177.048C324.164 173.679 324.737 170.027 325.042 168.219L321.097 167.553C320.781 169.433 320.257 172.728 319.198 175.709C318.669 177.197 318.041 178.504 317.312 179.479C316.584 180.451 315.856 180.964 315.137 181.142L316.101 185.024ZM325.047 168.187C328.993 142.247 315.526 117.668 308.741 105.591L305.254 107.549C312.1 119.735 324.805 143.174 321.092 167.585L325.047 168.187ZM308.748 105.603C307.376 103.12 296.068 83.3203 275.135 64.7203L272.478 67.7096C292.937 85.8885 303.985 105.254 305.247 107.537L308.748 105.603ZM275.135 64.72C267.74 58.152 258.843 51.3862 247.003 49.9491L246.521 53.9195C257.077 55.2006 265.189 61.2359 272.479 67.7099L275.135 64.72ZM246.992 49.9477C246.046 49.8383 242.286 49.3836 238.409 49.694C236.474 49.8489 234.393 50.2018 232.574 50.9524C230.754 51.7035 229 52.9393 228.091 54.966L231.741 56.6034C232.082 55.8432 232.823 55.177 234.101 54.6495C235.38 54.1215 237 53.8192 238.729 53.6809C242.177 53.4049 245.59 53.8118 246.533 53.9209L246.992 49.9477ZM228.105 54.9362C227.004 57.2854 227.582 59.7653 227.976 61.2632L231.845 60.2462C231.444 58.7206 231.299 57.5483 231.728 56.6332L228.105 54.9362Z" fill="white" mask="url(#path-1-inside-1_1_1326)"/>
<path d="M225.515 61.3679C225.831 60.1208 226.322 59.2458 226.941 58.6804L227.06 58.6372L227.192 58.5294C228.01 57.8603 229.198 57.5464 230.761 57.5902C232.32 57.6338 234.14 58.0314 236.092 58.6585C239.995 59.9127 244.205 62.0114 247.534 63.6761C253.306 66.5861 259.467 70.8575 269.14 81.4121C275.099 87.9252 285.919 100.782 297.159 120.995L297.16 120.998C304.813 134.662 307.816 144.161 313.825 163.212C314.758 166.199 315.696 169.299 316.036 172.188C316.376 175.081 316.094 177.594 314.762 179.515L314.755 179.526C313.18 181.863 310.456 182.875 307.595 183.225C304.801 183.567 302.08 183.252 300.636 183.084L300.564 183.076C296.71 182.615 292.422 180.569 287.862 177.198C283.314 173.835 278.566 169.207 273.8 163.692C264.27 152.661 254.743 138.17 246.67 123.41C238.597 108.65 232.004 93.6662 228.32 81.6647C226.476 75.6579 225.375 70.4455 225.165 66.4033C225.06 64.3824 225.179 62.6963 225.515 61.3679Z" stroke="white" stroke-width="2"/>
<mask id="path-4-inside-2_1_1326" fill="white">
<path d="M206.048 71.0666C206.048 71.0666 207.835 75.9893 208.317 77.3197C208.8 78.6502 217.059 89.3561 217.059 89.3561L225.483 103.013C228.602 107.452 233.038 114.275 237.921 122.742C242.997 131.742 243.551 134.1 248.18 141.455C252.906 149.075 257.078 154.337 262.362 161.003C272.604 173.85 272.546 171.613 279.098 180.528C284.068 187.158 285.964 191.137 291.155 194.223C292.293 194.864 295.028 196.583 294.736 197.441C294.529 198.118 292.193 197.912 290.219 197.875C288.694 197.826 288.294 197.971 278.072 199.72C272.538 200.673 267.003 201.626 261.469 202.579C249.019 204.835 242.903 205.848 240.263 206.053C229.438 206.967 229.354 205.492 217.681 206.563C209.81 207.31 209.603 207.987 199.807 208.829C195.556 209.166 191.572 209.406 183.556 209.753C173.93 210.233 172.537 210.136 168.239 210.34C157.897 210.928 155.136 211.628 142.033 212.916C128.35 214.265 121.508 214.939 114.957 214.755C107.825 214.631 100.937 213.516 87.0271 211.333C76.1315 209.563 70.5505 208.726 66.9199 207.031C59.8401 203.727 54.0097 198.464 48.046 193.249C46.2557 191.64 43.413 189.208 40.6918 186.281C38.0189 183.486 28.828 173.118 24.6655 159.572C18.1136 138.612 26.671 119.4 30.3492 110.839C30.3492 110.839 38.0491 89.6794 49.5832 83.2386C50.2495 82.997 52.503 81.7282 55.7009 80.5687C58.8987 79.4091 60.6309 78.7809 62.9676 78.9875C65.3042 79.1941 65.7755 80.0771 67.9423 80.6464C70.4238 81.2521 71.8895 80.7206 78.5633 78.7523C87.1992 76.3736 88.9796 75.8785 89.8274 75.7216C91.9226 75.263 95.0471 74.7322 98.3165 74.6005C103.378 74.4213 105.919 75.6075 114.95 78.0541C122.987 80.2585 129.124 81.797 130.746 82.1121C134.221 82.9601 138.143 83.7961 146.12 85.42C152.972 86.8499 156.398 87.5648 157.476 87.6257C166.253 88.9597 167.973 87.8842 177.768 88.6985C190.347 89.7076 191.701 91.7761 195.65 90.1936C199.418 88.5263 203.83 84.0658 205.915 71.1149"/>
</mask>
<path d="M217.059 89.3561L218.761 88.3066L218.706 88.2177L218.642 88.135L217.059 89.3561ZM225.483 103.013L223.781 104.062L223.812 104.113L223.846 104.162L225.483 103.013ZM237.921 122.742L239.663 121.76L239.658 121.752L239.654 121.744L237.921 122.742ZM248.18 141.455L249.88 140.401L249.873 140.39L248.18 141.455ZM262.362 161.003L260.795 162.245L260.798 162.249L262.362 161.003ZM279.098 180.528L277.487 181.712L277.492 181.72L277.498 181.728L279.098 180.528ZM291.155 194.223L290.134 195.942L290.153 195.954L290.173 195.965L291.155 194.223ZM294.736 197.441L292.842 196.798L292.832 196.827L292.823 196.857L294.736 197.441ZM290.219 197.875L290.155 199.874L290.169 199.874L290.182 199.874L290.219 197.875ZM278.072 199.72L277.735 197.749L277.733 197.749L278.072 199.72ZM261.469 202.579L261.129 200.608L261.12 200.61L261.112 200.611L261.469 202.579ZM240.263 206.053L240.108 204.059L240.095 204.06L240.263 206.053ZM217.681 206.563L217.498 204.572L217.492 204.572L217.681 206.563ZM199.807 208.829L199.965 210.823L199.978 210.822L199.807 208.829ZM183.556 209.753L183.469 207.755L183.456 207.756L183.556 209.753ZM168.239 210.34L168.143 208.342L168.134 208.342L168.124 208.343L168.239 210.34ZM142.033 212.916L141.837 210.926L141.837 210.926L142.033 212.916ZM114.957 214.755L115.013 212.756L115.002 212.756L114.991 212.756L114.957 214.755ZM87.0271 211.333L86.7067 213.307L86.7174 213.309L87.0271 211.333ZM66.9199 207.031L67.7656 205.219L66.9199 207.031ZM48.046 193.249L46.709 194.736L46.7191 194.746L46.7294 194.755L48.046 193.249ZM40.6918 186.281L42.1569 184.919L42.1471 184.909L42.1373 184.899L40.6918 186.281ZM24.6655 159.572L26.5775 158.985L26.5746 158.976L24.6655 159.572ZM30.3492 110.839L32.187 111.629L32.2095 111.577L32.2289 111.523L30.3492 110.839ZM49.5832 83.2386L48.9009 81.3586L48.7488 81.4138L48.6076 81.4926L49.5832 83.2386ZM67.9423 80.6464L67.4343 82.5805L67.4513 82.585L67.4683 82.5891L67.9423 80.6464ZM78.5633 78.7523L78.0317 76.8243L78.0143 76.8291L77.997 76.8342L78.5633 78.7523ZM89.8274 75.7216L90.1918 77.6881L90.2238 77.6822L90.2556 77.6752L89.8274 75.7216ZM98.3165 74.6005L98.2453 72.602L98.2356 72.6023L98.3165 74.6005ZM114.95 78.0541L115.478 76.1256L115.472 76.124L114.95 78.0541ZM130.746 82.1121L131.22 80.1693L131.174 80.158L131.127 80.149L130.746 82.1121ZM146.12 85.42L146.529 83.4624L146.519 83.4604L146.12 85.42ZM157.476 87.6257L157.776 85.6486L157.682 85.6344L157.588 85.6291L157.476 87.6257ZM177.768 88.6985L177.603 90.6915L177.608 90.692L177.768 88.6985ZM195.65 90.1936L196.395 92.0498L196.428 92.0366L196.46 92.0223L195.65 90.1936ZM206.048 71.0666C204.168 71.7484 204.168 71.7484 204.168 71.7484C204.168 71.7485 204.168 71.7485 204.168 71.7486C204.168 71.7487 204.168 71.7488 204.168 71.7489C204.168 71.749 204.168 71.7491 204.168 71.7493C204.168 71.7494 204.168 71.7496 204.168 71.7498C204.168 71.75 204.168 71.7502 204.168 71.7504C204.169 71.7506 204.169 71.7509 204.169 71.7511C204.169 71.7514 204.169 71.7517 204.169 71.7519C204.169 71.7522 204.169 71.7526 204.169 71.7529C204.17 71.7532 204.17 71.7536 204.17 71.7539C204.17 71.7543 204.17 71.7547 204.17 71.7551C204.17 71.7555 204.17 71.7559 204.171 71.7564C204.171 71.7568 204.171 71.7573 204.171 71.7578C204.171 71.7582 204.172 71.7587 204.172 71.7592C204.172 71.7598 204.172 71.7603 204.172 71.7608C204.172 71.7614 204.173 71.762 204.173 71.7625C204.173 71.7631 204.173 71.7637 204.174 71.7643C204.174 71.765 204.174 71.7656 204.174 71.7663C204.174 71.7669 204.175 71.7676 204.175 71.7683C204.175 71.769 204.175 71.7697 204.176 71.7704C204.176 71.7711 204.176 71.7719 204.177 71.7726C204.177 71.7734 204.177 71.7742 204.177 71.775C204.178 71.7758 204.178 71.7766 204.178 71.7774C204.179 71.7782 204.179 71.7791 204.179 71.78C204.18 71.7808 204.18 71.7817 204.18 71.7826C204.181 71.7835 204.181 71.7844 204.181 71.7853C204.182 71.7863 204.182 71.7872 204.182 71.7882C204.183 71.7892 204.183 71.7901 204.183 71.7912C204.184 71.7922 204.184 71.7932 204.184 71.7942C204.185 71.7952 204.185 71.7963 204.186 71.7974C204.186 71.7984 204.186 71.7995 204.187 71.8006C204.187 71.8017 204.188 71.8029 204.188 71.804C204.188 71.8051 204.189 71.8063 204.189 71.8074C204.19 71.8086 204.19 71.8098 204.19 71.811C204.191 71.8122 204.191 71.8134 204.192 71.8147C204.192 71.8159 204.193 71.8172 204.193 71.8184C204.194 71.8197 204.194 71.821 204.195 71.8223C204.195 71.8236 204.196 71.8249 204.196 71.8262C204.197 71.8276 204.197 71.8289 204.197 71.8303C204.198 71.8317 204.198 71.8331 204.199 71.8345C204.2 71.8359 204.2 71.8373 204.201 71.8387C204.201 71.8401 204.202 71.8416 204.202 71.8431C204.203 71.8445 204.203 71.846 204.204 71.8475C204.204 71.849 204.205 71.8505 204.205 71.852C204.206 71.8536 204.206 71.8551 204.207 71.8567C204.208 71.8582 204.208 71.8598 204.209 71.8614C204.209 71.863 204.21 71.8646 204.211 71.8662C204.211 71.8679 204.212 71.8695 204.212 71.8712C204.213 71.8728 204.214 71.8745 204.214 71.8762C204.215 71.8779 204.215 71.8796 204.216 71.8813C204.217 71.883 204.217 71.8847 204.218 71.8865C204.219 71.8882 204.219 71.89 204.22 71.8918C204.22 71.8936 204.221 71.8954 204.222 71.8972C204.222 71.899 204.223 71.9008 204.224 71.9027C204.224 71.9045 204.225 71.9064 204.226 71.9082C204.226 71.9101 204.227 71.912 204.228 71.9139C204.229 71.9158 204.229 71.9177 204.23 71.9197C204.231 71.9216 204.231 71.9235 204.232 71.9255C204.233 71.9275 204.233 71.9295 204.234 71.9315C204.235 71.9334 204.236 71.9355 204.236 71.9375C204.237 71.9395 204.238 71.9415 204.239 71.9436C204.239 71.9457 204.24 71.9477 204.241 71.9498C204.242 71.9519 204.242 71.954 204.243 71.9561C204.244 71.9582 204.245 71.9604 204.245 71.9625C204.246 71.9646 204.247 71.9668 204.248 71.969C204.249 71.9711 204.249 71.9733 204.25 71.9755C204.251 71.9777 204.252 71.98 204.253 71.9822C204.253 71.9844 204.254 71.9867 204.255 71.9889C204.256 71.9912 204.257 71.9935 204.258 71.9957C204.258 71.998 204.259 72.0003 204.26 72.0027C204.261 72.005 204.262 72.0073 204.263 72.0097C204.263 72.012 204.264 72.0144 204.265 72.0167C204.266 72.0191 204.267 72.0215 204.268 72.0239C204.269 72.0263 204.27 72.0287 204.27 72.0312C204.271 72.0336 204.272 72.036 204.273 72.0385C204.274 72.041 204.275 72.0434 204.276 72.0459C204.277 72.0484 204.278 72.0509 204.278 72.0534C204.279 72.0559 204.28 72.0585 204.281 72.061C204.282 72.0636 204.283 72.0661 204.284 72.0687C204.285 72.0713 204.286 72.0738 204.287 72.0764C204.288 72.079 204.289 72.0817 204.29 72.0843C204.291 72.0869 204.292 72.0895 204.293 72.0922C204.294 72.0949 204.294 72.0975 204.295 72.1002C204.296 72.1029 204.297 72.1056 204.298 72.1083C204.299 72.111 204.3 72.1137 204.301 72.1164C204.302 72.1192 204.303 72.1219 204.304 72.1247C204.305 72.1274 204.306 72.1302 204.307 72.133C204.308 72.1358 204.309 72.1386 204.31 72.1414C204.311 72.1442 204.312 72.147 204.313 72.1499C204.315 72.1527 204.316 72.1556 204.317 72.1584C204.318 72.1613 204.319 72.1642 204.32 72.1671C204.321 72.17 204.322 72.1729 204.323 72.1758C204.324 72.1787 204.325 72.1816 204.326 72.1846C204.327 72.1875 204.328 72.1905 204.329 72.1935C204.33 72.1964 204.331 72.1994 204.333 72.2024C204.334 72.2054 204.335 72.2084 204.336 72.2114C204.337 72.2145 204.338 72.2175 204.339 72.2205C204.34 72.2236 204.341 72.2266 204.342 72.2297C204.344 72.2328 204.345 72.2359 204.346 72.239C204.347 72.2421 204.348 72.2452 204.349 72.2483C204.35 72.2514 204.351 72.2545 204.353 72.2577C204.354 72.2608 204.355 72.264 204.356 72.2672C204.357 72.2703 204.358 72.2735 204.36 72.2767C204.361 72.2799 204.362 72.2831 204.363 72.2863C204.364 72.2896 204.365 72.2928 204.367 72.296C204.368 72.2993 204.369 72.3025 204.37 72.3058C204.371 72.3091 204.372 72.3124 204.374 72.3156C204.375 72.3189 204.376 72.3222 204.377 72.3256C204.378 72.3289 204.38 72.3322 204.381 72.3355C204.382 72.3389 204.383 72.3422 204.385 72.3456C204.386 72.349 204.387 72.3523 204.388 72.3557C204.389 72.3591 204.391 72.3625 204.392 72.3659C204.393 72.3693 204.394 72.3728 204.396 72.3762C204.397 72.3796 204.398 72.3831 204.399 72.3865C204.401 72.39 204.402 72.3935 204.403 72.3969C204.404 72.4004 204.406 72.4039 204.407 72.4074C204.408 72.4109 204.409 72.4144 204.411 72.4179C204.412 72.4215 204.413 72.425 204.415 72.4286C204.416 72.4321 204.417 72.4357 204.418 72.4392C204.42 72.4428 204.421 72.4464 204.422 72.45C204.424 72.4536 204.425 72.4572 204.426 72.4608C204.428 72.4644 204.429 72.468 204.43 72.4717C204.432 72.4753 204.433 72.479 204.434 72.4826C204.436 72.4863 204.437 72.49 204.438 72.4936C204.44 72.4973 204.441 72.501 204.442 72.5047C204.444 72.5084 204.445 72.5121 204.446 72.5159C204.448 72.5196 204.449 72.5233 204.45 72.5271C204.452 72.5308 204.453 72.5346 204.454 72.5383C204.456 72.5421 204.457 72.5459 204.459 72.5497C204.46 72.5535 204.461 72.5573 204.463 72.5611C204.464 72.5649 204.465 72.5687 204.467 72.5725C204.468 72.5764 204.47 72.5802 204.471 72.5841C204.472 72.5879 204.474 72.5918 204.475 72.5956C204.477 72.5995 204.478 72.6034 204.479 72.6073C204.481 72.6112 204.482 72.6151 204.484 72.619C204.485 72.6229 204.487 72.6268 204.488 72.6308C204.489 72.6347 204.491 72.6387 204.492 72.6426C204.494 72.6466 204.495 72.6505 204.497 72.6545C204.498 72.6585 204.5 72.6625 204.501 72.6665C204.502 72.6705 204.504 72.6745 204.505 72.6785C204.507 72.6825 204.508 72.6865 204.51 72.6905C204.511 72.6946 204.513 72.6986 204.514 72.7027C204.516 72.7067 204.517 72.7108 204.519 72.7149C204.52 72.7189 204.521 72.723 204.523 72.7271C204.524 72.7312 204.526 72.7353 204.527 72.7394C204.529 72.7435 204.53 72.7477 204.532 72.7518C204.533 72.7559 204.535 72.7601 204.536 72.7642C204.538 72.7684 204.539 72.7725 204.541 72.7767C204.542 72.7809 204.544 72.785 204.546 72.7892C204.547 72.7934 204.549 72.7976 204.55 72.8018C204.552 72.806 204.553 72.8102 204.555 72.8145C204.556 72.8187 204.558 72.8229 204.559 72.8272C204.561 72.8314 204.562 72.8357 204.564 72.8399C204.565 72.8442 204.567 72.8485 204.569 72.8527C204.57 72.857 204.572 72.8613 204.573 72.8656C204.575 72.8699 204.576 72.8742 204.578 72.8785C204.579 72.8828 204.581 72.8872 204.583 72.8915C204.584 72.8958 204.586 72.9002 204.587 72.9045C204.589 72.9089 204.591 72.9132 204.592 72.9176C204.594 72.922 204.595 72.9263 204.597 72.9307C204.598 72.9351 204.6 72.9395 204.602 72.9439C204.603 72.9483 204.605 72.9527 204.606 72.9571C204.608 72.9615 204.61 72.966 204.611 72.9704C204.613 72.9748 204.615 72.9793 204.616 72.9837C204.618 72.9882 204.619 72.9927 204.621 72.9971C204.623 73.0016 204.624 73.0061 204.626 73.0106C204.627 73.0151 204.629 73.0195 204.631 73.024C204.632 73.0286 204.634 73.0331 204.636 73.0376C204.637 73.0421 204.639 73.0466 204.641 73.0512C204.642 73.0557 204.644 73.0602 204.646 73.0648C204.647 73.0693 204.649 73.0739 204.65 73.0785C204.652 73.083 204.654 73.0876 204.655 73.0922C204.657 73.0968 204.659 73.1014 204.66 73.106C204.662 73.1106 204.664 73.1152 204.665 73.1198C204.667 73.1244 204.669 73.129 204.671 73.1337C204.672 73.1383 204.674 73.1429 204.676 73.1476C204.677 73.1522 204.679 73.1569 204.681 73.1615C204.682 73.1662 204.684 73.1709 204.686 73.1755C204.687 73.1802 204.689 73.1849 204.691 73.1896C204.693 73.1943 204.694 73.199 204.696 73.2037C204.698 73.2084 204.699 73.2131 204.701 73.2178C204.703 73.2225 204.704 73.2272 204.706 73.232C204.708 73.2367 204.71 73.2415 204.711 73.2462C204.713 73.251 204.715 73.2557 204.717 73.2605C204.718 73.2652 204.72 73.27 204.722 73.2748C204.723 73.2796 204.725 73.2843 204.727 73.2891C204.729 73.2939 204.73 73.2987 204.732 73.3035C204.734 73.3083 204.736 73.3131 204.737 73.318C204.739 73.3228 204.741 73.3276 204.743 73.3324C204.744 73.3373 204.746 73.3421 204.748 73.347C204.75 73.3518 204.751 73.3567 204.753 73.3615C204.755 73.3664 204.757 73.3712 204.759 73.3761C204.76 73.381 204.762 73.3859 204.764 73.3907C204.766 73.3956 204.767 73.4005 204.769 73.4054C204.771 73.4103 204.773 73.4152 204.775 73.4201C204.776 73.425 204.778 73.43 204.78 73.4349C204.782 73.4398 204.783 73.4447 204.785 73.4497C204.787 73.4546 204.789 73.4596 204.791 73.4645C204.792 73.4695 204.794 73.4744 204.796 73.4794C204.798 73.4843 204.8 73.4893 204.801 73.4943C204.803 73.4992 204.805 73.5042 204.807 73.5092C204.809 73.5142 204.81 73.5192 204.812 73.5242C204.814 73.5292 204.816 73.5342 204.818 73.5392C204.82 73.5442 204.821 73.5492 204.823 73.5542C204.825 73.5593 204.827 73.5643 204.829 73.5693C204.83 73.5744 204.832 73.5794 204.834 73.5844C204.836 73.5895 204.838 73.5945 204.84 73.5996C204.841 73.6047 204.843 73.6097 204.845 73.6148C204.847 73.6199 204.849 73.6249 204.851 73.63C204.853 73.6351 204.854 73.6402 204.856 73.6453C204.858 73.6503 204.86 73.6554 204.862 73.6605C204.864 73.6656 204.865 73.6707 204.867 73.6759C204.869 73.681 204.871 73.6861 204.873 73.6912C204.875 73.6963 204.877 73.7014 204.878 73.7066C204.88 73.7117 204.882 73.7169 204.884 73.722C204.886 73.7271 204.888 73.7323 204.89 73.7374C204.892 73.7426 204.893 73.7477 204.895 73.7529C204.897 73.7581 204.899 73.7632 204.901 73.7684C204.903 73.7736 204.905 73.7788 204.907 73.7839C204.908 73.7891 204.91 73.7943 204.912 73.7995C204.914 73.8047 204.916 73.8099 204.918 73.8151C204.92 73.8203 204.922 73.8255 204.924 73.8307C204.925 73.8359 204.927 73.8411 204.929 73.8464C204.931 73.8516 204.933 73.8568 204.935 73.862C204.937 73.8673 204.939 73.8725 204.941 73.8777C204.942 73.883 204.944 73.8882 204.946 73.8935C204.948 73.8987 204.95 73.904 204.952 73.9092C204.954 73.9145 204.956 73.9197 204.958 73.925C204.96 73.9303 204.962 73.9355 204.963 73.9408C204.965 73.9461 204.967 73.9514 204.969 73.9566C204.971 73.9619 204.973 73.9672 204.975 73.9725C204.977 73.9778 204.979 73.9831 204.981 73.9884C204.983 73.9937 204.985 73.999 204.987 74.0043C204.988 74.0096 204.99 74.0149 204.992 74.0202C204.994 74.0255 204.996 74.0309 204.998 74.0362C205 74.0415 205.002 74.0468 205.004 74.0522C205.006 74.0575 205.008 74.0628 205.01 74.0682C205.012 74.0735 205.014 74.0788 205.016 74.0842C205.017 74.0895 205.019 74.0949 205.021 74.1002C205.023 74.1056 205.025 74.1109 205.027 74.1163C205.029 74.1217 205.031 74.127 205.033 74.1324C205.035 74.1378 205.037 74.1431 205.039 74.1485C205.041 74.1539 205.043 74.1593 205.045 74.1646C205.047 74.17 205.049 74.1754 205.051 74.1808C205.053 74.1862 205.054 74.1916 205.056 74.197C205.058 74.2023 205.06 74.2077 205.062 74.2131C205.064 74.2185 205.066 74.2239 205.068 74.2294C205.07 74.2348 205.072 74.2402 205.074 74.2456C205.076 74.251 205.078 74.2564 205.08 74.2618C205.082 74.2672 205.084 74.2727 205.086 74.2781C205.088 74.2835 205.09 74.2889 205.092 74.2944C205.094 74.2998 205.096 74.3052 205.098 74.3107C205.1 74.3161 205.102 74.3215 205.104 74.327C205.106 74.3324 205.108 74.3379 205.11 74.3433C205.112 74.3488 205.114 74.3542 205.115 74.3597C205.117 74.3651 205.119 74.3706 205.121 74.376C205.123 74.3815 205.125 74.3869 205.127 74.3924C205.129 74.3979 205.131 74.4033 205.133 74.4088C205.135 74.4143 205.137 74.4197 205.139 74.4252C205.141 74.4307 205.143 74.4361 205.145 74.4416C205.147 74.4471 205.149 74.4526 205.151 74.4581C205.153 74.4635 205.155 74.469 205.157 74.4745C205.159 74.48 205.161 74.4855 205.163 74.491C205.165 74.4965 205.167 74.502 205.169 74.5074C205.171 74.5129 205.173 74.5184 205.175 74.5239C205.177 74.5294 205.179 74.5349 205.181 74.5404C205.183 74.5459 205.185 74.5514 205.187 74.5569C205.189 74.5624 205.191 74.568 205.193 74.5735C205.195 74.579 205.197 74.5845 205.199 74.59C205.201 74.5955 205.203 74.601 205.205 74.6065C205.207 74.6121 205.209 74.6176 205.211 74.6231C205.213 74.6286 205.215 74.6341 205.217 74.6396C205.219 74.6452 205.221 74.6507 205.223 74.6562C205.225 74.6617 205.227 74.6673 205.229 74.6728C205.231 74.6783 205.233 74.6839 205.235 74.6894C205.237 74.6949 205.239 74.7004 205.241 74.706C205.243 74.7115 205.245 74.717 205.247 74.7226C205.249 74.7281 205.251 74.7337 205.253 74.7392C205.255 74.7447 205.257 74.7503 205.259 74.7558C205.261 74.7614 205.263 74.7669 205.265 74.7724C205.267 74.778 205.269 74.7835 205.271 74.7891C205.273 74.7946 205.275 74.8002 205.277 74.8057C205.279 74.8112 205.281 74.8168 205.283 74.8223C205.285 74.8279 205.287 74.8334 205.289 74.839C205.291 74.8445 205.293 74.8501 205.296 74.8556C205.298 74.8612 205.3 74.8667 205.302 74.8723C205.304 74.8778 205.306 74.8834 205.308 74.8889C205.31 74.8945 205.312 74.9001 205.314 74.9056C205.316 74.9112 205.318 74.9167 205.32 74.9223C205.322 74.9278 205.324 74.9334 205.326 74.9389C205.328 74.9445 205.33 74.9501 205.332 74.9556C205.334 74.9612 205.336 74.9667 205.338 74.9723C205.34 74.9778 205.342 74.9834 205.344 74.989C205.346 74.9945 205.348 75.0001 205.35 75.0056C205.352 75.0112 205.354 75.0167 205.356 75.0223C205.358 75.0279 205.36 75.0334 205.362 75.039C205.364 75.0445 205.366 75.0501 205.368 75.0557C205.37 75.0612 205.372 75.0668 205.374 75.0723C205.376 75.0779 205.378 75.0834 205.38 75.089C205.382 75.0946 205.384 75.1001 205.386 75.1057C205.388 75.1112 205.39 75.1168 205.392 75.1223C205.394 75.1279 205.396 75.1335 205.398 75.139C205.4 75.1446 205.402 75.1501 205.404 75.1557C205.406 75.1612 205.408 75.1668 205.41 75.1723C205.412 75.1779 205.414 75.1835 205.417 75.189C205.419 75.1946 205.421 75.2001 205.423 75.2057C205.425 75.2112 205.427 75.2168 205.429 75.2223C205.431 75.2279 205.433 75.2334 205.435 75.239C205.437 75.2445 205.439 75.2501 205.441 75.2556C205.443 75.2612 205.445 75.2667 205.447 75.2723C205.449 75.2778 205.451 75.2834 205.453 75.2889C205.455 75.2944 205.457 75.3 205.459 75.3055C205.461 75.3111 205.463 75.3166 205.465 75.3222C205.467 75.3277 205.469 75.3332 205.471 75.3388C205.473 75.3443 205.475 75.3498 205.477 75.3554C205.479 75.3609 205.481 75.3664 205.483 75.372C205.485 75.3775 205.487 75.383 205.489 75.3886C205.491 75.3941 205.493 75.3996 205.495 75.4052C205.497 75.4107 205.499 75.4162 205.501 75.4217C205.503 75.4273 205.505 75.4328 205.507 75.4383C205.509 75.4438 205.511 75.4494 205.513 75.4549C205.515 75.4604 205.517 75.4659 205.519 75.4714C205.521 75.4769 205.523 75.4825 205.525 75.488C205.527 75.4935 205.529 75.499 205.531 75.5045C205.533 75.51 205.535 75.5155 205.537 75.521C205.539 75.5265 205.541 75.532 205.543 75.5375C205.545 75.543 205.547 75.5485 205.549 75.554C205.551 75.5595 205.553 75.565 205.555 75.5705C205.557 75.576 205.559 75.5815 205.561 75.587C205.563 75.5925 205.565 75.598 205.567 75.6034C205.569 75.6089 205.571 75.6144 205.573 75.6199C205.575 75.6254 205.577 75.6309 205.579 75.6363C205.581 75.6418 205.583 75.6473 205.585 75.6528C205.587 75.6582 205.589 75.6637 205.591 75.6692C205.593 75.6746 205.595 75.6801 205.597 75.6856C205.599 75.691 205.601 75.6965 205.603 75.7019C205.605 75.7074 205.607 75.7128 205.609 75.7183C205.611 75.7237 205.613 75.7292 205.615 75.7346C205.617 75.7401 205.618 75.7455 205.62 75.751C205.622 75.7564 205.624 75.7619 205.626 75.7673C205.628 75.7727 205.63 75.7782 205.632 75.7836C205.634 75.789 205.636 75.7944 205.638 75.7999C205.64 75.8053 205.642 75.8107 205.644 75.8161C205.646 75.8216 205.648 75.827 205.65 75.8324C205.652 75.8378 205.654 75.8432 205.656 75.8486C205.658 75.854 205.66 75.8594 205.662 75.8648C205.664 75.8702 205.666 75.8756 205.668 75.881C205.67 75.8864 205.672 75.8918 205.674 75.8972C205.675 75.9026 205.677 75.9079 205.679 75.9133C205.681 75.9187 205.683 75.9241 205.685 75.9295C205.687 75.9348 205.689 75.9402 205.691 75.9456C205.693 75.9509 205.695 75.9563 205.697 75.9617C205.699 75.967 205.701 75.9724 205.703 75.9777C205.705 75.9831 205.707 75.9884 205.709 75.9938C205.711 75.9991 205.712 76.0045 205.714 76.0098C205.716 76.0151 205.718 76.0205 205.72 76.0258C205.722 76.0311 205.724 76.0365 205.726 76.0418C205.728 76.0471 205.73 76.0524 205.732 76.0577C205.734 76.063 205.736 76.0684 205.738 76.0737C205.74 76.079 205.741 76.0843 205.743 76.0896C205.745 76.0949 205.747 76.1002 205.749 76.1055C205.751 76.1107 205.753 76.116 205.755 76.1213C205.757 76.1266 205.759 76.1319 205.761 76.1371C205.763 76.1424 205.764 76.1477 205.766 76.153C205.768 76.1582 205.77 76.1635 205.772 76.1687C205.774 76.174 205.776 76.1792 205.778 76.1845C205.78 76.1897 205.782 76.195 205.784 76.2002C205.785 76.2055 205.787 76.2107 205.789 76.2159C205.791 76.2212 205.793 76.2264 205.795 76.2316C205.797 76.2368 205.799 76.242 205.801 76.2472C205.802 76.2525 205.804 76.2577 205.806 76.2629C205.808 76.2681 205.81 76.2733 205.812 76.2785C205.814 76.2836 205.816 76.2888 205.818 76.294C205.819 76.2992 205.821 76.3044 205.823 76.3096C205.825 76.3147 205.827 76.3199 205.829 76.3251C205.831 76.3302 205.833 76.3354 205.834 76.3405C205.836 76.3457 205.838 76.3508 205.84 76.356C205.842 76.3611 205.844 76.3662 205.846 76.3714C205.847 76.3765 205.849 76.3816 205.851 76.3868C205.853 76.3919 205.855 76.397 205.857 76.4021C205.859 76.4072 205.86 76.4123 205.862 76.4174C205.864 76.4225 205.866 76.4276 205.868 76.4327C205.87 76.4378 205.872 76.4429 205.873 76.448C205.875 76.453 205.877 76.4581 205.879 76.4632C205.881 76.4682 205.883 76.4733 205.884 76.4784C205.886 76.4834 205.888 76.4885 205.89 76.4935C205.892 76.4986 205.894 76.5036 205.895 76.5086C205.897 76.5137 205.899 76.5187 205.901 76.5237C205.903 76.5287 205.905 76.5337 205.906 76.5388C205.908 76.5438 205.91 76.5488 205.912 76.5538C205.914 76.5588 205.915 76.5638 205.917 76.5687C205.919 76.5737 205.921 76.5787 205.923 76.5837C205.924 76.5887 205.926 76.5936 205.928 76.5986C205.93 76.6036 205.932 76.6085 205.933 76.6135C205.935 76.6184 205.937 76.6233 205.939 76.6283C205.941 76.6332 205.942 76.6381 205.944 76.6431C205.946 76.648 205.948 76.6529 205.95 76.6578C205.951 76.6627 205.953 76.6676 205.955 76.6725C205.957 76.6774 205.958 76.6823 205.96 76.6872C205.962 76.6921 205.964 76.697 205.966 76.7019C205.967 76.7067 205.969 76.7116 205.971 76.7164C205.973 76.7213 205.974 76.7262 205.976 76.731C205.978 76.7359 205.98 76.7407 205.981 76.7455C205.983 76.7504 205.985 76.7552 205.987 76.76C205.988 76.7648 205.99 76.7696 205.992 76.7744C205.994 76.7792 205.995 76.784 205.997 76.7888C205.999 76.7936 206.001 76.7984 206.002 76.8032C206.004 76.808 206.006 76.8127 206.008 76.8175C206.009 76.8222 206.011 76.827 206.013 76.8318C206.014 76.8365 206.016 76.8412 206.018 76.846C206.02 76.8507 206.021 76.8554 206.023 76.8602C206.025 76.8649 206.026 76.8696 206.028 76.8743C206.03 76.879 206.032 76.8837 206.033 76.8884C206.035 76.8931 206.037 76.8978 206.038 76.9024C206.04 76.9071 206.042 76.9118 206.043 76.9164C206.045 76.9211 206.047 76.9258 206.049 76.9304C206.05 76.935 206.052 76.9397 206.054 76.9443C206.055 76.9489 206.057 76.9536 206.059 76.9582C206.06 76.9628 206.062 76.9674 206.064 76.972C206.065 76.9766 206.067 76.9812 206.069 76.9858C206.07 76.9903 206.072 76.9949 206.074 76.9995C206.075 77.0041 206.077 77.0086 206.079 77.0132C206.08 77.0177 206.082 77.0223 206.084 77.0268C206.085 77.0313 206.087 77.0359 206.088 77.0404C206.09 77.0449 206.092 77.0494 206.093 77.0539C206.095 77.0584 206.097 77.0629 206.098 77.0674C206.1 77.0719 206.101 77.0764 206.103 77.0808C206.105 77.0853 206.106 77.0898 206.108 77.0942C206.11 77.0987 206.111 77.1031 206.113 77.1075C206.114 77.112 206.116 77.1164 206.118 77.1208C206.119 77.1252 206.121 77.1297 206.122 77.1341C206.124 77.1385 206.126 77.1429 206.127 77.1472C206.129 77.1516 206.13 77.156 206.132 77.1604C206.134 77.1647 206.135 77.1691 206.137 77.1734C206.138 77.1778 206.14 77.1821 206.141 77.1865C206.143 77.1908 206.145 77.1951 206.146 77.1994C206.148 77.2038 206.149 77.2081 206.151 77.2124C206.152 77.2167 206.154 77.2209 206.156 77.2252C206.157 77.2295 206.159 77.2338 206.16 77.238C206.162 77.2423 206.163 77.2466 206.165 77.2508C206.166 77.255 206.168 77.2593 206.169 77.2635C206.171 77.2677 206.172 77.2719 206.174 77.2761C206.176 77.2804 206.177 77.2845 206.179 77.2887C206.18 77.2929 206.182 77.2971 206.183 77.3013C206.185 77.3054 206.186 77.3096 206.188 77.3137C206.189 77.3179 206.191 77.322 206.192 77.3262C206.194 77.3303 206.195 77.3344 206.197 77.3385C206.198 77.3426 206.2 77.3467 206.201 77.3508C206.203 77.3549 206.204 77.359 206.206 77.3631C206.207 77.3672 206.209 77.3712 206.21 77.3753C206.211 77.3793 206.213 77.3834 206.214 77.3874C206.216 77.3914 206.217 77.3955 206.219 77.3995C206.22 77.4035 206.222 77.4075 206.223 77.4115C206.225 77.4155 206.226 77.4195 206.227 77.4235C206.229 77.4274 206.23 77.4314 206.232 77.4353C206.233 77.4393 206.235 77.4432 206.236 77.4472C206.238 77.4511 206.239 77.455 206.24 77.459C206.242 77.4629 206.243 77.4668 206.245 77.4707C206.246 77.4746 206.247 77.4784 206.249 77.4823C206.25 77.4862 206.252 77.49 206.253 77.4939C206.254 77.4978 206.256 77.5016 206.257 77.5054C206.259 77.5093 206.26 77.5131 206.261 77.5169C206.263 77.5207 206.264 77.5245 206.266 77.5283C206.267 77.5321 206.268 77.5359 206.27 77.5396C206.271 77.5434 206.272 77.5471 206.274 77.5509C206.275 77.5546 206.276 77.5584 206.278 77.5621C206.279 77.5658 206.28 77.5695 206.282 77.5732C206.283 77.5769 206.285 77.5806 206.286 77.5843C206.287 77.588 206.289 77.5917 206.29 77.5953C206.291 77.599 206.293 77.6026 206.294 77.6063C206.295 77.6099 206.296 77.6135 206.298 77.6172C206.299 77.6208 206.3 77.6244 206.302 77.628C206.303 77.6316 206.304 77.6351 206.306 77.6387C206.307 77.6423 206.308 77.6458 206.309 77.6494C206.311 77.6529 206.312 77.6565 206.313 77.66C206.315 77.6635 206.316 77.667 206.317 77.6706C206.318 77.6741 206.32 77.6775 206.321 77.681C206.322 77.6845 206.323 77.688 206.325 77.6914C206.326 77.6949 206.327 77.6983 206.328 77.7018C206.33 77.7052 206.331 77.7086 206.332 77.712C206.333 77.7154 206.335 77.7188 206.336 77.7222C206.337 77.7256 206.338 77.729 206.34 77.7324C206.341 77.7357 206.342 77.7391 206.343 77.7424C206.344 77.7458 206.346 77.7491 206.347 77.7524C206.348 77.7557 206.349 77.759 206.35 77.7623C206.352 77.7656 206.353 77.7689 206.354 77.7722C206.355 77.7754 206.356 77.7787 206.358 77.7819C206.359 77.7852 206.36 77.7884 206.361 77.7916C206.362 77.7948 206.363 77.798 206.365 77.8012C206.366 77.8044 206.367 77.8076 206.368 77.8108C206.369 77.814 206.37 77.8171 206.371 77.8203C206.373 77.8234 206.374 77.8265 206.375 77.8297C206.376 77.8328 206.377 77.8359 206.378 77.839C206.379 77.8421 206.381 77.8452 206.382 77.8482C206.383 77.8513 206.384 77.8544 206.385 77.8574C206.386 77.8605 206.387 77.8635 206.388 77.8665C206.389 77.8695 206.39 77.8725 206.392 77.8755C206.393 77.8785 206.394 77.8815 206.395 77.8845C206.396 77.8875 206.397 77.8904 206.398 77.8934C206.399 77.8963 206.4 77.8992 206.401 77.9022C206.402 77.9051 206.403 77.908 206.404 77.9109C206.405 77.9138 206.406 77.9166 206.408 77.9195C206.409 77.9224 206.41 77.9252 206.411 77.9281C206.412 77.9309 206.413 77.9337 206.414 77.9365C206.415 77.9394 206.416 77.9422 206.417 77.945C206.418 77.9477 206.419 77.9505 206.42 77.9533C206.421 77.956 206.422 77.9588 206.423 77.9615C206.424 77.9642 206.425 77.967 206.426 77.9697C206.427 77.9724 206.428 77.9751 206.429 77.9778C206.43 77.9804 206.431 77.9831 206.432 77.9858C206.433 77.9884 206.433 77.9911 206.434 77.9937C206.435 77.9963 206.436 77.9989 206.437 78.0015L210.198 76.6379C210.197 76.6353 210.196 76.6327 210.195 76.6301C210.194 76.6275 210.193 76.6248 210.192 76.6222C210.191 76.6195 210.19 76.6169 210.189 76.6142C210.188 76.6115 210.187 76.6088 210.186 76.6061C210.185 76.6034 210.184 76.6007 210.183 76.5979C210.182 76.5952 210.181 76.5925 210.18 76.5897C210.179 76.5869 210.178 76.5842 210.177 76.5814C210.176 76.5786 210.175 76.5758 210.174 76.573C210.173 76.5702 210.172 76.5673 210.171 76.5645C210.17 76.5617 210.169 76.5588 210.168 76.5559C210.167 76.5531 210.166 76.5502 210.165 76.5473C210.164 76.5444 210.163 76.5415 210.162 76.5386C210.161 76.5357 210.159 76.5327 210.158 76.5298C210.157 76.5268 210.156 76.5239 210.155 76.5209C210.154 76.5179 210.153 76.515 210.152 76.512C210.151 76.509 210.15 76.506 210.149 76.5029C210.148 76.4999 210.146 76.4969 210.145 76.4938C210.144 76.4908 210.143 76.4877 210.142 76.4847C210.141 76.4816 210.14 76.4785 210.139 76.4754C210.138 76.4723 210.136 76.4692 210.135 76.4661C210.134 76.463 210.133 76.4598 210.132 76.4567C210.131 76.4535 210.13 76.4504 210.128 76.4472C210.127 76.444 210.126 76.4409 210.125 76.4377C210.124 76.4345 210.123 76.4313 210.121 76.428C210.12 76.4248 210.119 76.4216 210.118 76.4183C210.117 76.4151 210.116 76.4118 210.114 76.4086C210.113 76.4053 210.112 76.402 210.111 76.3987C210.11 76.3954 210.108 76.3921 210.107 76.3888C210.106 76.3855 210.105 76.3822 210.104 76.3788C210.102 76.3755 210.101 76.3721 210.1 76.3688C210.099 76.3654 210.098 76.362 210.096 76.3587C210.095 76.3553 210.094 76.3519 210.093 76.3485C210.091 76.3451 210.09 76.3416 210.089 76.3382C210.088 76.3348 210.086 76.3313 210.085 76.3279C210.084 76.3244 210.083 76.3209 210.081 76.3175C210.08 76.314 210.079 76.3105 210.078 76.307C210.076 76.3035 210.075 76.3 210.074 76.2964C210.072 76.2929 210.071 76.2894 210.07 76.2858C210.069 76.2823 210.067 76.2787 210.066 76.2751C210.065 76.2716 210.063 76.268 210.062 76.2644C210.061 76.2608 210.059 76.2572 210.058 76.2536C210.057 76.25 210.056 76.2463 210.054 76.2427C210.053 76.2391 210.052 76.2354 210.05 76.2318C210.049 76.2281 210.048 76.2244 210.046 76.2207C210.045 76.2171 210.044 76.2134 210.042 76.2097C210.041 76.206 210.04 76.2023 210.038 76.1985C210.037 76.1948 210.035 76.1911 210.034 76.1873C210.033 76.1836 210.031 76.1798 210.03 76.176C210.029 76.1723 210.027 76.1685 210.026 76.1647C210.025 76.1609 210.023 76.1571 210.022 76.1533C210.02 76.1495 210.019 76.1457 210.018 76.1419C210.016 76.138 210.015 76.1342 210.013 76.1303C210.012 76.1265 210.011 76.1226 210.009 76.1187C210.008 76.1149 210.006 76.111 210.005 76.1071C210.004 76.1032 210.002 76.0993 210.001 76.0954C209.999 76.0915 209.998 76.0875 209.996 76.0836C209.995 76.0797 209.994 76.0757 209.992 76.0718C209.991 76.0678 209.989 76.0639 209.988 76.0599C209.986 76.0559 209.985 76.0519 209.984 76.0479C209.982 76.0439 209.981 76.0399 209.979 76.0359C209.978 76.0319 209.976 76.0279 209.975 76.0238C209.973 76.0198 209.972 76.0158 209.97 76.0117C209.969 76.0077 209.967 76.0036 209.966 75.9995C209.964 75.9954 209.963 75.9914 209.962 75.9873C209.96 75.9832 209.959 75.9791 209.957 75.975C209.956 75.9708 209.954 75.9667 209.953 75.9626C209.951 75.9585 209.95 75.9543 209.948 75.9502C209.947 75.946 209.945 75.9419 209.944 75.9377C209.942 75.9335 209.941 75.9293 209.939 75.9252C209.937 75.921 209.936 75.9168 209.934 75.9126C209.933 75.9084 209.931 75.9041 209.93 75.8999C209.928 75.8957 209.927 75.8915 209.925 75.8872C209.924 75.883 209.922 75.8787 209.921 75.8745C209.919 75.8702 209.917 75.8659 209.916 75.8617C209.914 75.8574 209.913 75.8531 209.911 75.8488C209.91 75.8445 209.908 75.8402 209.907 75.8359C209.905 75.8316 209.903 75.8272 209.902 75.8229C209.9 75.8186 209.899 75.8142 209.897 75.8099C209.896 75.8055 209.894 75.8012 209.892 75.7968C209.891 75.7924 209.889 75.7881 209.888 75.7837C209.886 75.7793 209.884 75.7749 209.883 75.7705C209.881 75.7661 209.88 75.7617 209.878 75.7573C209.876 75.7528 209.875 75.7484 209.873 75.744C209.872 75.7395 209.87 75.7351 209.868 75.7306C209.867 75.7262 209.865 75.7217 209.864 75.7173C209.862 75.7128 209.86 75.7083 209.859 75.7038C209.857 75.6993 209.855 75.6948 209.854 75.6903C209.852 75.6858 209.85 75.6813 209.849 75.6768C209.847 75.6723 209.846 75.6678 209.844 75.6632C209.842 75.6587 209.841 75.6541 209.839 75.6496C209.837 75.645 209.836 75.6405 209.834 75.6359C209.832 75.6313 209.831 75.6268 209.829 75.6222C209.827 75.6176 209.826 75.613 209.824 75.6084C209.822 75.6038 209.821 75.5992 209.819 75.5946C209.817 75.59 209.816 75.5854 209.814 75.5807C209.812 75.5761 209.811 75.5715 209.809 75.5668C209.807 75.5622 209.806 75.5575 209.804 75.5529C209.802 75.5482 209.8 75.5435 209.799 75.5389C209.797 75.5342 209.795 75.5295 209.794 75.5248C209.792 75.5201 209.79 75.5154 209.789 75.5107C209.787 75.506 209.785 75.5013 209.783 75.4966C209.782 75.4919 209.78 75.4871 209.778 75.4824C209.777 75.4777 209.775 75.4729 209.773 75.4682C209.771 75.4634 209.77 75.4587 209.768 75.4539C209.766 75.4492 209.764 75.4444 209.763 75.4396C209.761 75.4348 209.759 75.43 209.758 75.4253C209.756 75.4205 209.754 75.4157 209.752 75.4109C209.751 75.4061 209.749 75.4012 209.747 75.3964C209.745 75.3916 209.744 75.3868 209.742 75.3819C209.74 75.3771 209.738 75.3723 209.737 75.3674C209.735 75.3626 209.733 75.3577 209.731 75.3529C209.73 75.348 209.728 75.3432 209.726 75.3383C209.724 75.3334 209.722 75.3285 209.721 75.3236C209.719 75.3188 209.717 75.3139 209.715 75.309C209.714 75.3041 209.712 75.2992 209.71 75.2943C209.708 75.2893 209.706 75.2844 209.705 75.2795C209.703 75.2746 209.701 75.2696 209.699 75.2647C209.697 75.2598 209.696 75.2548 209.694 75.2499C209.692 75.2449 209.69 75.24 209.689 75.235C209.687 75.23 209.685 75.2251 209.683 75.2201C209.681 75.2151 209.679 75.2102 209.678 75.2052C209.676 75.2002 209.674 75.1952 209.672 75.1902C209.67 75.1852 209.669 75.1802 209.667 75.1752C209.665 75.1702 209.663 75.1652 209.661 75.1601C209.66 75.1551 209.658 75.1501 209.656 75.1451C209.654 75.14 209.652 75.135 209.65 75.1299C209.649 75.1249 209.647 75.1198 209.645 75.1148C209.643 75.1097 209.641 75.1047 209.639 75.0996C209.638 75.0945 209.636 75.0895 209.634 75.0844C209.632 75.0793 209.63 75.0742 209.628 75.0691C209.626 75.064 209.625 75.0589 209.623 75.0538C209.621 75.0487 209.619 75.0436 209.617 75.0385C209.615 75.0334 209.613 75.0283 209.612 75.0232C209.61 75.0181 209.608 75.0129 209.606 75.0078C209.604 75.0027 209.602 74.9975 209.6 74.9924C209.599 74.9872 209.597 74.9821 209.595 74.977C209.593 74.9718 209.591 74.9666 209.589 74.9615C209.587 74.9563 209.585 74.9511 209.584 74.946C209.582 74.9408 209.58 74.9356 209.578 74.9304C209.576 74.9253 209.574 74.9201 209.572 74.9149C209.57 74.9097 209.569 74.9045 209.567 74.8993C209.565 74.8941 209.563 74.8889 209.561 74.8837C209.559 74.8785 209.557 74.8732 209.555 74.868C209.553 74.8628 209.552 74.8576 209.55 74.8524C209.548 74.8471 209.546 74.8419 209.544 74.8366C209.542 74.8314 209.54 74.8262 209.538 74.8209C209.536 74.8157 209.534 74.8104 209.532 74.8052C209.531 74.7999 209.529 74.7946 209.527 74.7894C209.525 74.7841 209.523 74.7788 209.521 74.7736C209.519 74.7683 209.517 74.763 209.515 74.7577C209.513 74.7525 209.511 74.7472 209.51 74.7419C209.508 74.7366 209.506 74.7313 209.504 74.726C209.502 74.7207 209.5 74.7154 209.498 74.7101C209.496 74.7048 209.494 74.6995 209.492 74.6942C209.49 74.6888 209.488 74.6835 209.486 74.6782C209.484 74.6729 209.483 74.6676 209.481 74.6622C209.479 74.6569 209.477 74.6516 209.475 74.6462C209.473 74.6409 209.471 74.6355 209.469 74.6302C209.467 74.6249 209.465 74.6195 209.463 74.6142C209.461 74.6088 209.459 74.6034 209.457 74.5981C209.455 74.5927 209.453 74.5874 209.451 74.582C209.45 74.5766 209.448 74.5713 209.446 74.5659C209.444 74.5605 209.442 74.5551 209.44 74.5498C209.438 74.5444 209.436 74.539 209.434 74.5336C209.432 74.5282 209.43 74.5228 209.428 74.5174C209.426 74.512 209.424 74.5066 209.422 74.5012C209.42 74.4958 209.418 74.4904 209.416 74.485C209.414 74.4796 209.412 74.4742 209.41 74.4688C209.408 74.4634 209.406 74.458 209.405 74.4526C209.403 74.4471 209.401 74.4417 209.399 74.4363C209.397 74.4309 209.395 74.4254 209.393 74.42C209.391 74.4146 209.389 74.4092 209.387 74.4037C209.385 74.3983 209.383 74.3928 209.381 74.3874C209.379 74.382 209.377 74.3765 209.375 74.3711C209.373 74.3656 209.371 74.3602 209.369 74.3547C209.367 74.3493 209.365 74.3438 209.363 74.3384C209.361 74.3329 209.359 74.3274 209.357 74.322C209.355 74.3165 209.353 74.3111 209.351 74.3056C209.349 74.3001 209.347 74.2947 209.345 74.2892C209.343 74.2837 209.341 74.2782 209.339 74.2728C209.337 74.2673 209.335 74.2618 209.333 74.2563C209.331 74.2508 209.329 74.2454 209.327 74.2399C209.325 74.2344 209.323 74.2289 209.321 74.2234C209.319 74.2179 209.317 74.2124 209.315 74.2069C209.313 74.2014 209.311 74.1959 209.309 74.1904C209.307 74.185 209.305 74.1795 209.303 74.174C209.301 74.1685 209.299 74.1629 209.297 74.1574C209.295 74.1519 209.293 74.1464 209.291 74.1409C209.289 74.1354 209.287 74.1299 209.285 74.1244C209.283 74.1189 209.281 74.1134 209.279 74.1079C209.277 74.1023 209.275 74.0968 209.273 74.0913C209.271 74.0858 209.269 74.0803 209.267 74.0747C209.265 74.0692 209.263 74.0637 209.261 74.0582C209.259 74.0526 209.257 74.0471 209.255 74.0416C209.253 74.0361 209.251 74.0305 209.249 74.025C209.247 74.0195 209.245 74.0139 209.243 74.0084C209.241 74.0029 209.239 73.9973 209.237 73.9918C209.235 73.9863 209.233 73.9807 209.231 73.9752C209.229 73.9697 209.227 73.9641 209.225 73.9586C209.223 73.953 209.221 73.9475 209.219 73.942C209.217 73.9364 209.215 73.9309 209.213 73.9253C209.211 73.9198 209.209 73.9142 209.207 73.9087C209.205 73.9031 209.203 73.8976 209.201 73.892C209.199 73.8865 209.197 73.8809 209.195 73.8754C209.193 73.8699 209.191 73.8643 209.189 73.8588C209.187 73.8532 209.185 73.8476 209.183 73.8421C209.181 73.8365 209.179 73.831 209.177 73.8254C209.175 73.8199 209.173 73.8143 209.171 73.8088C209.169 73.8032 209.167 73.7977 209.165 73.7921C209.163 73.7866 209.161 73.781 209.159 73.7754C209.157 73.7699 209.155 73.7643 209.153 73.7588C209.151 73.7532 209.149 73.7477 209.147 73.7421C209.145 73.7365 209.143 73.731 209.141 73.7254C209.139 73.7199 209.137 73.7143 209.135 73.7088C209.133 73.7032 209.131 73.6976 209.129 73.6921C209.126 73.6865 209.124 73.681 209.122 73.6754C209.12 73.6698 209.118 73.6643 209.116 73.6587C209.114 73.6532 209.112 73.6476 209.11 73.6421C209.108 73.6365 209.106 73.6309 209.104 73.6254C209.102 73.6198 209.1 73.6143 209.098 73.6087C209.096 73.6031 209.094 73.5976 209.092 73.592C209.09 73.5865 209.088 73.5809 209.086 73.5754C209.084 73.5698 209.082 73.5643 209.08 73.5587C209.078 73.5531 209.076 73.5476 209.074 73.542C209.072 73.5365 209.07 73.5309 209.068 73.5254C209.066 73.5198 209.064 73.5143 209.062 73.5087C209.06 73.5032 209.058 73.4976 209.056 73.4921C209.054 73.4865 209.052 73.481 209.05 73.4754C209.048 73.4699 209.046 73.4643 209.044 73.4588C209.042 73.4532 209.04 73.4477 209.038 73.4421C209.036 73.4366 209.034 73.431 209.032 73.4255C209.03 73.4199 209.028 73.4144 209.026 73.4089C209.024 73.4033 209.022 73.3978 209.02 73.3922C209.018 73.3867 209.016 73.3812 209.014 73.3756C209.012 73.3701 209.01 73.3645 209.008 73.359C209.006 73.3535 209.004 73.3479 209.002 73.3424C209 73.3369 208.998 73.3313 208.996 73.3258C208.994 73.3203 208.992 73.3148 208.99 73.3092C208.988 73.3037 208.986 73.2982 208.984 73.2926C208.982 73.2871 208.98 73.2816 208.978 73.2761C208.976 73.2706 208.974 73.265 208.972 73.2595C208.97 73.254 208.968 73.2485 208.966 73.243C208.964 73.2374 208.962 73.2319 208.96 73.2264C208.957 73.2209 208.955 73.2154 208.954 73.2099C208.952 73.2044 208.95 73.1989 208.948 73.1934C208.946 73.1879 208.944 73.1824 208.942 73.1769C208.94 73.1714 208.938 73.1659 208.936 73.1604C208.934 73.1549 208.932 73.1494 208.93 73.1439C208.928 73.1384 208.926 73.1329 208.924 73.1274C208.922 73.1219 208.92 73.1164 208.918 73.1109C208.916 73.1054 208.914 73.1 208.912 73.0945C208.91 73.089 208.908 73.0835 208.906 73.0781C208.904 73.0726 208.902 73.0671 208.9 73.0616C208.898 73.0562 208.896 73.0507 208.894 73.0452C208.892 73.0398 208.89 73.0343 208.888 73.0288C208.886 73.0234 208.884 73.0179 208.882 73.0125C208.88 73.007 208.878 73.0015 208.876 72.9961C208.874 72.9906 208.872 72.9852 208.87 72.9797C208.868 72.9743 208.866 72.9689 208.864 72.9634C208.862 72.958 208.86 72.9525 208.858 72.9471C208.856 72.9417 208.854 72.9362 208.852 72.9308C208.85 72.9254 208.848 72.9199 208.846 72.9145C208.844 72.9091 208.842 72.9037 208.84 72.8983C208.838 72.8928 208.836 72.8874 208.834 72.882C208.833 72.8766 208.831 72.8712 208.829 72.8658C208.827 72.8604 208.825 72.855 208.823 72.8496C208.821 72.8442 208.819 72.8388 208.817 72.8334C208.815 72.828 208.813 72.8226 208.811 72.8172C208.809 72.8118 208.807 72.8064 208.805 72.8011C208.803 72.7957 208.801 72.7903 208.799 72.7849C208.797 72.7796 208.795 72.7742 208.793 72.7688C208.791 72.7634 208.79 72.7581 208.788 72.7527C208.786 72.7474 208.784 72.742 208.782 72.7367C208.78 72.7313 208.778 72.726 208.776 72.7206C208.774 72.7153 208.772 72.7099 208.77 72.7046C208.768 72.6993 208.766 72.6939 208.764 72.6886C208.762 72.6833 208.76 72.6779 208.759 72.6726C208.757 72.6673 208.755 72.662 208.753 72.6567C208.751 72.6513 208.749 72.646 208.747 72.6407C208.745 72.6354 208.743 72.6301 208.741 72.6248C208.739 72.6195 208.737 72.6142 208.735 72.6089C208.733 72.6036 208.732 72.5984 208.73 72.5931C208.728 72.5878 208.726 72.5825 208.724 72.5772C208.722 72.572 208.72 72.5667 208.718 72.5614C208.716 72.5562 208.714 72.5509 208.712 72.5456C208.711 72.5404 208.709 72.5351 208.707 72.5299C208.705 72.5246 208.703 72.5194 208.701 72.5142C208.699 72.5089 208.697 72.5037 208.695 72.4985C208.693 72.4932 208.692 72.488 208.69 72.4828C208.688 72.4776 208.686 72.4723 208.684 72.4671C208.682 72.4619 208.68 72.4567 208.678 72.4515C208.676 72.4463 208.674 72.4411 208.673 72.4359C208.671 72.4307 208.669 72.4255 208.667 72.4204C208.665 72.4152 208.663 72.41 208.661 72.4048C208.659 72.3997 208.658 72.3945 208.656 72.3893C208.654 72.3842 208.652 72.379 208.65 72.3739C208.648 72.3687 208.646 72.3636 208.644 72.3584C208.643 72.3533 208.641 72.3481 208.639 72.343C208.637 72.3379 208.635 72.3327 208.633 72.3276C208.631 72.3225 208.63 72.3174 208.628 72.3123C208.626 72.3072 208.624 72.3021 208.622 72.297C208.62 72.2919 208.618 72.2868 208.617 72.2817C208.615 72.2766 208.613 72.2715 208.611 72.2664C208.609 72.2613 208.607 72.2563 208.606 72.2512C208.604 72.2461 208.602 72.2411 208.6 72.236C208.598 72.231 208.596 72.2259 208.595 72.2209C208.593 72.2158 208.591 72.2108 208.589 72.2058C208.587 72.2007 208.585 72.1957 208.584 72.1907C208.582 72.1857 208.58 72.1806 208.578 72.1756C208.576 72.1706 208.574 72.1656 208.573 72.1606C208.571 72.1556 208.569 72.1506 208.567 72.1456C208.565 72.1407 208.564 72.1357 208.562 72.1307C208.56 72.1257 208.558 72.1208 208.556 72.1158C208.555 72.1108 208.553 72.1059 208.551 72.1009C208.549 72.096 208.547 72.091 208.546 72.0861C208.544 72.0812 208.542 72.0762 208.54 72.0713C208.538 72.0664 208.537 72.0615 208.535 72.0566C208.533 72.0516 208.531 72.0467 208.53 72.0418C208.528 72.0369 208.526 72.0321 208.524 72.0272C208.522 72.0223 208.521 72.0174 208.519 72.0125C208.517 72.0077 208.515 72.0028 208.514 71.9979C208.512 71.9931 208.51 71.9882 208.508 71.9834C208.507 71.9785 208.505 71.9737 208.503 71.9689C208.501 71.964 208.5 71.9592 208.498 71.9544C208.496 71.9496 208.494 71.9448 208.493 71.9399C208.491 71.9351 208.489 71.9303 208.487 71.9256C208.486 71.9208 208.484 71.916 208.482 71.9112C208.48 71.9064 208.479 71.9017 208.477 71.8969C208.475 71.8921 208.474 71.8874 208.472 71.8826C208.47 71.8779 208.468 71.8731 208.467 71.8684C208.465 71.8637 208.463 71.8589 208.461 71.8542C208.46 71.8495 208.458 71.8448 208.456 71.8401C208.455 71.8354 208.453 71.8307 208.451 71.826C208.45 71.8213 208.448 71.8166 208.446 71.8119C208.444 71.8073 208.443 71.8026 208.441 71.7979C208.439 71.7933 208.438 71.7886 208.436 71.784C208.434 71.7793 208.433 71.7747 208.431 71.7701C208.429 71.7654 208.428 71.7608 208.426 71.7562C208.424 71.7516 208.423 71.747 208.421 71.7424C208.419 71.7378 208.418 71.7332 208.416 71.7286C208.414 71.724 208.413 71.7195 208.411 71.7149C208.409 71.7103 208.408 71.7058 208.406 71.7012C208.404 71.6967 208.403 71.6921 208.401 71.6876C208.399 71.6831 208.398 71.6785 208.396 71.674C208.394 71.6695 208.393 71.665 208.391 71.6605C208.39 71.656 208.388 71.6515 208.386 71.647C208.385 71.6425 208.383 71.638 208.381 71.6336C208.38 71.6291 208.378 71.6246 208.377 71.6202C208.375 71.6157 208.373 71.6113 208.372 71.6068C208.37 71.6024 208.368 71.598 208.367 71.5936C208.365 71.5891 208.364 71.5847 208.362 71.5803C208.36 71.5759 208.359 71.5715 208.357 71.5671C208.356 71.5628 208.354 71.5584 208.353 71.554C208.351 71.5496 208.349 71.5453 208.348 71.5409C208.346 71.5366 208.345 71.5322 208.343 71.5279C208.341 71.5236 208.34 71.5193 208.338 71.5149C208.337 71.5106 208.335 71.5063 208.334 71.502C208.332 71.4977 208.331 71.4934 208.329 71.4892C208.327 71.4849 208.326 71.4806 208.324 71.4763C208.323 71.4721 208.321 71.4678 208.32 71.4636C208.318 71.4593 208.317 71.4551 208.315 71.4509C208.314 71.4467 208.312 71.4424 208.31 71.4382C208.309 71.434 208.307 71.4298 208.306 71.4257C208.304 71.4215 208.303 71.4173 208.301 71.4131C208.3 71.4089 208.298 71.4048 208.297 71.4006C208.295 71.3965 208.294 71.3923 208.292 71.3882C208.291 71.3841 208.289 71.38 208.288 71.3759C208.286 71.3717 208.285 71.3676 208.283 71.3635C208.282 71.3595 208.28 71.3554 208.279 71.3513C208.277 71.3472 208.276 71.3432 208.275 71.3391C208.273 71.3351 208.272 71.331 208.27 71.327C208.269 71.3229 208.267 71.3189 208.266 71.3149C208.264 71.3109 208.263 71.3069 208.261 71.3029C208.26 71.2989 208.258 71.2949 208.257 71.2909C208.256 71.287 208.254 71.283 208.253 71.279C208.251 71.2751 208.25 71.2711 208.248 71.2672C208.247 71.2633 208.246 71.2593 208.244 71.2554C208.243 71.2515 208.241 71.2476 208.24 71.2437C208.238 71.2398 208.237 71.2359 208.236 71.2321C208.234 71.2282 208.233 71.2243 208.231 71.2205C208.23 71.2166 208.229 71.2128 208.227 71.209C208.226 71.2051 208.225 71.2013 208.223 71.1975C208.222 71.1937 208.22 71.1899 208.219 71.1861C208.218 71.1823 208.216 71.1785 208.215 71.1748C208.214 71.171 208.212 71.1672 208.211 71.1635C208.209 71.1597 208.208 71.156 208.207 71.1523C208.205 71.1486 208.204 71.1448 208.203 71.1411C208.201 71.1374 208.2 71.1337 208.199 71.1301C208.197 71.1264 208.196 71.1227 208.195 71.119C208.193 71.1154 208.192 71.1117 208.191 71.1081C208.189 71.1045 208.188 71.1008 208.187 71.0972C208.185 71.0936 208.184 71.09 208.183 71.0864C208.182 71.0828 208.18 71.0792 208.179 71.0757C208.178 71.0721 208.176 71.0685 208.175 71.065C208.174 71.0614 208.172 71.0579 208.171 71.0544C208.17 71.0508 208.169 71.0473 208.167 71.0438C208.166 71.0403 208.165 71.0368 208.164 71.0334C208.162 71.0299 208.161 71.0264 208.16 71.023C208.159 71.0195 208.157 71.016 208.156 71.0126C208.155 71.0092 208.154 71.0058 208.152 71.0023C208.151 70.9989 208.15 70.9955 208.149 70.9921C208.147 70.9888 208.146 70.9854 208.145 70.982C208.144 70.9787 208.142 70.9753 208.141 70.972C208.14 70.9686 208.139 70.9653 208.138 70.962C208.136 70.9587 208.135 70.9554 208.134 70.9521C208.133 70.9488 208.132 70.9455 208.13 70.9422C208.129 70.939 208.128 70.9357 208.127 70.9325C208.126 70.9292 208.125 70.926 208.123 70.9228C208.122 70.9195 208.121 70.9163 208.12 70.9131C208.119 70.9099 208.118 70.9068 208.116 70.9036C208.115 70.9004 208.114 70.8973 208.113 70.8941C208.112 70.891 208.111 70.8878 208.11 70.8847C208.108 70.8816 208.107 70.8785 208.106 70.8754C208.105 70.8723 208.104 70.8692 208.103 70.8661C208.102 70.8631 208.101 70.86 208.1 70.857C208.098 70.8539 208.097 70.8509 208.096 70.8479C208.095 70.8448 208.094 70.8418 208.093 70.8388C208.092 70.8358 208.091 70.8329 208.09 70.8299C208.089 70.8269 208.088 70.824 208.086 70.821C208.085 70.8181 208.084 70.8151 208.083 70.8122C208.082 70.8093 208.081 70.8064 208.08 70.8035C208.079 70.8006 208.078 70.7977 208.077 70.7949C208.076 70.792 208.075 70.7892 208.074 70.7863C208.073 70.7835 208.072 70.7806 208.071 70.7778C208.07 70.775 208.069 70.7722 208.068 70.7694C208.067 70.7666 208.066 70.7639 208.065 70.7611C208.064 70.7583 208.063 70.7556 208.062 70.7529C208.061 70.7501 208.06 70.7474 208.059 70.7447C208.058 70.742 208.057 70.7393 208.056 70.7366C208.055 70.7339 208.054 70.7313 208.053 70.7286C208.052 70.726 208.051 70.7233 208.05 70.7207C208.049 70.7181 208.048 70.7155 208.047 70.7129C208.046 70.7103 208.045 70.7077 208.044 70.7051C208.043 70.7025 208.043 70.7 208.042 70.6974C208.041 70.6949 208.04 70.6924 208.039 70.6899C208.038 70.6873 208.037 70.6848 208.036 70.6823C208.035 70.6799 208.034 70.6774 208.033 70.6749C208.033 70.6725 208.032 70.67 208.031 70.6676C208.03 70.6652 208.029 70.6627 208.028 70.6603C208.027 70.6579 208.026 70.6555 208.026 70.6532C208.025 70.6508 208.024 70.6484 208.023 70.6461C208.022 70.6437 208.021 70.6414 208.02 70.6391C208.02 70.6368 208.019 70.6345 208.018 70.6322C208.017 70.6299 208.016 70.6276 208.015 70.6254C208.015 70.6231 208.014 70.6208 208.013 70.6186C208.012 70.6164 208.011 70.6142 208.011 70.612C208.01 70.6098 208.009 70.6076 208.008 70.6054C208.007 70.6032 208.007 70.6011 208.006 70.5989C208.005 70.5968 208.004 70.5946 208.004 70.5925C208.003 70.5904 208.002 70.5883 208.001 70.5862C208.001 70.5842 208 70.5821 207.999 70.58C207.998 70.578 207.998 70.5759 207.997 70.5739C207.996 70.5719 207.995 70.5699 207.995 70.5679C207.994 70.5659 207.993 70.5639 207.992 70.5619C207.992 70.56 207.991 70.558 207.99 70.5561C207.99 70.5542 207.989 70.5522 207.988 70.5503C207.988 70.5484 207.987 70.5465 207.986 70.5447C207.986 70.5428 207.985 70.5409 207.984 70.5391C207.983 70.5372 207.983 70.5354 207.982 70.5336C207.982 70.5318 207.981 70.53 207.98 70.5282C207.98 70.5264 207.979 70.5247 207.978 70.5229C207.978 70.5212 207.977 70.5194 207.976 70.5177C207.976 70.516 207.975 70.5143 207.975 70.5126C207.974 70.5109 207.973 70.5092 207.973 70.5076C207.972 70.5059 207.972 70.5043 207.971 70.5027C207.97 70.501 207.97 70.4994 207.969 70.4978C207.969 70.4962 207.968 70.4947 207.967 70.4931C207.967 70.4915 207.966 70.49 207.966 70.4885C207.965 70.4869 207.965 70.4854 207.964 70.4839C207.964 70.4824 207.963 70.4809 207.963 70.4795C207.962 70.478 207.961 70.4766 207.961 70.4751C207.96 70.4737 207.96 70.4723 207.959 70.4709C207.959 70.4695 207.958 70.4681 207.958 70.4667C207.957 70.4654 207.957 70.464 207.956 70.4627C207.956 70.4613 207.955 70.46 207.955 70.4587C207.955 70.4574 207.954 70.4561 207.954 70.4549C207.953 70.4536 207.953 70.4523 207.952 70.4511C207.952 70.4499 207.951 70.4486 207.951 70.4474C207.95 70.4462 207.95 70.445 207.95 70.4439C207.949 70.4427 207.949 70.4415 207.948 70.4404C207.948 70.4393 207.948 70.4382 207.947 70.4371C207.947 70.4359 207.946 70.4349 207.946 70.4338C207.946 70.4327 207.945 70.4317 207.945 70.4306C207.944 70.4296 207.944 70.4286 207.944 70.4276C207.943 70.4266 207.943 70.4256 207.943 70.4246C207.942 70.4237 207.942 70.4227 207.942 70.4218C207.941 70.4208 207.941 70.4199 207.941 70.419C207.94 70.4181 207.94 70.4172 207.94 70.4164C207.939 70.4155 207.939 70.4147 207.939 70.4138C207.938 70.413 207.938 70.4122 207.938 70.4114C207.938 70.4106 207.937 70.4098 207.937 70.4091C207.937 70.4083 207.936 70.4076 207.936 70.4068C207.936 70.4061 207.936 70.4054 207.935 70.4047C207.935 70.404 207.935 70.4033 207.935 70.4027C207.934 70.402 207.934 70.4014 207.934 70.4008C207.934 70.4002 207.934 70.3995 207.933 70.399C207.933 70.3984 207.933 70.3978 207.933 70.3973C207.932 70.3967 207.932 70.3962 207.932 70.3957C207.932 70.3952 207.932 70.3947 207.932 70.3942C207.931 70.3937 207.931 70.3932 207.931 70.3928C207.931 70.3924 207.931 70.3919 207.931 70.3915C207.93 70.3911 207.93 70.3907 207.93 70.3904C207.93 70.39 207.93 70.3897 207.93 70.3893C207.93 70.389 207.93 70.3887 207.929 70.3884C207.929 70.3881 207.929 70.3878 207.929 70.3875C207.929 70.3873 207.929 70.387 207.929 70.3868C207.929 70.3866 207.929 70.3864 207.929 70.3862C207.929 70.386 207.929 70.3859 207.928 70.3857C207.928 70.3855 207.928 70.3854 207.928 70.3853C207.928 70.3852 207.928 70.3851 207.928 70.385C207.928 70.385 207.928 70.3849 207.928 70.3849C207.928 70.3848 207.928 70.3848 206.048 71.0666ZM206.437 78.0015C206.59 78.4212 206.909 78.929 207.153 79.3055C207.446 79.7588 207.826 80.3114 208.254 80.916C209.111 82.1283 210.201 83.6077 211.267 85.0338C212.335 86.4622 213.386 87.8477 214.171 88.8753C214.563 89.3893 214.889 89.8143 215.116 90.111C215.23 90.2593 215.32 90.3756 215.381 90.4549C215.411 90.4946 215.435 90.525 215.45 90.5456C215.458 90.5559 215.464 90.5637 215.469 90.569C215.471 90.5716 215.472 90.5736 215.473 90.575C215.474 90.5757 215.474 90.5762 215.474 90.5766C215.475 90.5767 215.475 90.5769 215.475 90.577C215.475 90.5771 215.475 90.5772 217.059 89.3561C218.642 88.135 218.642 88.135 218.642 88.1349C218.642 88.1349 218.642 88.1348 218.642 88.1346C218.642 88.1343 218.641 88.1339 218.641 88.1332C218.64 88.132 218.639 88.1301 218.637 88.1276C218.633 88.1226 218.627 88.1151 218.619 88.1051C218.604 88.085 218.581 88.0552 218.551 88.0161C218.491 87.938 218.402 87.823 218.289 87.676C218.064 87.382 217.74 86.9601 217.351 86.4497C216.571 85.4284 215.528 84.0542 214.471 82.6399C213.412 81.2231 212.347 79.7767 211.52 78.6074C211.106 78.0212 210.761 77.5192 210.511 77.1323C210.21 76.6686 210.166 76.5509 210.198 76.6379L206.437 78.0015ZM215.356 90.4056L223.781 104.062L227.185 101.963L218.761 88.3066L215.356 90.4056ZM223.846 104.162C226.929 108.549 231.333 115.321 236.188 123.741L239.654 121.744C234.744 113.228 230.276 106.355 227.12 101.864L223.846 104.162ZM236.179 123.724C238.693 128.182 240.08 130.981 241.438 133.628C242.807 136.295 244.132 138.778 246.488 142.519L249.873 140.39C247.599 136.777 246.332 134.403 244.998 131.802C243.652 129.181 242.225 126.302 239.663 121.76L236.179 123.724ZM246.48 142.508C251.274 150.237 255.511 155.58 260.795 162.245L263.929 159.761C258.645 153.094 254.539 147.913 249.88 140.401L246.48 142.508ZM260.798 162.249C265.965 168.731 268.554 171.431 270.674 173.628C272.722 175.751 274.281 177.35 277.487 181.712L280.71 179.344C277.363 174.791 275.675 173.051 273.553 170.852C271.503 168.727 269.001 166.122 263.926 159.757L260.798 162.249ZM277.498 181.728C278.721 183.359 279.755 184.827 280.716 186.186C281.67 187.534 282.564 188.791 283.474 189.943C285.322 192.284 287.27 194.24 290.134 195.942L292.177 192.504C289.85 191.12 288.254 189.543 286.614 187.466C285.779 186.409 284.943 185.235 283.982 183.876C283.027 182.527 281.961 181.013 280.699 179.329L277.498 181.728ZM290.173 195.965C290.699 196.261 291.571 196.796 292.25 197.326C292.6 197.6 292.808 197.803 292.897 197.914C292.942 197.97 292.893 197.925 292.841 197.787C292.786 197.642 292.683 197.265 292.842 196.798L296.63 198.085C296.862 197.403 296.737 196.785 296.584 196.379C296.434 195.979 296.211 195.654 296.022 195.419C295.645 194.946 295.152 194.518 294.713 194.175C293.813 193.472 292.749 192.826 292.138 192.481L290.173 195.965ZM292.823 196.857C292.966 196.39 293.264 196.12 293.444 195.998C293.607 195.888 293.722 195.863 293.699 195.869C293.649 195.883 293.463 195.914 293.074 195.927C292.282 195.953 291.366 195.896 290.256 195.875L290.182 199.874C291.046 199.89 292.285 199.955 293.207 199.925C293.674 199.909 294.234 199.868 294.742 199.731C295.092 199.636 296.266 199.28 296.649 198.025L292.823 196.857ZM290.283 195.876C289.346 195.846 288.728 195.888 287.093 196.148C285.509 196.399 282.821 196.878 277.735 197.749L278.41 201.691C283.545 200.812 286.168 200.344 287.721 200.098C289.222 199.86 289.566 199.855 290.155 199.874L290.283 195.876ZM277.733 197.749C274.965 198.226 272.198 198.702 269.431 199.179C266.663 199.655 263.896 200.132 261.129 200.608L261.809 204.55C264.576 204.073 267.343 203.597 270.111 203.12C272.878 202.644 275.645 202.167 278.412 201.691L277.733 197.749ZM261.112 200.611C248.608 202.877 242.62 203.864 240.108 204.059L240.418 208.047C243.187 207.832 249.431 206.793 261.826 204.547L261.112 200.611ZM240.095 204.06C234.805 204.507 232.174 204.37 229.375 204.251C226.48 204.128 223.448 204.026 217.498 204.572L217.864 208.555C223.588 208.029 226.433 208.129 229.205 208.247C232.072 208.369 234.896 208.513 240.432 208.045L240.095 204.06ZM217.492 204.572C213.484 204.952 211.407 205.318 209.144 205.686C206.925 206.047 204.475 206.42 199.635 206.837L199.978 210.822C204.935 210.395 207.486 210.009 209.788 209.634C212.045 209.267 214.007 208.92 217.87 208.554L217.492 204.572ZM199.648 206.836C195.43 207.17 191.472 207.409 183.469 207.755L183.643 211.751C191.672 211.403 195.682 211.162 199.965 210.823L199.648 206.836ZM183.456 207.756C178.656 207.995 175.915 208.09 173.84 208.151C171.769 208.212 170.317 208.239 168.143 208.342L168.334 212.337C170.459 212.236 171.852 212.21 173.958 212.149C176.061 212.087 178.829 211.991 183.656 211.751L183.456 207.756ZM168.124 208.343C157.742 208.933 154.794 209.652 141.837 210.926L142.23 214.907C155.478 213.604 158.052 212.922 168.353 212.336L168.124 208.343ZM141.837 210.926C128.102 212.28 121.407 212.936 115.013 212.756L114.901 216.754C121.608 216.943 128.597 216.25 142.23 214.907L141.837 210.926ZM114.991 212.756C108.031 212.635 101.305 211.549 87.3368 209.357L86.7174 213.309C100.569 215.482 107.62 216.628 114.923 216.755L114.991 212.756ZM87.3475 209.359C81.876 208.47 77.8063 207.826 74.6411 207.193C71.4693 206.558 69.3576 205.962 67.7656 205.219L66.0741 208.843C68.1128 209.795 70.6069 210.465 73.8572 211.115C77.114 211.766 81.2826 212.426 86.7067 213.307L87.3475 209.359ZM67.7656 205.219C60.9957 202.06 55.3898 197.014 49.3626 191.744L46.7294 194.755C52.6296 199.914 58.6846 205.394 66.0741 208.843L67.7656 205.219ZM49.3831 191.762C47.5502 190.115 44.7997 187.763 42.1569 184.919L39.2267 187.642C42.0263 190.654 44.9613 193.165 46.709 194.736L49.3831 191.762ZM42.1373 184.899C39.5358 182.179 30.6024 172.084 26.5775 158.985L22.7535 160.159C27.0536 174.153 36.5021 184.793 39.2463 187.662L42.1373 184.899ZM26.5746 158.976C20.2687 138.803 28.4874 120.239 32.187 111.629L28.5114 110.049C24.8547 118.56 15.9585 138.421 22.7564 160.168L26.5746 158.976ZM30.3492 110.839C32.2289 111.523 32.2288 111.524 32.2287 111.524C32.2287 111.524 32.2287 111.524 32.2287 111.524C32.2288 111.524 32.229 111.523 32.2293 111.522C32.2299 111.521 32.2309 111.518 32.2324 111.514C32.2355 111.505 32.2404 111.492 32.2471 111.474C32.2606 111.438 32.2814 111.382 32.3094 111.308C32.3655 111.159 32.4505 110.938 32.5635 110.651C32.7894 110.078 33.1269 109.247 33.5683 108.227C34.4521 106.185 35.7472 103.399 37.3919 100.421C40.7381 94.3633 45.3198 87.9102 50.5589 84.9846L48.6076 81.4926C42.3126 85.0078 37.2772 92.355 33.89 98.4871C32.1679 101.605 30.8172 104.511 29.8968 106.638C29.4361 107.702 29.0819 108.574 28.8417 109.184C28.7216 109.488 28.6299 109.727 28.5676 109.892C28.5364 109.975 28.5126 110.038 28.4962 110.083C28.488 110.105 28.4817 110.122 28.4773 110.134C28.475 110.14 28.4733 110.145 28.472 110.148C28.4714 110.15 28.4708 110.152 28.4704 110.153C28.4702 110.153 28.47 110.154 28.4699 110.154C28.4697 110.155 28.4696 110.155 30.3492 110.839ZM50.2656 85.1186C50.5483 85.0161 50.916 84.8399 51.2393 84.6841C51.6076 84.5066 52.0327 84.2983 52.5447 84.0574C53.5584 83.5804 54.8615 83.0004 56.3832 82.4487L55.0185 78.6886C53.3424 79.2964 51.9197 79.9307 50.8407 80.4384C50.3063 80.6898 49.8432 80.9165 49.5017 81.0811C49.3261 81.1657 49.1867 81.232 49.0752 81.2829C49.0202 81.308 48.9777 81.3267 48.9453 81.3404C48.9117 81.3547 48.8986 81.3595 48.9009 81.3586L50.2656 85.1186ZM56.3832 82.4487C59.6621 81.2597 60.9717 80.8187 62.7918 80.9796L63.1433 76.9955C60.2901 76.7432 58.1354 77.5584 55.0185 78.6886L56.3832 82.4487ZM62.7918 80.9796C63.6627 81.0566 64.1343 81.2416 64.6729 81.493C65.2681 81.7708 66.1312 82.2381 67.4343 82.5805L68.4502 78.7122C67.5866 78.4853 67.1306 78.2265 66.3644 77.8689C65.5415 77.4848 64.6091 77.1251 63.1433 76.9955L62.7918 80.9796ZM67.4683 82.5891C69.0269 82.9696 70.3123 82.979 72.0747 82.6253C73.699 82.2994 75.8599 81.6348 79.1297 80.6704L77.997 76.8342C74.593 77.8381 72.6841 78.4234 71.2867 78.7039C70.0274 78.9566 69.3392 78.9289 68.4162 78.7036L67.4683 82.5891ZM79.095 80.6803C87.8172 78.2778 89.4559 77.8242 90.1918 77.6881L89.463 73.7552C88.5033 73.9328 86.5811 74.4694 78.0317 76.8243L79.095 80.6803ZM90.2556 77.6752C92.2744 77.2333 95.2781 76.7243 98.3974 76.5987L98.2356 72.6023C94.8162 72.74 91.5709 73.2927 89.3992 73.7681L90.2556 77.6752ZM98.3878 76.5991C103.053 76.4339 105.141 77.4685 114.427 79.9843L115.472 76.124C106.698 73.7465 103.703 72.4087 98.2453 72.602L98.3878 76.5991ZM114.421 79.9827C122.442 82.1825 128.655 83.7429 130.365 84.0752L131.127 80.149C129.594 79.851 123.532 78.3345 115.478 76.1256L114.421 79.9827ZM130.272 84.0548C133.789 84.9131 137.746 85.7562 145.722 87.3796L146.519 83.4604C138.539 81.8361 134.652 81.007 131.22 80.1693L130.272 84.0548ZM145.712 87.3776C149.133 88.0915 151.715 88.6304 153.576 88.9981C155.373 89.3531 156.654 89.5823 157.363 89.6224L157.588 85.6291C157.219 85.6083 156.249 85.4495 154.351 85.0744C152.516 84.7119 149.959 84.1784 146.529 83.4624L145.712 87.3776ZM157.175 89.6028C161.691 90.2891 164.421 90.3571 167.241 90.3568C170.006 90.3564 172.802 90.2923 177.603 90.6915L177.933 86.7056C172.939 86.2904 169.977 86.3568 167.239 86.3572C164.556 86.3575 162.037 86.2963 157.776 85.6486L157.175 89.6028ZM177.608 90.692C183.778 91.1868 187.159 91.9355 189.581 92.3842C192.095 92.8499 193.883 93.0564 196.395 92.0498L194.906 88.3373C193.468 88.9133 192.605 88.8768 190.309 88.4516C187.923 88.0094 184.337 87.2193 177.927 86.7051L177.608 90.692ZM196.46 92.0223C201.097 89.9705 205.749 84.7279 207.889 71.4331L203.94 70.7967C201.911 83.4037 197.739 87.0821 194.84 88.3648L196.46 92.0223Z" fill="white" mask="url(#path-4-inside-2_1_1326)"/>
<path d="M43.9196 189.784C43.9196 189.784 39.1534 185.791 34.5841 179.018C30.063 172.377 28.4231 166.197 27.2177 161.214C26.4219 158.19 25.23 151.998 25.1542 143.896C25.1211 140.897 25.36 132.831 28.422 122.989C30.9742 114.235 34.5405 108.275 37.3305 103.499C40.3754 98.1797 43.795 93.477 47.9407 89.1133C52.6078 84.1089 55.7823 82.0545 59.1616 80.9797C61.6931 80.0617 64.1147 80.0869 65.7252 79.9545C64.1764 79.0107 61.4535 77.7397 58.1842 77.8714C54.0189 78.0268 51.2075 80.2507 47.3417 83.3085C44.397 85.5807 41.294 88.6631 37.7412 93.414C36.8317 94.6471 33.109 99.7608 29.4193 107.874C27.3437 112.54 24.1638 119.565 22.4091 129.686C21.8243 133.06 20.811 140.653 21.6961 150.57C22.6295 160.619 25.1887 167.671 25.7681 169.267C27.8444 174.988 30.0655 181.108 36.0174 185.875C39.4529 188.694 43.3982 190.425 43.8346 189.965L43.9196 189.784Z" fill="white"/>
<path d="M182.856 129.305L183.032 128.93L182.993 128.821C183.116 128.616 183.296 128.371 183.581 128.088C184.067 127.605 184.89 126.982 186.322 126.283C189.2 124.88 194.433 123.223 204.038 121.764L204.043 121.764C214.307 120.148 216.249 120.908 217.22 121.361C219.783 122.557 221.557 124.615 222.899 126.972C224.099 129.08 224.918 131.357 225.653 133.404C225.746 133.661 225.837 133.914 225.927 134.163L225.931 134.173C230.671 146.814 237.604 154.728 242.812 160.473C243.012 160.695 243.21 160.912 243.404 161.127C245.756 163.717 247.631 165.783 248.773 167.667C249.974 169.65 250.246 171.237 249.488 172.902L249.484 172.91C249.074 173.835 248.549 174.386 247.762 174.829C246.915 175.306 245.762 175.661 244.044 176.122C243.732 176.206 243.405 176.292 243.063 176.383C239.674 177.279 234.753 178.58 227.597 181.727L227.596 181.728C221.314 184.5 217.856 186.679 214.943 188.513C214.72 188.654 214.5 188.793 214.282 188.929C211.269 190.82 208.68 192.343 203.636 193.877L203.635 193.878C195.704 196.299 187.667 198.744 179.397 194.989L179.397 194.989L179.386 194.985C171.392 191.468 164.464 182.965 164.496 174.42L164.496 174.411L164.496 174.402C164.483 173.509 164.554 172.882 164.812 172.108C165.084 171.293 165.57 170.292 166.45 168.663C166.899 167.834 167.443 166.853 168.099 165.671C169.998 162.25 172.837 157.133 177.028 149.066C179.006 145.317 181.328 140.615 182.268 134.242C182.524 132.572 182.543 131.598 182.557 130.916C182.559 130.855 182.56 130.796 182.561 130.739C182.575 130.126 182.599 129.855 182.856 129.305Z" stroke="white" stroke-width="2"/>
<path d="M172.079 88.8081C175.264 88.8578 178.763 88.9439 183.133 89.7681L189.888 90.9319C190.128 90.9784 190.357 91.0251 190.579 91.0704C191.862 91.3317 192.895 91.542 194.114 91.357L172.079 88.8081ZM172.079 88.8081C169.591 88.7281 168.538 88.7953 167.532 88.8595M172.079 88.8081L167.532 88.8595M167.532 88.8595C166.688 88.9133 165.878 88.965 164.281 88.9257L167.532 88.8595ZM123.077 81.8363C123.077 81.8363 123.077 81.8363 123.077 81.8363C131.071 84.2345 137.595 85.5027 141.805 86.2462C144.591 86.8244 145.925 87.0273 147.41 87.2472L147.557 87.269C148.986 87.4805 150.605 87.72 153.872 88.3427C153.874 88.343 153.875 88.3433 153.876 88.3436L154.242 88.4166C158.536 89.2744 160.696 89.706 164.22 89.9237L164.238 89.9248L164.257 89.9253C165.898 89.9657 166.742 89.9118 167.596 89.8574C167.677 89.8522 167.757 89.8471 167.839 89.842C168.749 89.7853 169.792 89.735 172.047 89.8075L172.056 89.8077L172.064 89.8079C175.237 89.8574 178.666 89.9431 182.948 90.7507L182.956 90.7522L182.963 90.7535L189.698 91.9135C189.701 91.9141 189.705 91.9148 189.708 91.9154C189.925 91.9577 190.14 92.0017 190.353 92.0455C191.632 92.308 192.856 92.5594 194.264 92.3455L194.28 92.3431L194.296 92.3402C195.515 92.1147 196.426 91.72 197.087 91.3808C197.006 91.6659 196.9 91.9962 196.767 92.3702C196.239 93.862 195.363 95.8666 194.315 98.0742C192.223 102.481 189.499 107.591 187.666 110.8L187.661 110.809C182.246 120.502 179.733 127.751 177.538 134.081C177.212 135.021 176.893 135.94 176.573 136.845C174.11 143.8 171.553 149.889 165.008 157.593C159.553 163.88 155.801 166.182 151.772 167.083C148.886 167.723 146.512 167.602 132.518 162.847L132.517 162.846C121.782 159.216 116.307 156.985 113.544 155.614C112.604 155.148 112.01 154.796 111.639 154.541C111.896 154.483 112.201 154.434 112.546 154.384C112.63 154.371 112.717 154.359 112.807 154.346C113.226 154.287 113.689 154.222 114.055 154.134C114.274 154.081 114.549 154.001 114.79 153.861C115.016 153.729 115.444 153.403 115.469 152.802C115.49 152.358 115.266 152.038 115.105 151.867C114.94 151.692 114.743 151.564 114.575 151.47C114.233 151.28 113.79 151.115 113.321 150.968C112.368 150.67 111.091 150.383 109.765 150.126C107.1 149.608 104.095 149.18 102.745 148.992L102.737 148.991C95.9005 148.09 91.658 147.809 88.4811 147.599C87.9621 147.564 87.4716 147.532 87.0029 147.499C83.7002 147.266 81.5032 147.011 77.944 145.886L77.944 145.886L77.9366 145.884C73.7862 144.609 71.1856 143.752 69.6266 143.217C68.8473 142.949 68.3293 142.761 68.0089 142.642C67.8487 142.582 67.7382 142.54 67.6693 142.513C67.6596 142.509 67.6508 142.506 67.6427 142.502C67.6222 142.494 67.6068 142.488 67.5964 142.484L67.5903 142.481C64.598 141.141 63.0412 140.693 62.0157 140.529C61.6179 140.466 61.2927 140.446 61.0593 140.431C60.997 140.427 60.9413 140.424 60.8924 140.42C60.6749 140.403 60.5198 140.38 60.2908 140.291C53.2612 137.436 45.7186 130.573 43.9483 121.729L43.945 121.713L43.9412 121.697C43.3807 119.312 43.189 118.404 43.4583 117.026L43.4621 117.006L43.4651 116.987C43.8662 114.399 45.498 112.022 48.0364 109.744C50.5717 107.469 53.915 105.377 57.5601 103.343C59.378 102.329 61.2568 101.336 63.1354 100.345L63.3114 100.253C65.1276 99.2949 66.9423 98.3379 68.6808 97.3727C72.2572 95.387 75.5848 93.3276 78.0209 91.0741L78.0251 91.0701C79.1962 89.9741 80.5569 88.6917 81.579 87.2971C82.591 85.9162 83.3764 84.2856 83.2041 82.4891C83.1962 82.2686 83.1695 82.0176 83.1456 81.7923C83.1407 81.7463 83.1359 81.7014 83.1315 81.658C83.1012 81.3648 83.0763 81.0787 83.0759 80.7935C83.0753 80.2194 83.1758 79.7473 83.4506 79.3747L83.4763 79.3398L83.4989 79.3028C83.7715 78.857 84.2504 78.6608 84.6591 78.5126L84.6733 78.5074L84.6874 78.5018C88.3653 77.0408 92.9769 76.4771 95.1457 76.2709L95.2464 76.5483L96.0233 76.4678C97.7057 76.2935 98.8685 76.3051 100.071 76.3176C101.969 76.3536 103.348 76.5746 104.116 76.7236C107.004 77.3093 111.73 78.5823 115.763 79.7184C117.775 80.285 119.604 80.8147 120.93 81.2027C121.593 81.3967 122.13 81.5552 122.501 81.6652C122.687 81.7202 122.831 81.763 122.929 81.7921L123.04 81.8252L123.068 81.8336L123.075 81.8357L123.077 81.8362C123.077 81.8362 123.077 81.8362 123.077 81.8363ZM188.534 111.296C192.222 104.84 199.478 90.7667 198.111 89.9075L151.989 168.059C156.313 167.093 160.239 164.616 165.767 158.245C173.286 149.396 175.638 142.613 178.484 134.405C180.678 128.08 183.164 120.91 188.534 111.296ZM198.132 90.8345C198.131 90.8358 198.118 90.8411 198.094 90.8468C198.121 90.8361 198.133 90.8333 198.132 90.8345Z" stroke="white" stroke-width="2"/>
<path d="M27.2142 161.215C27.2142 161.215 27.0211 160.682 26.9245 160.416L23.3523 160.959C24.3161 165.276 25.3784 168.203 25.7163 169.135C27.7925 174.855 30.0136 180.975 35.9651 185.742C39.4005 188.561 43.3456 190.292 43.7819 189.832C44.3033 189.192 39.0161 185.84 34.4469 179.066C29.9261 172.425 28.2862 166.245 27.081 161.263L27.2142 161.215Z" fill="white"/>
<path d="M235.68 52.5504C233.716 55.7956 231.367 60.6205 230.949 66.7225L230.949 66.7225L230.949 66.7291C230.419 75.2759 234.13 81.8411 245.068 99.5832C248.956 105.932 252.174 111.056 254.42 114.593C255.543 116.362 256.423 117.734 257.023 118.664C257.323 119.13 257.552 119.484 257.707 119.723L257.883 119.993L257.927 120.062L257.938 120.078L257.939 120.079L257.94 120.081C259.016 121.759 260.062 123.394 261.083 124.99C272.227 142.412 280.352 155.114 291.316 166.149L291.321 166.153C292.293 167.119 293.018 167.729 293.773 168.236C294.43 168.676 295.096 169.029 295.909 169.458C296.011 169.512 296.115 169.567 296.221 169.623C298.145 170.643 301.214 172.319 307.642 176.803L307.643 176.804C307.721 176.858 307.801 176.914 307.884 176.972C309.061 177.793 310.712 178.943 312.449 179.727C314.124 180.482 316.125 181.011 317.951 180.322C315.697 184.019 313.959 186.823 312.49 188.94C310.845 191.309 309.6 192.722 308.429 193.547L308.422 193.553C303.384 197.172 297.21 197.473 293.205 197.072C278.992 179.801 266.422 164.269 255.639 150.946C243.009 135.34 232.832 122.766 225.343 113.978L225.342 113.978L225.341 113.976L225.335 113.969L225.306 113.934C225.28 113.903 225.24 113.856 225.188 113.792C225.083 113.665 224.927 113.473 224.727 113.22C224.326 112.713 223.746 111.96 223.038 110.983C221.621 109.029 219.692 106.181 217.653 102.618C213.569 95.4829 209.062 85.5143 207.307 74.1257L207.306 74.1182L207.305 74.1107C207.065 72.6941 207.157 71.4568 207.441 70.4349C207.975 68.6936 208.957 67.6065 210.615 66.4028C211.382 65.8459 212.269 65.2815 213.315 64.616C213.426 64.5448 213.54 64.4724 213.656 64.3988C214.841 63.6438 216.195 62.7717 217.713 61.687C220.73 59.5604 222.792 57.7237 224.413 56.2798C224.945 55.8058 225.429 55.3742 225.884 54.9885C227.707 53.4442 229.088 52.5974 231.425 52.3553L231.425 52.3554L231.439 52.3538C233.053 52.1639 234.513 52.3112 235.68 52.5504Z" stroke="white" stroke-width="2"/>
<path d="M232.772 54.1409L232.594 54.2215C230.871 55.0001 228.055 56.3231 226.601 58.588L226.6 58.5895C224.823 61.3479 225.307 65.1019 225.975 68.2002L225.978 68.2123L225.98 68.2244C228.594 81.9882 236.313 95.4472 237.363 97.1246L237.372 97.1378L237.38 97.1513C243.543 107.713 249.082 116.947 253.912 124.617L259.473 121.568C257.943 118.99 255.825 115.38 253.513 111.239C250.224 105.501 246.028 98.1084 241.458 88.4347L241.438 88.3926L241.422 88.3487L241.421 88.3472L241.421 88.3456L241.42 88.344L241.42 88.3425L241.419 88.3409L241.419 88.3394L241.418 88.3378L241.417 88.3363L241.417 88.3347L241.416 88.3331L241.416 88.3316L241.415 88.33L241.415 88.3285L241.414 88.3269L241.413 88.3253L241.413 88.3238L241.412 88.3222L241.412 88.3207L241.411 88.3191L241.411 88.3175L241.41 88.316L241.409 88.3144L241.409 88.3129L241.408 88.3113L241.408 88.3097L241.407 88.3082L241.407 88.3066L241.406 88.305L241.406 88.3035L241.405 88.3019L241.404 88.3004L241.404 88.2988L241.403 88.2972L241.403 88.2957L241.402 88.2941L241.402 88.2926L241.401 88.291L241.4 88.2894L241.4 88.2879L241.399 88.2863L241.399 88.2847L241.398 88.2832L241.398 88.2816L241.397 88.28L241.396 88.2785L241.396 88.2769L241.395 88.2753L241.395 88.2738L241.394 88.2722L241.394 88.2706L241.393 88.2691L241.392 88.2675L241.392 88.2659L241.391 88.2644L241.391 88.2628L241.39 88.2612L241.39 88.2597L241.389 88.2581L241.388 88.2565L241.388 88.255L241.387 88.2534L241.387 88.2518L241.386 88.2503L241.386 88.2487L241.385 88.2471L241.384 88.2455L241.384 88.244L241.383 88.2424L241.383 88.2408L241.382 88.2393L241.382 88.2377L241.381 88.2361L241.38 88.2345L241.38 88.233L241.379 88.2314L241.379 88.2298L241.378 88.2282L241.378 88.2267L241.377 88.2251L241.376 88.2235L241.376 88.2219L241.375 88.2203L241.375 88.2188L241.374 88.2172L241.374 88.2156L241.373 88.214L241.372 88.2124L241.372 88.2109L241.371 88.2093L241.371 88.2077L241.37 88.2061L241.37 88.2045L241.369 88.2029L241.368 88.2014L241.368 88.1998L241.367 88.1982L241.367 88.1966L241.366 88.195L241.366 88.1934L241.365 88.1918L241.364 88.1902L241.364 88.1887L241.363 88.1871L241.363 88.1855L241.362 88.1839L241.362 88.1823L241.361 88.1807L241.36 88.1791L241.36 88.1775L241.359 88.1759L241.359 88.1743L241.358 88.1727L241.357 88.1711L241.357 88.1695L241.356 88.1679L241.356 88.1663L241.355 88.1647L241.355 88.1631L241.354 88.1615L241.353 88.1599L241.353 88.1583L241.352 88.1567L241.352 88.1551L241.351 88.1535L241.35 88.1519L241.35 88.1503L241.349 88.1487L241.349 88.1471L241.348 88.1455L241.348 88.1439L241.347 88.1423L241.346 88.1407L241.346 88.139L241.345 88.1374L241.345 88.1358L241.344 88.1342L241.343 88.1326L241.343 88.131L241.342 88.1294L241.342 88.1277L241.341 88.1261L241.341 88.1245L241.34 88.1229L241.339 88.1213L241.339 88.1196L241.338 88.118L241.338 88.1164L241.337 88.1148L241.336 88.1132L241.336 88.1115L241.335 88.1099L241.335 88.1083L241.334 88.1066L241.333 88.105L241.333 88.1034L241.332 88.1018L241.332 88.1001L241.331 88.0985L241.331 88.0969L241.33 88.0952L241.329 88.0936L241.329 88.0919L241.328 88.0903L241.328 88.0887L241.327 88.087L241.326 88.0854L241.326 88.0838L241.325 88.0821L241.325 88.0805L241.324 88.0788L241.323 88.0772L241.323 88.0755L241.322 88.0739L241.322 88.0722L241.321 88.0706L241.32 88.0689L241.32 88.0673L241.319 88.0656L241.319 88.064L241.318 88.0623L241.317 88.0607L241.317 88.059L241.316 88.0573L241.316 88.0557L241.315 88.054L241.314 88.0524L241.314 88.0507L241.313 88.049L241.313 88.0474L241.312 88.0457L241.311 88.044L241.311 88.0424L241.31 88.0407L241.31 88.039L241.309 88.0374L241.308 88.0357L241.308 88.034L241.307 88.0323L241.306 88.0307L241.306 88.029L241.305 88.0273L241.305 88.0256L241.304 88.0239L241.303 88.0223L241.303 88.0206L241.302 88.0189L241.302 88.0172L241.301 88.0155L241.3 88.0138L241.3 88.0121L241.299 88.0105L241.299 88.0088L241.298 88.0071L241.297 88.0054L241.297 88.0037L241.296 88.002L241.295 88.0003L241.295 87.9986L241.294 87.9969L241.294 87.9952L241.293 87.9935L241.292 87.9918L241.292 87.9901L241.291 87.9884L241.291 87.9867L241.29 87.9849L241.289 87.9832L241.289 87.9815L241.288 87.9798L241.287 87.9781L241.287 87.9764L241.286 87.9747L241.286 87.9729L241.285 87.9712L241.284 87.9695L241.284 87.9678L241.283 87.966L241.282 87.9643L241.282 87.9626L241.281 87.9609L241.281 87.9591L241.28 87.9574L241.279 87.9557L241.279 87.9539L241.278 87.9522L241.277 87.9504L241.277 87.9487L241.276 87.947L241.275 87.9452L241.275 87.9435L241.274 87.9417L241.274 87.94L241.273 87.9382L241.272 87.9365L241.272 87.9347L241.271 87.933L241.27 87.9312L241.27 87.9295L241.269 87.9277L241.268 87.926L241.268 87.9242L241.267 87.9224L241.267 87.9207L241.266 87.9189L241.265 87.9171L241.265 87.9154L241.264 87.9136L241.263 87.9118L241.263 87.9101L241.262 87.9083L241.261 87.9065L241.261 87.9047L241.26 87.9029L241.259 87.9012L241.259 87.8994L241.258 87.8976L241.258 87.8958L241.257 87.894L241.256 87.8922L241.256 87.8904L241.255 87.8886L241.254 87.8869L241.254 87.8851L241.253 87.8833L241.252 87.8815L241.252 87.8797L241.251 87.8779L241.25 87.876L241.25 87.8742L241.249 87.8724L241.248 87.8706L241.248 87.8688L241.247 87.867L241.246 87.8652L241.246 87.8634L241.245 87.8615L241.244 87.8597L241.244 87.8579L241.243 87.8561L241.242 87.8543L241.242 87.8524L241.241 87.8506L241.24 87.8488L241.24 87.8469L241.239 87.8451L241.238 87.8433L241.238 87.8414L241.237 87.8396L241.236 87.8377L241.236 87.8359L241.235 87.8341L241.234 87.8322L241.234 87.8304L241.233 87.8285L241.232 87.8266L241.232 87.8248L241.231 87.8229L241.23 87.8211L241.23 87.8192L241.229 87.8174L241.228 87.8155L241.228 87.8136L241.227 87.8118L241.226 87.8099L241.226 87.808L241.225 87.8061L241.224 87.8043L241.224 87.8024L241.223 87.8005L241.222 87.7986L241.222 87.7967L241.221 87.7949L241.22 87.793L241.22 87.7911L241.219 87.7892L241.218 87.7873L241.217 87.7854L241.217 87.7835L241.216 87.7816L241.215 87.7797L241.215 87.7778L241.214 87.7759L241.213 87.774L241.213 87.7721L241.212 87.7702L241.211 87.7682L241.211 87.7663L241.21 87.7644L241.209 87.7625L241.208 87.7606L241.208 87.7586L241.207 87.7567L241.206 87.7548L241.206 87.7529L241.205 87.7509L241.204 87.749L241.204 87.7471L241.203 87.7451L241.202 87.7432L241.201 87.7412L241.201 87.7393L241.2 87.7373L241.199 87.7354L241.199 87.7334L241.198 87.7315L241.197 87.7295L241.196 87.7276L241.196 87.7256L241.195 87.7236L241.194 87.7217L241.194 87.7197L241.193 87.7177L241.192 87.7158L241.191 87.7138L241.191 87.7118L241.19 87.7098L241.189 87.7079L241.189 87.7059L241.188 87.7039L241.187 87.7019L241.186 87.6999L241.186 87.6979L241.185 87.6959L241.184 87.6939L241.184 87.6919L241.183 87.6899L241.182 87.6879L241.181 87.6859L241.181 87.6839L241.18 87.6819L241.179 87.6799L241.178 87.6779L241.178 87.6759L241.177 87.6738L241.176 87.6718L241.176 87.6698L241.175 87.6678L241.174 87.6657L241.173 87.6637L241.173 87.6617L241.172 87.6596L241.171 87.6576L241.17 87.6556L241.17 87.6535L241.169 87.6515L241.168 87.6494L241.167 87.6474L241.167 87.6453L241.166 87.6433L241.165 87.6412L241.164 87.6391L241.164 87.6371L241.163 87.635L241.162 87.633L241.161 87.6309L241.161 87.6288L241.16 87.6267L241.159 87.6247L241.158 87.6226L241.158 87.6205L241.157 87.6184L241.156 87.6163L241.155 87.6142L241.155 87.6121L241.154 87.61L241.153 87.608L241.152 87.6059L241.152 87.6037L241.151 87.6016L241.15 87.5995L241.149 87.5974L241.148 87.5953L241.148 87.5932L241.147 87.5911L241.146 87.589L241.145 87.5868L241.145 87.5847L241.144 87.5826L241.143 87.5805L241.142 87.5783L241.142 87.5762L241.141 87.574L241.14 87.5719L241.139 87.5698L241.138 87.5676L241.138 87.5655L241.137 87.5633L241.136 87.5612L241.135 87.559L241.135 87.5568L241.134 87.5547L241.133 87.5525L241.132 87.5503L241.131 87.5482L241.131 87.546L241.13 87.5438L241.129 87.5416L241.128 87.5395L241.127 87.5373L241.127 87.5351L241.126 87.5329L241.125 87.5307L241.124 87.5285L241.123 87.5263L241.123 87.5241L241.122 87.5219L241.121 87.5197L241.12 87.5175L241.119 87.5153L241.119 87.5131L241.118 87.5109L241.117 87.5086L241.116 87.5064L241.115 87.5042L241.115 87.502L241.114 87.4997L241.113 87.4975L241.112 87.4953L241.111 87.493L241.111 87.4908L241.11 87.4885L241.109 87.4863L241.108 87.484L241.107 87.4818L241.106 87.4795L241.106 87.4773L241.105 87.475L241.104 87.4727L241.103 87.4705L241.102 87.4682L241.102 87.4659L241.101 87.4636L241.1 87.4614L241.099 87.4591L241.098 87.4568L241.097 87.4545L241.097 87.4522L241.096 87.4499L241.095 87.4476L241.095 87.447C241.04 87.3216 240.978 87.181 240.91 87.025C239.819 84.5393 237.009 78.1396 233.728 67.1446M232.772 54.1409L234.685 66.8549M232.772 54.1409L232.907 53.9991L233.008 53.8929L232.772 54.1409ZM233.728 67.1446C233.728 67.1432 233.727 67.1419 233.727 67.1406L234.685 66.8549M233.728 67.1446C233.728 67.1458 233.729 67.1471 233.729 67.1484L234.685 66.8549M233.728 67.1446C233.631 66.8296 233.526 66.5023 233.418 66.1661C233.084 65.1291 232.723 64.0086 232.504 62.9129C232.214 61.4613 232.136 59.9065 232.696 58.378M234.685 66.8549C234.579 66.5109 234.468 66.1642 234.356 65.8157C233.585 63.419 232.785 60.9342 233.665 58.6437M232.696 58.378C232.686 58.4277 232.677 58.4778 232.672 58.5277L233.665 58.6437M232.696 58.378C232.729 58.2232 232.78 58.0733 232.826 57.9518C232.893 57.7716 232.982 57.5673 233.084 57.349C233.287 56.9147 233.564 56.3856 233.891 55.8084M232.696 58.378C232.708 58.347 232.719 58.316 232.731 58.2851L233.665 58.6437M233.665 58.6437L233.891 55.8084M236.734 52.2674C236.709 52.2404 236.685 52.2106 236.661 52.1775C236.597 52.0871 236.554 51.9923 236.527 51.8996C236.526 51.8952 236.525 51.8908 236.523 51.8864C236.522 51.8795 236.52 51.8726 236.518 51.8658C236.5 51.7939 236.493 51.7238 236.492 51.6586C236.492 51.6203 236.494 51.5848 236.498 51.5526C236.453 51.562 236.408 51.5721 236.362 51.5829C236.335 51.6192 236.307 51.6564 236.281 51.691L236.272 51.704L236.262 51.7173C236.005 52.0905 235.766 52.4567 235.517 52.8655C235.636 52.8264 235.752 52.7894 235.865 52.7548C236.321 52.615 236.695 52.5242 236.949 52.4849C236.957 52.4736 236.965 52.4622 236.972 52.4509L236.627 52.2898L236.486 51.9001C236.546 52.0654 236.641 52.1844 236.734 52.2674ZM236.734 52.2674C236.818 52.3581 236.906 52.4154 236.973 52.4503C236.979 52.4419 236.984 52.4335 236.99 52.4251C236.97 52.4174 236.948 52.4081 236.925 52.3969C236.872 52.3707 236.803 52.329 236.734 52.2674ZM233.891 55.8084C233.893 55.8035 233.896 55.7986 233.899 55.7938L234.769 56.2862L233.883 55.823C233.885 55.8181 233.888 55.8132 233.891 55.8084Z" fill="white" stroke="white" stroke-width="2"/>
</svg>
