<svg width="81" height="81" viewBox="0 0 81 81" fill="none" xmlns="http://www.w3.org/2000/svg">
<path d="M40.4658 77.6055C61.1576 77.6055 77.9316 60.9045 77.9316 40.3027C77.9316 19.701 61.1576 3 40.4658 3C19.774 3 3 19.701 3 40.3027C3 60.9045 19.774 77.6055 40.4658 77.6055Z" fill="black" stroke="white" stroke-width="5" stroke-miterlimit="10"/>
<path d="M48.8072 21.5894C55.7769 24.7525 60.6196 31.7476 60.6196 39.8575C60.6196 50.9354 51.5924 59.9233 40.466 59.9233C29.3396 59.9233 20.3125 50.9354 20.3125 39.8575C20.3125 31.7337 25.155 24.7386 32.1247 21.5894" fill="black"/>
<path d="M48.8072 21.5894C55.7769 24.7525 60.6196 31.7476 60.6196 39.8575C60.6196 50.9354 51.5924 59.9233 40.466 59.9233C29.3396 59.9233 20.3125 50.9354 20.3125 39.8575C20.3125 31.7337 25.155 24.7386 32.1247 21.5894" stroke="white" stroke-width="3" stroke-miterlimit="10"/>
<path d="M40.4658 15.458V32.4024" stroke="white" stroke-width="3" stroke-miterlimit="10"/>
</svg>
