<svg width="338" height="241" viewBox="0 0 338 241" fill="none" xmlns="http://www.w3.org/2000/svg">
<path d="M232.439 62.7505C263.161 80.5154 274.908 99.5904 280.038 114.14C285.892 130.685 288.478 157.749 304.149 176.004C309.651 182.439 313.088 183.602 315.583 182.998C320.839 181.694 322.412 171.489 323.034 167.801C326.863 142.626 313.777 118.616 306.961 106.485C305.644 104.102 294.466 84.5192 273.771 66.1297C266.428 59.6087 257.924 53.2082 246.726 51.8491C244.837 51.6306 232.38 50.1259 229.88 55.6995C229.116 57.3316 229.477 59.1578 229.875 60.6695" fill="white"/>
<path d="M226.522 57.67C230.824 54.1529 241.316 59.3814 247.947 62.6976C253.852 65.6748 260.107 70.0307 269.842 80.6521C275.84 87.2088 286.711 100.128 297.997 120.424C305.706 134.189 308.735 143.78 314.743 162.828C316.601 168.778 318.616 175.575 315.548 180C311.922 185.379 303.242 184.312 300.409 183.984C267.626 180.064 212.126 69.5147 226.389 57.7184L226.522 57.67Z" fill="white"/>
<path d="M206.012 70.9815C206.012 70.9815 207.798 75.9042 208.281 77.2346C208.764 78.5651 217.022 89.271 217.022 89.271L225.447 102.928C228.566 107.367 233.002 114.19 237.885 122.657C242.96 131.656 243.515 134.015 248.144 141.369C252.87 148.99 257.042 154.252 262.326 160.918C272.568 173.765 272.509 171.528 279.062 180.443C284.032 187.072 285.928 191.052 291.119 194.138C292.257 194.779 294.991 196.498 294.7 197.356C294.493 198.033 292.157 197.827 290.183 197.79C288.657 197.741 288.258 197.886 278.036 199.635C272.502 200.588 266.967 201.541 261.433 202.494C248.983 204.75 242.867 205.763 240.227 205.968C229.401 206.882 229.318 205.407 217.645 206.478C209.773 207.224 209.567 207.902 199.77 208.744C195.52 209.081 191.536 209.321 183.52 209.668C173.893 210.148 172.501 210.051 168.202 210.254C157.861 210.843 155.1 211.543 141.997 212.831C128.313 214.18 121.471 214.854 114.921 214.67C107.789 214.546 100.901 213.431 86.9909 211.248C76.0954 209.478 70.5144 208.641 66.8837 206.946C59.804 203.642 53.9736 198.379 48.0099 193.164C46.2196 191.555 43.3768 189.123 40.6557 186.195C37.9828 183.401 28.7919 173.033 24.6293 159.487C18.0775 138.527 26.6349 119.314 30.3131 110.754C30.3131 110.754 38.0129 89.5943 49.5471 83.1535C50.2133 82.912 52.4669 81.6432 55.6647 80.4836C58.8626 79.324 60.5948 78.6959 62.9314 78.9024C65.2681 79.109 65.7394 79.992 67.9061 80.5613C70.3877 81.167 71.8534 80.6355 78.5272 78.6672C87.163 76.2885 88.9435 75.7934 89.7912 75.6366C91.8865 75.1779 95.011 74.6471 98.2804 74.5155C103.342 74.3362 105.883 75.5224 114.913 77.9691C122.951 80.1734 129.088 81.7119 130.71 82.027C134.184 82.875 138.107 83.7111 146.084 85.3349C152.936 86.7648 156.362 87.4797 157.439 87.5407C166.216 88.8746 167.937 87.7991 177.732 88.6135C190.311 89.6225 191.665 91.691 195.614 90.1085C199.382 88.4412 203.794 83.9807 205.879 71.0298" fill="white"/>
<path d="M43.8834 189.699C43.8834 189.699 39.1173 185.706 34.5479 178.932C30.0268 172.291 28.3869 166.111 27.1816 161.129C26.3858 158.105 25.1939 151.913 25.118 143.811C25.085 140.812 25.3239 132.746 28.3859 122.904C30.9381 114.15 34.5043 108.189 37.2944 103.414C40.3393 98.0944 43.7589 93.3917 47.9046 89.028C52.5716 84.0235 55.7462 81.9692 59.1255 80.8943C61.657 79.9763 64.0786 80.0016 65.6891 79.8692C64.1403 78.9253 61.4174 77.6544 58.1481 77.786C53.9828 77.9415 51.1714 80.1654 47.3056 83.2232C44.3609 85.4954 41.2578 88.5777 37.705 93.3287C36.7956 94.5618 33.0729 99.6755 29.3832 107.788C27.3076 112.455 24.1276 119.48 22.373 129.601C21.7881 132.974 20.7748 140.568 21.66 150.485C22.5934 160.534 25.1525 167.585 25.732 169.182C27.8082 174.902 30.0294 181.022 35.9812 185.789C39.4168 188.608 43.3621 190.339 43.7985 189.88L43.8834 189.699Z" fill="white"/>
<path d="M181.915 128.796C181.235 130.247 181.78 130.501 181.243 134.008C180.328 140.211 178.071 144.793 176.105 148.517C164.833 170.22 163.404 170.437 163.46 174.331C163.426 183.376 170.693 192.183 178.947 195.815C187.613 199.748 196.019 197.152 203.892 194.749C214.211 191.609 214.578 188.465 227.964 182.557C243.567 175.695 248.372 177.716 250.362 173.231C254.137 164.936 236.175 158.652 226.831 133.737C225.237 129.346 223.234 122.996 217.607 120.37C216.336 119.777 214.121 119.074 203.852 120.691C184.56 123.621 182.461 127.393 181.866 128.663L181.915 128.796Z" fill="white"/>
<path d="M95.7873 75.122C94.1768 75.2543 88.6306 75.7598 84.2818 77.4873C83.882 77.6323 83.0826 77.9222 82.6095 78.696C81.7 79.9291 82.1462 81.574 82.1695 82.4689C82.469 85.3714 79.669 88.0428 77.3055 90.2549C67.9362 98.9218 44.2454 105.103 42.4406 116.749C42.124 118.369 42.3771 119.482 42.9315 121.84C44.786 131.104 52.6366 138.194 59.8863 141.136C61.2903 141.681 61.2188 140.653 67.161 143.316C67.161 143.316 69.2912 144.199 77.6068 146.755C84.9298 149.068 86.7354 147.811 102.571 149.897C105.271 150.273 114.496 151.595 114.434 152.672C114.409 153.434 110.365 153.093 110.17 154.218C110.049 154.714 110.676 156.443 132.161 163.708C146.092 168.443 148.744 168.686 151.953 167.973C156.277 167.008 160.203 164.53 165.731 158.16C179.043 142.492 176.159 133.3 188.498 111.211C192.186 104.755 199.442 90.6815 198.075 89.8223C197.664 89.5198 196.621 90.8012 194.078 91.2718C192.649 91.4888 191.474 91.1618 189.852 90.8467C187.6 90.4588 185.349 90.0709 183.097 89.6829C178.727 88.8587 175.228 88.7726 172.043 88.7229C167.466 88.5758 167.744 88.9266 164.245 88.8405C160.698 88.6213 158.579 88.1851 154.027 87.2761C147.224 85.9793 147.502 86.3301 141.958 85.1789C137.769 84.4394 131.28 83.179 123.328 80.7932C123.328 80.7932 110.134 76.8453 104.275 75.6576C103.464 75.5001 102.023 75.2697 100.049 75.2326C98.8385 75.22 97.6277 75.2074 95.8839 75.388L95.7873 75.122Z" fill="white"/>
<path d="M27.1781 161.129C27.1781 161.129 26.9849 160.597 26.8884 160.331L23.3161 160.874C24.28 165.191 25.3422 168.118 25.6802 169.049C27.7564 174.77 29.9774 180.89 35.929 185.657C39.3644 188.476 43.3094 190.206 43.7458 189.747C44.2671 189.106 38.9799 185.755 34.4108 178.981C29.8899 172.34 28.2501 166.16 27.0448 161.178L27.1781 161.129Z" fill="white"/>
<path d="M206.445 70.0689C206.116 71.2417 206.018 72.6323 206.283 74.1924C209.841 97.2908 224.545 114.541 224.545 114.541C238.463 130.872 261.641 160.255 292.656 197.937C296.748 198.41 303.468 198.231 308.969 194.279C311.611 192.418 314.279 188.139 319.567 179.446C319.701 179.398 320.987 177.125 320.757 176.907C320.527 176.689 319.363 178.467 317.945 179.131C314.893 180.69 310.598 177.58 308.178 175.898C295.257 166.884 295.763 169.109 291.99 165.359C280.113 153.406 271.592 139.484 258.744 119.453C258.744 119.453 253.655 111.663 245.884 98.9748C234.885 81.1335 231.405 74.8681 231.911 66.7058C232.366 60.0671 235.193 54.9773 237.218 51.8341C235.862 51.4224 233.744 50.9862 231.286 51.2754C226.055 51.8173 225.022 55.2028 217.097 60.7862C211.112 65.0645 207.684 66.0063 206.445 70.0689Z" fill="white"/>
<path d="M232.145 53.225C230.462 53.9861 227.361 55.4117 225.723 57.9625C223.698 61.1057 224.299 65.2537 224.962 68.3254C227.61 82.2691 235.404 95.8522 236.48 97.5698C242.86 108.504 248.576 118.023 253.532 125.861L260.825 121.862C259.278 119.261 256.933 115.294 254.348 110.661C251.061 104.928 246.88 97.5621 242.326 87.9225C242.229 87.6564 242.133 87.3903 241.988 86.9912C241.082 84.911 238.135 78.4523 234.649 66.7696C233.816 64.0605 232.621 61.182 233.629 58.5584C233.665 58.244 234.09 57.3373 234.733 56.2009C235.801 54.1577 236.359 53.2026 237.05 52.1992C237.353 51.7882 237.571 51.5586 237.39 51.4739C237.245 51.0747 234.266 52.0046 232.364 52.9954L232.145 53.225Z" fill="white"/>
<path d="M101.117 153.123C101.117 151.288 101.883 149.759 102.342 149.148C104.332 146.09 107.7 145.019 109.078 144.408C114.896 142.114 115.508 136.61 121.479 127.895C123.163 125.449 128.368 118.11 136.635 112.452C141.994 108.783 147.658 106.948 158.987 103.431C170.01 99.9148 173.991 99.9148 176.134 99.9148C180.574 99.9148 186.851 100.221 191.75 104.655C196.802 109.241 197.567 115.51 197.874 118.262C198.486 123.002 197.567 126.978 195.883 134.775C194.505 141.35 193.74 141.809 193.893 144.714C194.199 150.218 196.955 151.288 198.792 157.557C199.711 160.462 201.548 166.731 199.098 172.541C196.19 179.421 188.382 182.02 184.554 183.396C177.359 185.843 171.235 185.078 164.193 184.161C159.447 183.549 148.424 182.02 136.482 175.14C127.603 169.942 127.603 167.342 120.407 165.202C115.967 163.826 111.681 163.52 106.322 160.003C101.882 156.945 101.117 154.652 100.964 153.123H101.117Z" fill="#1414C9"/>
<path d="M193.74 133.552C198.485 126.519 205.987 125.448 214.101 124.378C215.479 124.225 216.857 124.072 217.776 124.837C220.225 127.13 214.714 132.329 215.785 139.821C216.551 145.631 220.378 147.007 220.378 154.04C220.378 156.028 220.378 158.015 219 159.086C217.01 160.767 213.795 159.239 207.518 157.557C196.036 154.193 194.658 155.722 192.515 153.428C188.228 148.842 189.912 139.362 193.893 133.552H193.74Z" fill="#1414C9"/>
<path d="M142.453 175.904C140.922 178.045 142.453 181.256 143.677 184.772C147.046 192.723 153.476 196.698 156.691 198.533C159.293 200.062 164.958 203.273 167.713 201.285C168.479 200.674 169.091 199.603 169.091 198.533C169.091 196.392 166.642 195.475 165.111 193.64C161.437 189.512 165.417 184.161 162.968 179.574C159.599 173.152 145.515 171.623 142.453 176.057V175.904Z" fill="#1414C9"/>
<path d="M129.117 145.22C129.961 145.173 130.565 143.7 130.467 141.93C130.368 140.159 129.603 138.762 128.759 138.809C127.915 138.856 127.311 140.329 127.409 142.1C127.508 143.87 128.273 145.267 129.117 145.22Z" fill="white"/>
</svg>
