<svg width="84" height="94" viewBox="0 0 84 94" fill="none" xmlns="http://www.w3.org/2000/svg">
<path d="M66.3931 41.9867C66.3931 28.5197 55.471 17.6055 42.0013 17.6055C28.5315 17.6055 17.6094 28.5228 17.6094 41.9867C17.6094 45.7435 18.7035 49.2292 18.7035 49.2292C19.8796 52.9355 21.2669 54.0292 24.7857 59.9637C28.5945 66.39 29.1652 68.0288 29.4301 69.0846C29.7202 70.2318 29.7391 70.7361 30.0859 76.8818C30.5967 85.9964 30.6598 86.8253 31.4827 87.9315C33.9894 91.3101 39.2045 91.3479 41.7868 91.3637C44.2809 91.3794 49.8649 91.4173 52.4662 87.8779C53.3049 86.7339 53.5729 83.3805 54.0774 76.7211C54.3706 72.8382 54.3548 71.836 54.8814 69.9608C55.594 67.4237 56.5336 66.163 58.4223 62.9326C62.3099 56.2826 64.2774 52.882 65.3148 49.1662C66.0936 46.3832 66.3931 43.7012 66.3931 41.9835V41.9867Z" stroke="white" stroke-width="4" stroke-miterlimit="10"/>
<path d="M29.623 74.578H55.2005H29.623Z" stroke="white" stroke-width="4" stroke-miterlimit="10"/>
<path d="M21.8388 62.1836L21.598 61.9429C20.4307 60.7761 18.5381 60.7761 17.3708 61.9429L12.4078 66.9036C11.2405 68.0704 11.2405 69.9622 12.4078 71.129L12.6486 71.3697C13.8159 72.5365 15.7085 72.5365 16.8758 71.3697L21.8388 66.4089C23.0061 65.2421 23.0061 63.3504 21.8388 62.1836Z" fill="white"/>
<path d="M9.83675 45.4469C11.5816 45.4469 12.9961 44.033 12.9961 42.2889C12.9961 40.5448 11.5816 39.131 9.83675 39.131H3.15862C1.41377 39.131 -0.000713348 40.5448 -0.000713348 42.2889C-0.000713348 44.033 1.41377 45.4469 3.15862 45.4469H9.83675Z" fill="white"/>
<path d="M38.5231 9.83313C38.5231 11.5772 39.9376 12.9911 41.6825 12.9911C43.4273 12.9911 44.8418 11.5772 44.8418 9.83313V3.15792C44.8418 1.41383 43.4273 -3.91006e-05 41.6825 -3.91006e-05C39.9376 -3.91006e-05 38.5231 1.41383 38.5231 3.15792V9.83313Z" fill="white"/>
<path d="M80.8407 45.4469C82.5855 45.4469 84 44.033 84 42.2889C84 40.5448 82.5855 39.131 80.8407 39.131H74.1625C72.4177 39.131 71.0032 40.5448 71.0032 42.2889C71.0032 44.033 72.4177 45.4469 74.1625 45.4469H80.8407Z" fill="white"/>
<path d="M70.5519 71.3703L70.7927 71.1296C71.96 69.9628 71.96 68.0711 70.7927 66.9043L65.8297 61.9435C64.6624 60.7767 62.7698 60.7767 61.6025 61.9435L61.3617 62.1842C60.1944 63.351 60.1944 65.2428 61.3617 66.4096L66.3247 71.3703C67.492 72.5371 69.3846 72.5371 70.5519 71.3703Z" fill="white"/>
<path d="M70.7919 13.1325L70.5511 12.8918C69.3838 11.7251 67.4912 11.7251 66.3239 12.8918L61.361 17.8526C60.1937 19.0194 60.1937 20.9112 61.361 22.078L61.6018 22.3186C62.7691 23.4854 64.6616 23.4854 65.8289 22.3186L70.7919 17.3579C71.9592 16.1911 71.9592 14.2993 70.7919 13.1325Z" fill="white"/>
<path d="M20.9601 22.3203L21.2009 22.0796C22.3682 20.9128 22.3682 19.021 21.2009 17.8542L16.2379 12.8935C15.0706 11.7267 13.178 11.7267 12.0107 12.8935L11.7699 13.1342C10.6026 14.301 10.6026 16.1927 11.7699 17.3595L16.7329 22.3203C17.9002 23.4871 19.7928 23.4871 20.9601 22.3203Z" fill="white"/>
</svg>
