<svg width="153" height="94" viewBox="0 0 153 94" fill="none" xmlns="http://www.w3.org/2000/svg">
<path fill-rule="evenodd" clip-rule="evenodd" d="M0.218557 46.8779C1.05189 43.0446 5.21887 33.578 17.2189 26.378C29.2189 19.178 69.885 5.87798 89.2183 0.377976C90.385 -0.122024 92.7897 -0.622066 93.2183 2.37798C93.6183 5.17798 96.0516 14.2113 97.2183 18.3779C104.385 21.7113 119.518 29.2779 124.718 32.8779C129.918 36.4779 133.052 39.0446 133.718 39.8779L148.218 28.8779C149.885 27.3779 153.118 25.5779 152.718 30.3779C152.318 35.1779 150.885 43.0446 150.218 46.378C150.065 47.1455 149.859 47.8148 149.663 48.453C149.092 50.3091 148.602 51.9013 149.718 54.8779C151.164 58.734 152.218 64.3779 152.718 68.8779C152.718 70.8779 151.818 73.7779 148.218 71.3779C144.618 68.9779 135.552 62.7113 132.218 60.3779C128.218 63.3779 100.718 75.3779 87.7183 79.3779C84.1441 80.4777 82.2709 80.8568 81.1696 81.0796C80.0426 81.3077 79.7241 81.3722 79.2183 81.8779L76.7183 91.3779C76.5516 92.3779 75.3183 94.0779 71.7183 92.8779C68.1183 91.678 60.2183 88.3779 56.7183 86.8779C54.4643 86.5023 50.7495 85.0893 47.5066 83.8558C44.9947 82.9003 42.7659 82.0525 41.7183 81.8779C38.7183 81.3779 10.2183 70.3779 3.71829 61.3779C-0.665917 55.3075 -0.0655076 49.6867 0.160289 47.5729C0.193467 47.2623 0.218557 47.0274 0.218557 46.8779ZM24.7186 49.3779C29.413 49.3779 33.2186 45.5723 33.2186 40.8779C33.2186 36.1835 29.413 32.3779 24.7186 32.3779C20.0241 32.3779 16.2186 36.1835 16.2186 40.8779C16.2186 45.5723 20.0241 49.3779 24.7186 49.3779Z" fill="white"/>
</svg>
