<svg width="1378" height="1017" viewBox="0 0 1378 1017" fill="none" xmlns="http://www.w3.org/2000/svg">
<path d="M1318.26 4H59.7439C28.9574 4 4 28.9574 4 59.7439V906.622C4 937.409 28.9574 962.366 59.7439 962.366H1318.26C1349.04 962.366 1374 937.409 1374 906.622V59.7439C1374 28.9574 1349.04 4 1318.26 4Z" stroke="white" stroke-width="7" stroke-miterlimit="10"/>
<path d="M918.182 1016.32V964.857H459.831V1016.32" stroke="white" stroke-width="7" stroke-miterlimit="10"/>
<path d="M1228.74 328.232C1278.39 328.232 1318.65 287.98 1318.65 238.326C1318.65 188.672 1278.39 148.419 1228.74 148.419C1179.09 148.419 1138.83 188.672 1138.83 238.326C1138.83 287.98 1179.09 328.232 1228.74 328.232Z" stroke="white" stroke-width="5" stroke-miterlimit="10"/>
<path d="M1228.74 269.354C1245.88 269.354 1259.77 255.462 1259.77 238.326C1259.77 221.19 1245.88 207.298 1228.74 207.298C1211.6 207.298 1197.71 221.19 1197.71 238.326C1197.71 255.462 1211.6 269.354 1228.74 269.354Z" stroke="white" stroke-width="4" stroke-miterlimit="10"/>
<path d="M1228.74 189.454H1197.7L1213.22 174.283L1228.74 159.112L1244.25 174.283L1259.77 189.454H1228.74Z" stroke="white" stroke-width="4" stroke-miterlimit="10"/>
<path d="M1228.74 287.198H1259.77L1244.25 302.369L1228.74 317.54L1213.22 302.369L1197.7 287.198H1228.74Z" stroke="white" stroke-width="4" stroke-miterlimit="10"/>
<path d="M1179.87 238.326V269.368L1164.7 253.847L1149.53 238.326L1164.7 222.805L1179.87 207.298V238.326Z" stroke="white" stroke-width="4" stroke-miterlimit="10"/>
<path d="M1277.61 238.326V207.298L1292.78 222.805L1307.96 238.326L1292.78 253.847L1277.61 269.368V238.326Z" stroke="white" stroke-width="4" stroke-miterlimit="10"/>
<path d="M1140.95 502.616V485.233H1153.25V487.543H1143.62V492.483H1152.06V494.792H1143.62V500.306H1153.49V502.616H1140.95Z" fill="white"/>
<path d="M1154.16 502.616L1160.04 493.742L1154.57 485.233H1157.53L1161.56 491.797H1161.59L1165.65 485.233H1168.59L1163.12 493.687L1168.88 502.616H1165.78L1161.52 495.688H1161.49L1157.3 502.616H1154.16Z" fill="white"/>
<path d="M1170.59 502.616V485.233H1173.26V502.616H1170.59Z" fill="white"/>
<path d="M1180.98 502.616V487.543H1175.36V485.233H1189.29V487.543H1183.68V502.616H1180.98Z" fill="white"/>
<path d="M1128.6 418.867V416.46L1139.04 403.178V403.122H1129.11V400.715H1142.47V403.122L1132.03 416.404V416.46H1142.72V418.867H1128.6Z" fill="white"/>
<path d="M1143.84 409.77C1143.84 404.312 1147.33 400.351 1152.76 400.351C1158.19 400.351 1161.67 404.312 1161.67 409.77C1161.67 415.228 1158.19 419.217 1152.76 419.217C1147.33 419.217 1143.84 415.228 1143.84 409.77ZM1158.75 409.77C1158.75 406.033 1157.04 402.758 1152.76 402.758C1148.48 402.758 1146.77 406.033 1146.77 409.77C1146.77 413.507 1148.48 416.809 1152.76 416.809C1157.04 416.809 1158.75 413.507 1158.75 409.77Z" fill="white"/>
<path d="M1163.49 409.77C1163.49 404.312 1166.98 400.351 1172.41 400.351C1177.84 400.351 1181.32 404.312 1181.32 409.77C1181.32 415.228 1177.84 419.217 1172.41 419.217C1166.98 419.217 1163.49 415.228 1163.49 409.77ZM1178.4 409.77C1178.4 406.033 1176.69 402.758 1172.41 402.758C1168.13 402.758 1166.42 406.033 1166.42 409.77C1166.42 413.507 1168.13 416.809 1172.41 416.809C1176.69 416.809 1178.4 413.507 1178.4 409.77Z" fill="white"/>
<path d="M1184.04 418.867V400.701H1187.72L1192.95 414.976H1193.01L1198.27 400.701H1201.95V418.867H1199.21V404.773H1199.15L1194.14 418.867H1191.83L1186.82 404.773H1186.77V418.867H1184.03H1184.04Z" fill="white"/>
<path d="M1244.28 465.388V438.769H1249.68L1257.35 459.692H1257.42L1265.13 438.769H1270.53V465.388H1266.52V444.717H1266.45L1259.11 465.388H1255.72L1248.39 444.717H1248.32V465.388H1244.3H1244.28Z" fill="white"/>
<path d="M1273.32 465.388L1283.23 438.769H1287.66L1297.64 465.388H1293.18L1290.98 458.978H1279.84L1277.64 465.388H1273.32ZM1281.06 455.521H1289.8L1285.45 442.561H1285.38L1281.06 455.521Z" fill="white"/>
<path d="M1297.59 465.388L1306.6 451.798L1298.22 438.769H1302.76L1308.95 448.817H1308.99L1315.21 438.769H1319.71L1311.33 451.728L1320.15 465.402H1315.37L1308.85 454.793H1308.81L1302.37 465.402H1297.57L1297.59 465.388Z" fill="white"/>
<path d="M1282.22 418.825H1261.1L1271.67 408.496L1282.22 398.168L1292.78 408.496L1303.35 418.825H1282.22Z" stroke="white" stroke-width="4" stroke-miterlimit="10"/>
<path d="M1282.2 485.331H1303.32L1292.77 495.66L1282.2 505.989L1271.65 495.66L1261.08 485.331H1282.2Z" stroke="white" stroke-width="4" stroke-miterlimit="10"/>
<path d="M1307.94 381.331H1256.49C1243.27 381.331 1232.55 392.052 1232.55 405.277V498.893C1232.55 512.118 1243.27 522.839 1256.49 522.839H1307.94C1321.17 522.839 1331.89 512.118 1331.89 498.893V405.277C1331.89 392.052 1321.17 381.331 1307.94 381.331Z" stroke="white" stroke-width="5" stroke-miterlimit="10"/>
<path d="M1191.01 381.191H1139.56C1126.34 381.191 1115.62 391.912 1115.62 405.137V414.416C1115.62 427.642 1126.34 438.363 1139.56 438.363H1191.01C1204.23 438.363 1214.96 427.642 1214.96 414.416V405.137C1214.96 391.912 1204.23 381.191 1191.01 381.191Z" stroke="white" stroke-width="5" stroke-miterlimit="10"/>
<path d="M1190.84 465.332H1139.39C1126.17 465.332 1115.45 476.053 1115.45 489.278V498.557C1115.45 511.782 1126.17 522.503 1139.39 522.503H1190.84C1204.07 522.503 1214.79 511.782 1214.79 498.557V489.278C1214.79 476.053 1204.07 465.332 1190.84 465.332Z" stroke="white" stroke-width="5" stroke-miterlimit="10"/>
<path d="M101.688 704.15C105.565 698.188 108.811 689.483 108.811 680.302C108.811 666.699 101.212 658.749 90.2115 658.749C80.0228 658.749 74.2007 664.249 68.5326 678.161C62.2206 694.969 52.9976 705.368 37.6306 705.368C20.6402 705.368 8.03027 692.072 8.03027 672.045C8.03027 661.492 10.6194 653.851 13.3625 649.274L24.8528 652.941C22.9074 656.3 19.6745 663.186 19.6745 672.507C19.6745 686.572 28.5756 691.918 36.0072 691.918C46.1958 691.918 51.2202 685.648 57.0423 671.443C64.166 654.019 73.0531 645.16 89.0779 645.16C105.9 645.16 120.456 656.93 120.456 681.226C120.456 691.163 117.377 702.009 113.5 707.509L101.688 704.15Z" fill="white"/>
<path d="M63.1866 538.92C100.722 538.92 120.61 560.473 120.61 586.756C120.61 613.04 98.2872 633.067 65.286 633.067C30.6612 633.067 8.0166 612.732 8.0166 585.231C8.0166 557.73 30.8292 538.92 63.1726 538.92H63.1866ZM64.9641 618.862C88.2525 618.862 109.134 606.938 109.134 586C109.134 565.063 88.5884 552.985 63.8304 552.985C42.1515 552.985 19.5069 563.678 19.5069 585.847C19.5069 608.015 41.0179 618.862 64.9641 618.862Z" fill="white"/>
<path d="M9.80762 508.368H74.3546C98.7766 508.368 109.133 498.123 109.133 484.366C109.133 469.083 98.4547 459.3 74.3546 459.3H9.80762V445.85H73.3889C106.88 445.85 120.624 462.505 120.624 484.827C120.624 505.919 107.846 521.817 74.0327 521.817H9.80762V508.368Z" fill="white"/>
<path d="M118.832 422.786H9.80762V408.258L64.9637 375.243C77.7415 367.602 89.2318 361.64 100.386 356.755L100.232 356.447C85.6769 357.665 72.4092 357.973 55.4188 357.973H9.80762V345.447H118.846V358.896L63.5221 391.604C51.3881 398.784 38.9321 405.669 27.12 410.862L27.2739 411.323C41.0314 410.554 54.1312 410.26 72.2413 410.26H118.832V422.786Z" fill="white"/>
<path d="M11.2634 322.228C9.97577 314.125 8.99609 304.496 8.99609 293.958C8.99609 274.854 13.6846 261.25 22.5857 252.237C31.4868 243.07 44.0967 237.71 61.7309 237.71C79.3652 237.71 94.0884 242.902 104.109 252.531C114.298 262.16 119.798 278.059 119.798 298.072C119.798 307.547 119.308 315.497 118.51 322.228H11.2634ZM107.678 308.933C108.322 305.574 108.49 300.675 108.49 295.483C108.49 267.058 91.6672 251.621 62.2208 251.621C36.4971 251.467 20.1645 265.225 20.1645 293.342C20.1645 300.214 20.8082 305.42 21.62 308.933H107.678Z" fill="white"/>
<path d="M1191.01 586.448H1139.56C1126.34 586.448 1115.62 597.169 1115.62 610.394V634.677C1115.62 647.902 1126.34 658.623 1139.56 658.623H1191.01C1204.23 658.623 1214.96 647.902 1214.96 634.677V610.394C1214.96 597.169 1204.23 586.448 1191.01 586.448Z" stroke="white" stroke-width="5" stroke-miterlimit="10"/>
<path d="M1307.93 586.448H1256.48C1243.26 586.448 1232.53 597.169 1232.53 610.394V634.677C1232.53 647.902 1243.26 658.623 1256.48 658.623H1307.93C1321.15 658.623 1331.87 647.902 1331.87 634.677V610.394C1331.87 597.169 1321.15 586.448 1307.93 586.448Z" stroke="white" stroke-width="5" stroke-miterlimit="10"/>
<path d="M1254.81 622.542H1309.61" stroke="white" stroke-width="7" stroke-miterlimit="10"/>
<path d="M1137.88 622.542H1192.68" stroke="white" stroke-width="7" stroke-miterlimit="10"/>
<path d="M1165.29 595.139V649.931" stroke="white" stroke-width="7" stroke-miterlimit="10"/>
<path d="M1088.94 148H118.427V846.456H1088.94V148Z" stroke="white" stroke-width="7" stroke-miterlimit="10"/>
</svg>
