<svg width="674" height="713" viewBox="0 0 674 713" fill="none" xmlns="http://www.w3.org/2000/svg">
<mask id="path-1-inside-1_129_318" fill="white">
<path d="M372.758 700.264C371.506 699.781 372.359 698.195 370.594 696.556C368.156 694.179 365.232 696.162 362.07 695.66C356.452 694.688 353.94 686.297 353.46 684.436C350.772 675.259 354.393 665.884 350.799 664.018C349.547 663.535 347.973 663.885 348.006 663.18C347.911 662.185 352.423 661.054 352.65 659.227C352.876 657.399 349.168 656.447 343.905 653.936C337.679 650.815 332.207 648.224 332.404 643.991C332.648 640.255 337.226 637.713 336.699 635.355C336.427 633.574 333.441 633.858 329.99 633.483C326.956 633.27 315.687 632.032 313.944 625.374C312.856 621.363 316.438 618.916 315.222 614.616C313.816 608.328 303.927 607.862 298.21 609.007C294.854 609.627 291.466 610.952 289.651 611.927C283.949 614.275 283.097 615.861 279.452 616.608C274.522 617.578 269.852 616.015 269.87 614.106C269.808 612.407 275.765 610.637 276.024 608.104C276.284 605.57 271.017 606.171 269.337 601.213C268.344 598.197 269.855 596.147 268.702 593.547C267.42 590.658 264.899 591.6 261.224 589.942C253.794 586.835 251.139 576.952 250.355 574.016C249.267 570.006 249.926 569.542 249.13 562.292C247.807 552.685 246.141 548.929 244.781 543.138C243.023 535.278 240.505 516.352 247.109 509.804C251.416 505.482 259.809 509.2 276.096 516.685C282.82 519.759 285.419 521.719 287.246 525.058C290.596 530.66 288.858 534.538 292.706 540.093C296.762 545.728 300.008 542.911 302.186 547.822C304.493 553.021 301.599 557.41 303.369 569.584C303.688 571.862 304.311 575.214 306.397 576.02C308.066 576.664 309.336 575.239 310.635 576.219C311.935 577.2 311.339 579.363 312.555 583.663C313.163 585.813 314.075 589.037 315.568 588.896C316.563 588.801 317.914 587.168 318.477 585.71C319.764 582.376 317.037 580.127 315.309 574.672C314.093 570.372 314.048 566.764 313.956 562.659C313.992 558.842 313.905 548.515 316.668 546.948C319.928 545.334 326.646 554.63 324.891 560.416C324.408 561.666 323.636 563.044 323.618 564.952C323.6 566.86 324.706 568.963 325.91 568.949C327.403 568.807 328.595 564.479 329.302 564.513C330.136 564.835 328.22 571.038 330.351 575.451C331.2 576.976 332.419 578.164 332.708 578.037C333.367 577.573 330.643 572.212 326.783 562.344C321.082 547.934 321.037 544.326 316.835 540.31C313.306 537.033 311.908 538.169 310.209 535.119C306.731 529.228 310.335 521.762 310.311 513.134C310.236 507.121 308.585 504.568 300.508 489.481C284.82 459.965 283.044 454.013 285.231 449.591C288.271 443.583 296.747 443.982 297.716 438.371C298.425 435.293 295.922 434.327 294.9 428.905C294.852 428.408 293.335 419.923 296.583 413.995C300.524 406.898 307.086 410.389 317.16 402.308C325.836 395.363 327.69 387.461 331.558 387.996C336.342 388.646 333.713 401.037 339.522 403.997C346.502 407.649 355.282 392.366 364.461 395.909C366.339 396.634 372.148 399.595 375.256 405.822C375.897 407.266 376.922 409.577 379.345 410.752C381.977 412.007 383.872 410.823 385.783 410.843C392.268 411.431 389.633 430.044 397.048 448.706C400.78 458.286 403.525 458.627 405.089 467.61C406.83 477.378 403.826 479.57 404.571 489.433C405.349 498.591 409.435 506.632 418.024 522.874C421.806 529.84 424.772 534.576 424.876 542.995C425.046 550.002 423.114 555.002 423.532 555.163C423.949 555.324 429.162 543.691 427.326 532.928C426.256 527.009 423.672 526.251 420.9 520.394C413.962 506.703 417.222 488.332 417.917 484.052C420.629 468.341 426.652 465.161 425.603 454.223C425.317 451.239 424.214 446.026 426.819 441.765C427.961 440.051 429.969 437.954 431.591 438.101C436.502 439.039 434.395 460.01 435.599 459.996C436.595 459.902 436.607 447.458 441.101 431.478C445.628 414.793 451.705 405.887 448.469 399.371C446.722 395.824 444.585 397.633 442.839 394.086C439.683 387.362 446.836 378.153 454.468 354.049C457.625 344.016 457.16 343.357 459.46 338.022C464.11 327.847 470.056 321.763 476.082 315.471C482.928 308.299 488.984 304.413 500.887 296.559C505.048 293.856 508.47 291.826 512.049 292.489C514.922 293.12 515.611 295.061 517.843 294.247C521.938 292.955 523.005 285.228 525.783 284.864C528.063 284.547 527.592 290.11 531.538 293.549C536.109 297.228 540.544 293.195 543.96 297.386C546.237 300.18 545.03 303.305 547.164 304.608C549.715 306.071 552.159 302.227 556.155 303.051C558.611 303.521 558.674 305.22 562.188 307.295C565.493 309.289 567.564 308.892 569.442 309.616C575.7 312.032 579.202 326.551 575.274 337.961C571.668 348.539 564.315 348.334 560.274 360.658C558.116 367.486 560.155 367.794 557.32 376.994C554.567 385.985 550.773 391.463 552.519 395.01C552.904 395.876 553.914 396.984 555.198 396.762C558.057 396.19 559.669 388.912 563.129 379.954C566.589 370.996 570.661 361.077 578.114 356.054C579.062 355.462 585.568 351.032 592.197 353.112C597.91 355.078 600.265 360.774 600.953 362.716C603.436 368.701 601.346 371.007 604.181 378.564C606.327 384.18 607.772 383.541 608.282 387.808C609.063 393.855 606.121 397.746 608.028 400.876C609.471 403.348 611.992 402.407 612.857 405.134C613.801 407.653 612.386 410.698 612.305 410.906C610.729 414.367 607.212 415.403 603.373 417.273C603.373 417.273 598.089 419.782 589.38 427.432C586.135 430.249 580.672 435.082 576.907 442.965C573.546 449.807 575.793 450.196 571.945 461.398C569.933 466.606 567.534 474.059 561.94 481.714C559.079 485.398 558.661 485.236 555.639 489.336C550.784 496.32 547.437 504.364 548.32 505.183C549.074 505.714 552.498 500.572 560.643 494.38C566.074 490.252 567.486 490.319 568.193 490.352C570.07 491.077 570.806 493.515 572.386 503.701C574.237 515.666 575.098 521.505 574.821 525.946C574.156 532.632 573 533.143 572.142 540.951C571.995 542.57 571.817 544.895 570.434 547.234C568.97 549.781 567.686 550.004 567.251 551.751C566.333 554.748 570.007 556.406 569.635 559.853C569.31 563.797 563.993 567.011 563.254 567.683C553.198 573.856 544.874 565.616 539.715 571.524C537.995 573.494 538.428 574.857 536.049 577.291C533.382 579.852 530.443 580.633 527.874 581.077C523.234 581.919 522.721 580.764 520.119 581.914C516.731 583.239 516.599 586.061 512.373 590.175C506.588 595.842 502.222 595.354 495.457 602.318C494.637 603.198 493.448 604.415 493.624 605.201C494.056 606.565 500.255 604.17 501.701 603.531C512.734 599.172 515.002 594.542 523.401 592.038C527.993 590.699 526.724 592.124 533.805 590.548C543.536 588.32 545.577 585.517 551.228 585.783C552.85 585.93 557.842 586.66 561.546 590.724C565.251 594.787 563.37 597.173 566.482 600.289C570.475 604.225 576.737 603.53 584.167 606.637C584.793 606.879 585.836 607.282 585.979 608.773C586.426 611.34 582.939 614.782 582.2 615.454C578.344 619.232 574.731 619.274 574.424 621.31C574.15 622.64 575.9 623.076 575.625 624.406C575.22 628.559 560.688 632.046 560.491 636.279C560.264 638.107 562.929 638.657 562.655 639.987C561.689 642.487 548.897 638.986 545.36 645.041C544.346 647.044 545.068 648.28 544.168 649.369C542.078 651.674 537.378 647.706 525.984 643.068C522.021 641.538 519.726 640.652 516.37 641.272C515.085 641.494 511.232 642.161 508.081 645.972C505.831 648.694 506.392 650.347 504.705 651.611C501.331 654.139 498.464 647.287 491.207 648.076C486.727 648.502 486.307 651.452 480.093 652.644C478.021 653.041 476.4 652.894 474.552 654.575C472.705 656.255 472.606 658.372 471.512 660.583C469.197 664.716 465.698 663.844 461.168 666.883C452.927 672.081 452.966 681.911 446.88 683.392C444.728 683.998 442.642 683.192 439.512 681.984C435.548 680.454 435.533 679.251 433.078 678.782C428.503 678.213 425.77 682.186 423.299 680.514C421.037 678.922 422.438 674.675 420.977 674.111C417.848 672.903 409.706 692.742 405.003 691.884C402.049 691.462 402.907 683.654 398.654 682.252C397.194 681.688 395.54 682.247 392.407 684.149C380.826 691.169 374.987 702.561 371.938 701.145L372.758 700.264Z"/>
</mask>
<path d="M372.758 700.264C371.506 699.781 372.359 698.195 370.594 696.556C368.156 694.179 365.232 696.162 362.07 695.66C356.452 694.688 353.94 686.297 353.46 684.436C350.772 675.259 354.393 665.884 350.799 664.018C349.547 663.535 347.973 663.885 348.006 663.18C347.911 662.185 352.423 661.054 352.65 659.227C352.876 657.399 349.168 656.447 343.905 653.936C337.679 650.815 332.207 648.224 332.404 643.991C332.648 640.255 337.226 637.713 336.699 635.355C336.427 633.574 333.441 633.858 329.99 633.483C326.956 633.27 315.687 632.032 313.944 625.374C312.856 621.363 316.438 618.916 315.222 614.616C313.816 608.328 303.927 607.862 298.21 609.007C294.854 609.627 291.466 610.952 289.651 611.927C283.949 614.275 283.097 615.861 279.452 616.608C274.522 617.578 269.852 616.015 269.87 614.106C269.808 612.407 275.765 610.637 276.024 608.104C276.284 605.57 271.017 606.171 269.337 601.213C268.344 598.197 269.855 596.147 268.702 593.547C267.42 590.658 264.899 591.6 261.224 589.942C253.794 586.835 251.139 576.952 250.355 574.016C249.267 570.006 249.926 569.542 249.13 562.292C247.807 552.685 246.141 548.929 244.781 543.138C243.023 535.278 240.505 516.352 247.109 509.804C251.416 505.482 259.809 509.2 276.096 516.685C282.82 519.759 285.419 521.719 287.246 525.058C290.596 530.66 288.858 534.538 292.706 540.093C296.762 545.728 300.008 542.911 302.186 547.822C304.493 553.021 301.599 557.41 303.369 569.584C303.688 571.862 304.311 575.214 306.397 576.02C308.066 576.664 309.336 575.239 310.635 576.219C311.935 577.2 311.339 579.363 312.555 583.663C313.163 585.813 314.075 589.037 315.568 588.896C316.563 588.801 317.914 587.168 318.477 585.71C319.764 582.376 317.037 580.127 315.309 574.672C314.093 570.372 314.048 566.764 313.956 562.659C313.992 558.842 313.905 548.515 316.668 546.948C319.928 545.334 326.646 554.63 324.891 560.416C324.408 561.666 323.636 563.044 323.618 564.952C323.6 566.86 324.706 568.963 325.91 568.949C327.403 568.807 328.595 564.479 329.302 564.513C330.136 564.835 328.22 571.038 330.351 575.451C331.2 576.976 332.419 578.164 332.708 578.037C333.367 577.573 330.643 572.212 326.783 562.344C321.082 547.934 321.037 544.326 316.835 540.31C313.306 537.033 311.908 538.169 310.209 535.119C306.731 529.228 310.335 521.762 310.311 513.134C310.236 507.121 308.585 504.568 300.508 489.481C284.82 459.965 283.044 454.013 285.231 449.591C288.271 443.583 296.747 443.982 297.716 438.371C298.425 435.293 295.922 434.327 294.9 428.905C294.852 428.408 293.335 419.923 296.583 413.995C300.524 406.898 307.086 410.389 317.16 402.308C325.836 395.363 327.69 387.461 331.558 387.996C336.342 388.646 333.713 401.037 339.522 403.997C346.502 407.649 355.282 392.366 364.461 395.909C366.339 396.634 372.148 399.595 375.256 405.822C375.897 407.266 376.922 409.577 379.345 410.752C381.977 412.007 383.872 410.823 385.783 410.843C392.268 411.431 389.633 430.044 397.048 448.706C400.78 458.286 403.525 458.627 405.089 467.61C406.83 477.378 403.826 479.57 404.571 489.433C405.349 498.591 409.435 506.632 418.024 522.874C421.806 529.84 424.772 534.576 424.876 542.995C425.046 550.002 423.114 555.002 423.532 555.163C423.949 555.324 429.162 543.691 427.326 532.928C426.256 527.009 423.672 526.251 420.9 520.394C413.962 506.703 417.222 488.332 417.917 484.052C420.629 468.341 426.652 465.161 425.603 454.223C425.317 451.239 424.214 446.026 426.819 441.765C427.961 440.051 429.969 437.954 431.591 438.101C436.502 439.039 434.395 460.01 435.599 459.996C436.595 459.902 436.607 447.458 441.101 431.478C445.628 414.793 451.705 405.887 448.469 399.371C446.722 395.824 444.585 397.633 442.839 394.086C439.683 387.362 446.836 378.153 454.468 354.049C457.625 344.016 457.16 343.357 459.46 338.022C464.11 327.847 470.056 321.763 476.082 315.471C482.928 308.299 488.984 304.413 500.887 296.559C505.048 293.856 508.47 291.826 512.049 292.489C514.922 293.12 515.611 295.061 517.843 294.247C521.938 292.955 523.005 285.228 525.783 284.864C528.063 284.547 527.592 290.11 531.538 293.549C536.109 297.228 540.544 293.195 543.96 297.386C546.237 300.18 545.03 303.305 547.164 304.608C549.715 306.071 552.159 302.227 556.155 303.051C558.611 303.521 558.674 305.22 562.188 307.295C565.493 309.289 567.564 308.892 569.442 309.616C575.7 312.032 579.202 326.551 575.274 337.961C571.668 348.539 564.315 348.334 560.274 360.658C558.116 367.486 560.155 367.794 557.32 376.994C554.567 385.985 550.773 391.463 552.519 395.01C552.904 395.876 553.914 396.984 555.198 396.762C558.057 396.19 559.669 388.912 563.129 379.954C566.589 370.996 570.661 361.077 578.114 356.054C579.062 355.462 585.568 351.032 592.197 353.112C597.91 355.078 600.265 360.774 600.953 362.716C603.436 368.701 601.346 371.007 604.181 378.564C606.327 384.18 607.772 383.541 608.282 387.808C609.063 393.855 606.121 397.746 608.028 400.876C609.471 403.348 611.992 402.407 612.857 405.134C613.801 407.653 612.386 410.698 612.305 410.906C610.729 414.367 607.212 415.403 603.373 417.273C603.373 417.273 598.089 419.782 589.38 427.432C586.135 430.249 580.672 435.082 576.907 442.965C573.546 449.807 575.793 450.196 571.945 461.398C569.933 466.606 567.534 474.059 561.94 481.714C559.079 485.398 558.661 485.236 555.639 489.336C550.784 496.32 547.437 504.364 548.32 505.183C549.074 505.714 552.498 500.572 560.643 494.38C566.074 490.252 567.486 490.319 568.193 490.352C570.07 491.077 570.806 493.515 572.386 503.701C574.237 515.666 575.098 521.505 574.821 525.946C574.156 532.632 573 533.143 572.142 540.951C571.995 542.57 571.817 544.895 570.434 547.234C568.97 549.781 567.686 550.004 567.251 551.751C566.333 554.748 570.007 556.406 569.635 559.853C569.31 563.797 563.993 567.011 563.254 567.683C553.198 573.856 544.874 565.616 539.715 571.524C537.995 573.494 538.428 574.857 536.049 577.291C533.382 579.852 530.443 580.633 527.874 581.077C523.234 581.919 522.721 580.764 520.119 581.914C516.731 583.239 516.599 586.061 512.373 590.175C506.588 595.842 502.222 595.354 495.457 602.318C494.637 603.198 493.448 604.415 493.624 605.201C494.056 606.565 500.255 604.17 501.701 603.531C512.734 599.172 515.002 594.542 523.401 592.038C527.993 590.699 526.724 592.124 533.805 590.548C543.536 588.32 545.577 585.517 551.228 585.783C552.85 585.93 557.842 586.66 561.546 590.724C565.251 594.787 563.37 597.173 566.482 600.289C570.475 604.225 576.737 603.53 584.167 606.637C584.793 606.879 585.836 607.282 585.979 608.773C586.426 611.34 582.939 614.782 582.2 615.454C578.344 619.232 574.731 619.274 574.424 621.31C574.15 622.64 575.9 623.076 575.625 624.406C575.22 628.559 560.688 632.046 560.491 636.279C560.264 638.107 562.929 638.657 562.655 639.987C561.689 642.487 548.897 638.986 545.36 645.041C544.346 647.044 545.068 648.28 544.168 649.369C542.078 651.674 537.378 647.706 525.984 643.068C522.021 641.538 519.726 640.652 516.37 641.272C515.085 641.494 511.232 642.161 508.081 645.972C505.831 648.694 506.392 650.347 504.705 651.611C501.331 654.139 498.464 647.287 491.207 648.076C486.727 648.502 486.307 651.452 480.093 652.644C478.021 653.041 476.4 652.894 474.552 654.575C472.705 656.255 472.606 658.372 471.512 660.583C469.197 664.716 465.698 663.844 461.168 666.883C452.927 672.081 452.966 681.911 446.88 683.392C444.728 683.998 442.642 683.192 439.512 681.984C435.548 680.454 435.533 679.251 433.078 678.782C428.503 678.213 425.77 682.186 423.299 680.514C421.037 678.922 422.438 674.675 420.977 674.111C417.848 672.903 409.706 692.742 405.003 691.884C402.049 691.462 402.907 683.654 398.654 682.252C397.194 681.688 395.54 682.247 392.407 684.149C380.826 691.169 374.987 702.561 371.938 701.145L372.758 700.264Z" stroke="white" stroke-width="8" mask="url(#path-1-inside-1_129_318)"/>
<mask id="path-2-inside-2_129_318" fill="white">
<path d="M367.064 671.395C365.513 671.853 365.162 669.711 362.271 669.44C358.194 668.958 356.857 673.001 353.465 674.843C347.381 678.04 338.814 671.865 336.988 670.438C327.675 663.641 324.247 652.021 319.44 652.877C317.888 653.334 316.642 654.825 316.155 654.126C315.333 653.246 318.815 648.851 317.688 646.938C316.561 645.025 312.318 646.837 305.442 648.303C297.197 649.891 290.063 651.433 287.141 647.243C284.629 643.492 287.137 637.701 284.9 635.835C283.332 634.332 280.686 636.796 277.112 638.972C274.055 640.996 262.375 648.088 255.816 643.005C251.829 639.97 253.454 635 249.133 631.784C243.167 626.806 233.373 633.623 228.75 638.915C225.998 641.972 223.733 645.727 222.715 647.992C218.99 654.423 219.341 656.565 216.407 659.956C212.408 664.503 206.795 666.438 205.41 664.601C204.101 663.022 208.494 656.955 206.881 654.344C205.267 651.732 200.675 656.173 195.425 652.669C192.26 650.515 192.198 647.446 189.185 645.808C185.837 643.988 184.119 646.74 179.389 647.854C170.003 650.34 160.203 642.844 157.297 640.613C153.309 637.579 153.598 636.652 147.51 630.307C139.186 622.095 134.834 619.73 129.279 615.192C121.822 608.971 105.507 592.73 107.009 581.622C107.949 574.328 118.703 571.719 139.771 566.911C148.456 564.912 152.381 564.878 156.581 566.727C163.899 569.621 165.088 574.604 172.848 577.088C180.866 579.495 181.898 574.42 187.589 577.513C193.615 580.789 194.074 587.109 204.712 597.445C206.69 599.388 209.749 602.135 212.335 601.373C214.404 600.763 214.57 598.469 216.533 598.451C218.495 598.434 219.515 600.94 223.837 604.157C225.998 605.765 229.239 608.178 230.562 606.946C231.444 606.124 231.535 603.572 231.001 601.764C229.783 597.633 225.523 597.485 219.862 593.54C215.54 590.324 212.846 586.908 209.741 583.052C206.971 579.378 199.3 569.57 200.789 566.044C202.719 562.107 215.971 566.059 218.545 572.878C219.002 574.428 219.277 576.311 220.662 578.148C222.047 579.985 224.649 581.183 225.79 580.285C227.113 579.053 225.072 574.042 225.772 573.555C226.806 573.25 229.532 580.586 234.812 583.239C236.744 584.073 238.783 584.314 238.966 583.979C239.254 583.052 232.711 579.929 221.77 573.331C205.732 563.745 203.038 560.329 196.07 559.576C190.289 559.035 189.788 561.148 185.923 559.48C178.27 556.404 176.227 546.621 169.865 538.392C165.375 532.699 161.921 531.472 143.114 522.983C106.429 506.292 100.357 501.907 99.1985 496.074C97.6891 488.099 106.084 482.255 102.887 476.181C101.303 472.719 98.2001 473.633 93.2389 469.202C92.828 468.762 85.1426 461.765 83.8917 453.714C82.4424 444.037 91.2804 442.554 94.9707 427.433C98.1599 414.423 94.1249 405.509 98.2161 403.18C103.266 400.288 109.858 414.062 117.586 412.626C126.941 410.991 124.103 389.935 135.481 386.581C137.808 385.895 145.535 384.459 153.082 388.128C154.756 389.038 157.434 390.494 160.614 389.837C164.051 389.105 164.993 386.581 166.833 385.197C173.464 380.997 184.624 400.722 205.425 413.114C216.031 419.53 218.906 417.841 227.002 425.278C235.844 433.337 234.583 437.638 242.543 446.518C250.016 454.7 259.83 459.385 279.976 468.602C288.71 472.483 295.024 474.831 301.311 482.801C306.623 489.375 308.451 495.572 308.968 495.42C309.485 495.267 305.919 480.32 296.255 471.381C290.883 466.509 287.856 467.682 280.902 464.119C264.21 456.129 253.827 436.175 251.345 431.573C242.393 414.566 245.813 407.102 236.772 397.418C234.306 394.776 229.421 390.603 228.78 384.617C228.611 382.141 228.99 378.661 230.648 377.611C236.032 374.901 249.429 396.493 250.569 395.595C251.451 394.774 242.319 382.872 234.872 364.297C226.938 345.024 226.202 332.05 218.32 328.198C214.044 326.091 213.331 329.389 209.055 327.281C201.097 323.172 201.167 309.117 190.75 280.473C186.394 268.565 185.465 268.277 183.744 261.488C180.711 248.348 181.923 238.167 183.06 227.728C184.333 215.845 187.265 207.683 192.872 191.435C194.863 185.796 196.641 181.343 200.549 179.348C203.759 177.841 205.844 179.191 207.379 176.774C210.344 172.531 205.685 164.362 208.073 161.974C210.019 159.997 213.657 165.661 219.955 166.049C227.029 166.209 228.304 159.097 234.649 160.595C238.878 161.593 240.021 165.467 243.018 165.144C246.532 164.67 246.043 159.201 250.469 157.054C253.161 155.699 254.47 157.278 259.353 156.68C263.977 156.159 265.665 154.258 267.992 153.572C275.75 151.285 289.766 162.59 294.396 176.381C298.722 189.14 291.544 194.343 296.738 209.091C299.692 217.201 301.867 215.999 305.918 226.874C309.893 237.49 310.292 245.512 314.568 247.619C315.572 248.165 317.352 248.483 318.417 247.327C320.728 244.681 316.921 236.541 313.646 225.437C310.37 214.334 306.973 201.863 310.406 191.589C310.877 190.327 313.84 181.315 321.704 178.435C328.61 176.119 335.046 179.834 337.131 181.185C343.902 185.082 343.6 188.82 351.862 193.963C358.04 197.755 358.953 196.083 362.575 199.786C367.765 204.992 367.813 210.872 371.936 212.464C375.131 213.767 376.849 211.015 379.68 212.987C382.434 214.701 383.318 218.651 383.394 218.909C384.43 223.375 381.83 226.948 379.535 231.554C379.535 231.554 376.328 237.833 373.626 251.54C372.594 256.616 370.924 265.248 373.119 275.547C374.933 284.555 377.366 283.276 381.921 296.809C383.825 303.264 387.008 312.149 387.287 323.575C387.259 329.197 386.742 329.349 386.866 335.487C387.357 345.727 390.069 355.874 391.515 356.009C392.625 355.962 392.12 348.533 395.355 336.633C397.512 328.7 398.911 327.726 399.611 327.239C401.938 326.553 404.434 328.344 413.428 336.919C423.99 346.997 429.104 351.945 432.103 356.393C436.38 363.272 435.651 364.61 440.568 372.703C441.618 374.358 443.156 376.711 443.553 379.962C444.026 383.472 442.961 384.627 443.829 386.617C445.154 390.156 449.885 389.042 452.062 392.61C454.65 396.619 451.93 403.595 451.717 404.781C446.642 418.065 432.63 416.302 432.041 425.738C431.844 428.883 433.259 429.869 432.774 433.941C432.107 438.348 429.872 441.253 427.743 443.564C423.926 447.777 422.587 447.049 420.946 450.059C418.68 453.814 420.629 456.608 419.613 463.644C418.247 473.308 413.715 476.048 412.366 487.672C412.23 489.116 411.987 491.152 412.733 491.774C414.148 492.76 418.314 485.919 419.226 484.247C426.568 471.978 425.334 465.886 431.522 457.326C434.927 452.673 434.761 454.968 440.372 448.262C448.035 438.986 447.927 434.807 453.523 430.912C455.181 429.862 460.489 426.894 467.016 428.057C473.543 429.22 473.499 432.882 478.763 433.576C485.472 434.405 490.946 429.142 500.331 426.656C501.107 426.427 502.4 426.046 503.633 427.367C505.946 429.491 505.142 435.342 504.93 436.527C504.02 442.97 500.598 445.663 501.801 447.834C502.516 449.307 504.509 448.439 505.225 449.912C507.889 454.179 496.561 468.184 499.484 472.375C500.61 474.288 503.561 472.857 504.276 474.33C505.191 477.428 490.391 483.475 491.459 491.861C491.963 494.52 493.56 495.171 493.5 496.873C493.198 500.611 485.789 500.269 471.49 504.204C466.577 505.652 463.733 506.491 460.981 509.547C459.916 510.703 456.723 514.171 456.512 520.127C456.362 524.381 458.112 525.549 457.428 527.996C456.061 532.89 448.286 528.446 441.929 534.53C437.96 538.226 439.726 541.354 434.663 547.057C432.975 548.958 431.317 550.008 430.786 552.971C430.255 555.935 431.716 558.03 432.295 560.947C433.119 566.598 429.134 568.334 427.038 574.566C422.981 585.585 430.241 594.952 425.512 600.837C423.901 602.996 421.315 603.758 417.436 604.902C412.523 606.35 411.625 605.212 408.933 606.567C404.142 609.382 404.449 615.186 400.859 615.403C397.527 615.543 395.745 610.455 393.935 610.988C390.056 612.132 396.851 637.073 391.726 639.707C388.593 641.472 383.676 633.379 378.58 635.162C376.77 635.696 375.599 637.444 374.004 641.563C368.092 656.778 370.883 671.954 366.928 672.839L367.064 671.395Z"/>
</mask>
<path d="M367.064 671.395C365.513 671.853 365.162 669.711 362.271 669.44C358.194 668.958 356.857 673.001 353.465 674.843C347.381 678.04 338.814 671.865 336.988 670.438C327.675 663.641 324.247 652.021 319.44 652.877C317.888 653.334 316.642 654.825 316.155 654.126C315.333 653.246 318.815 648.851 317.688 646.938C316.561 645.025 312.318 646.837 305.442 648.303C297.197 649.891 290.063 651.433 287.141 647.243C284.629 643.492 287.137 637.701 284.9 635.835C283.332 634.332 280.686 636.796 277.112 638.972C274.055 640.996 262.375 648.088 255.816 643.005C251.829 639.97 253.454 635 249.133 631.784C243.167 626.806 233.373 633.623 228.75 638.915C225.998 641.972 223.733 645.727 222.715 647.992C218.99 654.423 219.341 656.565 216.407 659.956C212.408 664.503 206.795 666.438 205.41 664.601C204.101 663.022 208.494 656.955 206.881 654.344C205.267 651.732 200.675 656.173 195.425 652.669C192.26 650.515 192.198 647.446 189.185 645.808C185.837 643.988 184.119 646.74 179.389 647.854C170.003 650.34 160.203 642.844 157.297 640.613C153.309 637.579 153.598 636.652 147.51 630.307C139.186 622.095 134.834 619.73 129.279 615.192C121.822 608.971 105.507 592.73 107.009 581.622C107.949 574.328 118.703 571.719 139.771 566.911C148.456 564.912 152.381 564.878 156.581 566.727C163.899 569.621 165.088 574.604 172.848 577.088C180.866 579.495 181.898 574.42 187.589 577.513C193.615 580.789 194.074 587.109 204.712 597.445C206.69 599.388 209.749 602.135 212.335 601.373C214.404 600.763 214.57 598.469 216.533 598.451C218.495 598.434 219.515 600.94 223.837 604.157C225.998 605.765 229.239 608.178 230.562 606.946C231.444 606.124 231.535 603.572 231.001 601.764C229.783 597.633 225.523 597.485 219.862 593.54C215.54 590.324 212.846 586.908 209.741 583.052C206.971 579.378 199.3 569.57 200.789 566.044C202.719 562.107 215.971 566.059 218.545 572.878C219.002 574.428 219.277 576.311 220.662 578.148C222.047 579.985 224.649 581.183 225.79 580.285C227.113 579.053 225.072 574.042 225.772 573.555C226.806 573.25 229.532 580.586 234.812 583.239C236.744 584.073 238.783 584.314 238.966 583.979C239.254 583.052 232.711 579.929 221.77 573.331C205.732 563.745 203.038 560.329 196.07 559.576C190.289 559.035 189.788 561.148 185.923 559.48C178.27 556.404 176.227 546.621 169.865 538.392C165.375 532.699 161.921 531.472 143.114 522.983C106.429 506.292 100.357 501.907 99.1985 496.074C97.6891 488.099 106.084 482.255 102.887 476.181C101.303 472.719 98.2001 473.633 93.2389 469.202C92.828 468.762 85.1426 461.765 83.8917 453.714C82.4424 444.037 91.2804 442.554 94.9707 427.433C98.1599 414.423 94.1249 405.509 98.2161 403.18C103.266 400.288 109.858 414.062 117.586 412.626C126.941 410.991 124.103 389.935 135.481 386.581C137.808 385.895 145.535 384.459 153.082 388.128C154.756 389.038 157.434 390.494 160.614 389.837C164.051 389.105 164.993 386.581 166.833 385.197C173.464 380.997 184.624 400.722 205.425 413.114C216.031 419.53 218.906 417.841 227.002 425.278C235.844 433.337 234.583 437.638 242.543 446.518C250.016 454.7 259.83 459.385 279.976 468.602C288.71 472.483 295.024 474.831 301.311 482.801C306.623 489.375 308.451 495.572 308.968 495.42C309.485 495.267 305.919 480.32 296.255 471.381C290.883 466.509 287.856 467.682 280.902 464.119C264.21 456.129 253.827 436.175 251.345 431.573C242.393 414.566 245.813 407.102 236.772 397.418C234.306 394.776 229.421 390.603 228.78 384.617C228.611 382.141 228.99 378.661 230.648 377.611C236.032 374.901 249.429 396.493 250.569 395.595C251.451 394.774 242.319 382.872 234.872 364.297C226.938 345.024 226.202 332.05 218.32 328.198C214.044 326.091 213.331 329.389 209.055 327.281C201.097 323.172 201.167 309.117 190.75 280.473C186.394 268.565 185.465 268.277 183.744 261.488C180.711 248.348 181.923 238.167 183.06 227.728C184.333 215.845 187.265 207.683 192.872 191.435C194.863 185.796 196.641 181.343 200.549 179.348C203.759 177.841 205.844 179.191 207.379 176.774C210.344 172.531 205.685 164.362 208.073 161.974C210.019 159.997 213.657 165.661 219.955 166.049C227.029 166.209 228.304 159.097 234.649 160.595C238.878 161.593 240.021 165.467 243.018 165.144C246.532 164.67 246.043 159.201 250.469 157.054C253.161 155.699 254.47 157.278 259.353 156.68C263.977 156.159 265.665 154.258 267.992 153.572C275.75 151.285 289.766 162.59 294.396 176.381C298.722 189.14 291.544 194.343 296.738 209.091C299.692 217.201 301.867 215.999 305.918 226.874C309.893 237.49 310.292 245.512 314.568 247.619C315.572 248.165 317.352 248.483 318.417 247.327C320.728 244.681 316.921 236.541 313.646 225.437C310.37 214.334 306.973 201.863 310.406 191.589C310.877 190.327 313.84 181.315 321.704 178.435C328.61 176.119 335.046 179.834 337.131 181.185C343.902 185.082 343.6 188.82 351.862 193.963C358.04 197.755 358.953 196.083 362.575 199.786C367.765 204.992 367.813 210.872 371.936 212.464C375.131 213.767 376.849 211.015 379.68 212.987C382.434 214.701 383.318 218.651 383.394 218.909C384.43 223.375 381.83 226.948 379.535 231.554C379.535 231.554 376.328 237.833 373.626 251.54C372.594 256.616 370.924 265.248 373.119 275.547C374.933 284.555 377.366 283.276 381.921 296.809C383.825 303.264 387.008 312.149 387.287 323.575C387.259 329.197 386.742 329.349 386.866 335.487C387.357 345.727 390.069 355.874 391.515 356.009C392.625 355.962 392.12 348.533 395.355 336.633C397.512 328.7 398.911 327.726 399.611 327.239C401.938 326.553 404.434 328.344 413.428 336.919C423.99 346.997 429.104 351.945 432.103 356.393C436.38 363.272 435.651 364.61 440.568 372.703C441.618 374.358 443.156 376.711 443.553 379.962C444.026 383.472 442.961 384.627 443.829 386.617C445.154 390.156 449.885 389.042 452.062 392.61C454.65 396.619 451.93 403.595 451.717 404.781C446.642 418.065 432.63 416.302 432.041 425.738C431.844 428.883 433.259 429.869 432.774 433.941C432.107 438.348 429.872 441.253 427.743 443.564C423.926 447.777 422.587 447.049 420.946 450.059C418.68 453.814 420.629 456.608 419.613 463.644C418.247 473.308 413.715 476.048 412.366 487.672C412.23 489.116 411.987 491.152 412.733 491.774C414.148 492.76 418.314 485.919 419.226 484.247C426.568 471.978 425.334 465.886 431.522 457.326C434.927 452.673 434.761 454.968 440.372 448.262C448.035 438.986 447.927 434.807 453.523 430.912C455.181 429.862 460.489 426.894 467.016 428.057C473.543 429.22 473.499 432.882 478.763 433.576C485.472 434.405 490.946 429.142 500.331 426.656C501.107 426.427 502.4 426.046 503.633 427.367C505.946 429.491 505.142 435.342 504.93 436.527C504.02 442.97 500.598 445.663 501.801 447.834C502.516 449.307 504.509 448.439 505.225 449.912C507.889 454.179 496.561 468.184 499.484 472.375C500.61 474.288 503.561 472.857 504.276 474.33C505.191 477.428 490.391 483.475 491.459 491.861C491.963 494.52 493.56 495.171 493.5 496.873C493.198 500.611 485.789 500.269 471.49 504.204C466.577 505.652 463.733 506.491 460.981 509.547C459.916 510.703 456.723 514.171 456.512 520.127C456.362 524.381 458.112 525.549 457.428 527.996C456.061 532.89 448.286 528.446 441.929 534.53C437.96 538.226 439.726 541.354 434.663 547.057C432.975 548.958 431.317 550.008 430.786 552.971C430.255 555.935 431.716 558.03 432.295 560.947C433.119 566.598 429.134 568.334 427.038 574.566C422.981 585.585 430.241 594.952 425.512 600.837C423.901 602.996 421.315 603.758 417.436 604.902C412.523 606.35 411.625 605.212 408.933 606.567C404.142 609.382 404.449 615.186 400.859 615.403C397.527 615.543 395.745 610.455 393.935 610.988C390.056 612.132 396.851 637.073 391.726 639.707C388.593 641.472 383.676 633.379 378.58 635.162C376.77 635.696 375.599 637.444 374.004 641.563C368.092 656.778 370.883 671.954 366.928 672.839L367.064 671.395Z" stroke="white" stroke-width="8" mask="url(#path-2-inside-2_129_318)"/>
<mask id="path-3-inside-3_129_318" fill="white">
<path d="M349.548 493.591C348.264 493.095 349.138 491.468 347.328 489.787C344.826 487.348 341.827 489.383 338.583 488.868C332.819 487.872 330.241 479.264 329.748 477.355C326.989 467.941 330.703 458.322 327.016 456.408C325.732 455.913 324.117 456.272 324.151 455.548C324.053 454.528 328.682 453.368 328.914 451.493C329.146 449.617 325.342 448.641 319.943 446.066C313.555 442.864 307.941 440.207 308.142 435.864C308.393 432.031 313.089 429.423 312.547 427.004C312.269 425.177 309.205 425.468 305.665 425.084C302.552 424.865 290.991 423.597 289.202 416.767C288.085 412.652 291.76 410.141 290.512 405.73C289.069 399.279 278.923 398.802 273.059 399.977C269.616 400.613 266.14 401.973 264.278 402.974C258.429 405.383 257.555 407.01 253.816 407.777C248.758 408.773 243.967 407.169 243.985 405.212C243.921 403.468 250.033 401.651 250.298 399.053C250.564 396.454 245.161 397.07 243.436 391.984C242.418 388.89 243.968 386.786 242.785 384.119C241.469 381.156 238.883 382.123 235.113 380.422C227.49 377.235 224.765 367.097 223.96 364.085C222.844 359.97 223.519 359.494 222.702 352.057C221.344 342.201 219.634 338.348 218.239 332.407C216.434 324.343 213.849 304.927 220.624 298.209C225.042 293.774 233.652 297.588 250.363 305.265C257.261 308.418 259.927 310.429 261.802 313.854C265.239 319.601 263.457 323.579 267.405 329.278C271.567 335.059 274.896 332.169 277.132 337.206C279.499 342.54 276.53 347.043 278.348 359.532C278.675 361.869 279.315 365.308 281.455 366.134C283.167 366.795 284.47 365.333 285.803 366.338C287.136 367.344 286.525 369.564 287.773 373.975C288.397 376.18 289.333 379.489 290.865 379.343C291.886 379.246 293.271 377.57 293.848 376.074C295.169 372.654 292.371 370.347 290.597 364.75C289.349 360.34 289.303 356.638 289.208 352.426C289.244 348.511 289.154 337.916 291.989 336.309C295.333 334.652 302.226 344.189 300.426 350.125C299.931 351.407 299.139 352.82 299.121 354.778C299.102 356.736 300.237 358.893 301.472 358.878C303.004 358.733 304.227 354.293 304.951 354.327C305.808 354.657 303.842 361.021 306.029 365.548C306.9 367.112 308.151 368.332 308.448 368.201C309.123 367.725 306.328 362.225 302.368 352.102C296.517 337.319 296.471 333.618 292.159 329.498C288.539 326.136 287.105 327.302 285.361 324.174C281.793 318.13 285.489 310.47 285.463 301.619C285.386 295.45 283.692 292.832 275.404 277.354C259.306 247.075 257.483 240.969 259.727 236.432C262.845 230.268 271.541 230.676 272.534 224.92C273.262 221.762 270.693 220.771 269.644 215.209C269.595 214.699 268.038 205.994 271.37 199.912C275.411 192.631 282.145 196.212 292.478 187.92C301.378 180.795 303.279 172.687 307.248 173.237C312.156 173.902 309.46 186.615 315.42 189.651C322.581 193.397 331.587 177.717 341.005 181.351C342.931 182.095 348.891 185.131 352.08 191.519C352.738 193.001 353.79 195.372 356.276 196.577C358.976 197.864 360.92 196.65 362.88 196.669C369.533 197.272 366.832 216.368 374.442 235.512C378.271 245.34 381.087 245.69 382.693 254.905C384.479 264.927 381.398 267.176 382.163 277.294C382.962 286.689 387.155 294.938 395.968 311.6C399.849 318.746 402.892 323.604 403 332.241C403.175 339.431 401.194 344.56 401.622 344.726C402.05 344.891 407.397 332.956 405.512 321.914C404.414 315.842 401.763 315.064 398.919 309.055C391.799 295.011 395.142 276.163 395.854 271.772C398.635 255.654 404.814 252.39 403.737 241.169C403.443 238.109 402.311 232.76 404.983 228.389C406.154 226.63 408.215 224.478 409.878 224.629C414.917 225.591 412.757 247.106 413.993 247.091C415.014 246.994 415.025 234.228 419.634 217.834C424.277 200.716 430.51 191.579 427.189 184.894C425.397 181.256 423.205 183.111 421.413 179.473C418.174 172.574 425.511 163.127 433.339 138.397C436.576 128.104 436.099 127.428 438.459 121.954C443.228 111.515 449.327 105.273 455.509 98.8177C462.532 91.4588 468.744 87.4711 480.955 79.4131C485.224 76.6397 488.733 74.556 492.406 75.2363C495.353 75.8826 496.06 77.8744 498.35 77.039C502.551 75.7132 503.645 67.7855 506.494 67.4117C508.833 67.0864 508.351 72.7941 512.399 76.3211C517.09 80.0959 521.639 75.9575 525.144 80.2568C527.48 83.123 526.242 86.329 528.431 87.665C531.049 89.1663 533.556 85.222 537.656 86.0676C540.175 86.5486 540.24 88.2925 543.845 90.4205C547.236 92.4658 549.361 92.0579 551.287 92.8013C557.708 95.2792 561.303 110.173 557.274 121.88C553.575 132.732 546.032 132.522 541.887 145.167C539.674 152.171 541.766 152.487 538.859 161.926C536.035 171.15 532.143 176.77 533.935 180.409C534.33 181.298 535.366 182.435 536.684 182.206C539.616 181.619 541.27 174.153 544.818 164.962C548.367 155.772 552.543 145.595 560.19 140.441C561.162 139.834 567.836 135.288 574.636 137.421C580.498 139.437 582.914 145.282 583.621 147.273C586.168 153.414 584.025 155.779 586.934 163.532C589.136 169.294 590.618 168.638 591.142 173.015C591.943 179.218 588.926 183.211 590.883 186.422C592.363 188.958 594.95 187.991 595.837 190.789C596.806 193.374 595.354 196.497 595.272 196.711C593.655 200.262 590.047 201.325 586.109 203.244C586.109 203.244 580.688 205.818 571.754 213.667C568.425 216.558 562.821 221.517 558.96 229.605C555.512 236.624 557.817 237.022 553.871 248.515C551.808 253.859 549.347 261.505 543.609 269.359C540.674 273.138 540.246 272.973 537.146 277.179C532.166 284.344 528.733 292.597 529.638 293.438C530.412 293.982 533.924 288.707 542.28 282.353C547.85 278.118 549.3 278.186 550.024 278.22C551.951 278.963 552.706 281.465 554.328 291.914C556.228 304.19 557.112 310.179 556.828 314.736C556.147 321.595 554.961 322.119 554.081 330.13C553.931 331.791 553.748 334.176 552.33 336.576C550.829 339.189 549.511 339.417 549.065 341.21C548.123 344.285 551.893 345.985 551.511 349.521C551.178 353.568 545.724 356.866 544.966 357.556C534.65 363.889 526.11 355.436 520.817 361.498C519.053 363.519 519.497 364.918 517.057 367.415C514.321 370.042 511.306 370.844 508.671 371.3C503.91 372.164 503.384 370.979 500.715 372.159C497.239 373.519 497.104 376.415 492.769 380.636C486.835 386.45 482.356 385.949 475.416 393.094C474.575 393.998 473.355 395.246 473.535 396.053C473.979 397.452 480.338 394.994 481.821 394.338C493.14 389.865 495.466 385.115 504.082 382.546C508.794 381.171 507.492 382.633 514.756 381.016C524.739 378.729 526.833 375.853 532.63 376.126C534.294 376.276 539.415 377.025 543.216 381.193C547.017 385.361 545.088 387.809 548.281 391.006C552.378 395.043 558.802 394.329 566.425 397.517C567.067 397.764 568.137 398.177 568.284 399.708C568.743 402.341 565.166 405.872 564.408 406.562C560.452 410.438 556.746 410.481 556.431 412.57C556.15 413.935 557.945 414.382 557.664 415.747C557.248 420.007 542.34 423.586 542.138 427.929C541.906 429.804 544.64 430.368 544.359 431.733C543.368 434.297 530.245 430.707 526.616 436.919C525.577 438.974 526.317 440.242 525.393 441.359C523.25 443.725 518.428 439.654 506.738 434.897C502.672 433.328 500.317 432.419 496.875 433.055C495.557 433.284 491.603 433.968 488.372 437.878C486.064 440.671 486.639 442.367 484.908 443.664C481.447 446.257 478.505 439.228 471.06 440.039C466.465 440.476 466.034 443.502 459.659 444.726C457.534 445.134 455.87 444.983 453.975 446.707C452.079 448.432 451.979 450.603 450.857 452.871C448.481 457.112 444.892 456.218 440.245 459.336C431.791 464.669 431.832 474.754 425.588 476.274C423.381 476.896 421.24 476.07 418.03 474.831C413.963 473.261 413.947 472.027 411.428 471.546C406.735 470.963 403.931 475.039 401.396 473.324C399.075 471.691 400.512 467.334 399.014 466.756C395.803 465.517 387.452 485.87 382.627 484.99C379.597 484.558 380.477 476.548 376.113 475.109C374.615 474.531 372.918 475.104 369.705 477.057C357.824 484.26 351.835 495.947 348.707 494.494L349.548 493.591Z"/>
</mask>
<path d="M349.548 493.591C348.264 493.095 349.138 491.468 347.328 489.787C344.826 487.348 341.827 489.383 338.583 488.868C332.819 487.872 330.241 479.264 329.748 477.355C326.989 467.941 330.703 458.322 327.016 456.408C325.732 455.913 324.117 456.272 324.151 455.548C324.053 454.528 328.682 453.368 328.914 451.493C329.146 449.617 325.342 448.641 319.943 446.066C313.555 442.864 307.941 440.207 308.142 435.864C308.393 432.031 313.089 429.423 312.547 427.004C312.269 425.177 309.205 425.468 305.665 425.084C302.552 424.865 290.991 423.597 289.202 416.767C288.085 412.652 291.76 410.141 290.512 405.73C289.069 399.279 278.923 398.802 273.059 399.977C269.616 400.613 266.14 401.973 264.278 402.974C258.429 405.383 257.555 407.01 253.816 407.777C248.758 408.773 243.967 407.169 243.985 405.212C243.921 403.468 250.033 401.651 250.298 399.053C250.564 396.454 245.161 397.07 243.436 391.984C242.418 388.89 243.968 386.786 242.785 384.119C241.469 381.156 238.883 382.123 235.113 380.422C227.49 377.235 224.765 367.097 223.96 364.085C222.844 359.97 223.519 359.494 222.702 352.057C221.344 342.201 219.634 338.348 218.239 332.407C216.434 324.343 213.849 304.927 220.624 298.209C225.042 293.774 233.652 297.588 250.363 305.265C257.261 308.418 259.927 310.429 261.802 313.854C265.239 319.601 263.457 323.579 267.405 329.278C271.567 335.059 274.896 332.169 277.132 337.206C279.499 342.54 276.53 347.043 278.348 359.532C278.675 361.869 279.315 365.308 281.455 366.134C283.167 366.795 284.47 365.333 285.803 366.338C287.136 367.344 286.525 369.564 287.773 373.975C288.397 376.18 289.333 379.489 290.865 379.343C291.886 379.246 293.271 377.57 293.848 376.074C295.169 372.654 292.371 370.347 290.597 364.75C289.349 360.34 289.303 356.638 289.208 352.426C289.244 348.511 289.154 337.916 291.989 336.309C295.333 334.652 302.226 344.189 300.426 350.125C299.931 351.407 299.139 352.82 299.121 354.778C299.102 356.736 300.237 358.893 301.472 358.878C303.004 358.733 304.227 354.293 304.951 354.327C305.808 354.657 303.842 361.021 306.029 365.548C306.9 367.112 308.151 368.332 308.448 368.201C309.123 367.725 306.328 362.225 302.368 352.102C296.517 337.319 296.471 333.618 292.159 329.498C288.539 326.136 287.105 327.302 285.361 324.174C281.793 318.13 285.489 310.47 285.463 301.619C285.386 295.45 283.692 292.832 275.404 277.354C259.306 247.075 257.483 240.969 259.727 236.432C262.845 230.268 271.541 230.676 272.534 224.92C273.262 221.762 270.693 220.771 269.644 215.209C269.595 214.699 268.038 205.994 271.37 199.912C275.411 192.631 282.145 196.212 292.478 187.92C301.378 180.795 303.279 172.687 307.248 173.237C312.156 173.902 309.46 186.615 315.42 189.651C322.581 193.397 331.587 177.717 341.005 181.351C342.931 182.095 348.891 185.131 352.08 191.519C352.738 193.001 353.79 195.372 356.276 196.577C358.976 197.864 360.92 196.65 362.88 196.669C369.533 197.272 366.832 216.368 374.442 235.512C378.271 245.34 381.087 245.69 382.693 254.905C384.479 264.927 381.398 267.176 382.163 277.294C382.962 286.689 387.155 294.938 395.968 311.6C399.849 318.746 402.892 323.604 403 332.241C403.175 339.431 401.194 344.56 401.622 344.726C402.05 344.891 407.397 332.956 405.512 321.914C404.414 315.842 401.763 315.064 398.919 309.055C391.799 295.011 395.142 276.163 395.854 271.772C398.635 255.654 404.814 252.39 403.737 241.169C403.443 238.109 402.311 232.76 404.983 228.389C406.154 226.63 408.215 224.478 409.878 224.629C414.917 225.591 412.757 247.106 413.993 247.091C415.014 246.994 415.025 234.228 419.634 217.834C424.277 200.716 430.51 191.579 427.189 184.894C425.397 181.256 423.205 183.111 421.413 179.473C418.174 172.574 425.511 163.127 433.339 138.397C436.576 128.104 436.099 127.428 438.459 121.954C443.228 111.515 449.327 105.273 455.509 98.8177C462.532 91.4588 468.744 87.4711 480.955 79.4131C485.224 76.6397 488.733 74.556 492.406 75.2363C495.353 75.8826 496.06 77.8744 498.35 77.039C502.551 75.7132 503.645 67.7855 506.494 67.4117C508.833 67.0864 508.351 72.7941 512.399 76.3211C517.09 80.0959 521.639 75.9575 525.144 80.2568C527.48 83.123 526.242 86.329 528.431 87.665C531.049 89.1663 533.556 85.222 537.656 86.0676C540.175 86.5486 540.24 88.2925 543.845 90.4205C547.236 92.4658 549.361 92.0579 551.287 92.8013C557.708 95.2792 561.303 110.173 557.274 121.88C553.575 132.732 546.032 132.522 541.887 145.167C539.674 152.171 541.766 152.487 538.859 161.926C536.035 171.15 532.143 176.77 533.935 180.409C534.33 181.298 535.366 182.435 536.684 182.206C539.616 181.619 541.27 174.153 544.818 164.962C548.367 155.772 552.543 145.595 560.19 140.441C561.162 139.834 567.836 135.288 574.636 137.421C580.498 139.437 582.914 145.282 583.621 147.273C586.168 153.414 584.025 155.779 586.934 163.532C589.136 169.294 590.618 168.638 591.142 173.015C591.943 179.218 588.926 183.211 590.883 186.422C592.363 188.958 594.95 187.991 595.837 190.789C596.806 193.374 595.354 196.497 595.272 196.711C593.655 200.262 590.047 201.325 586.109 203.244C586.109 203.244 580.688 205.818 571.754 213.667C568.425 216.558 562.821 221.517 558.96 229.605C555.512 236.624 557.817 237.022 553.871 248.515C551.808 253.859 549.347 261.505 543.609 269.359C540.674 273.138 540.246 272.973 537.146 277.179C532.166 284.344 528.733 292.597 529.638 293.438C530.412 293.982 533.924 288.707 542.28 282.353C547.85 278.118 549.3 278.186 550.024 278.22C551.951 278.963 552.706 281.465 554.328 291.914C556.228 304.19 557.112 310.179 556.828 314.736C556.147 321.595 554.961 322.119 554.081 330.13C553.931 331.791 553.748 334.176 552.33 336.576C550.829 339.189 549.511 339.417 549.065 341.21C548.123 344.285 551.893 345.985 551.511 349.521C551.178 353.568 545.724 356.866 544.966 357.556C534.65 363.889 526.11 355.436 520.817 361.498C519.053 363.519 519.497 364.918 517.057 367.415C514.321 370.042 511.306 370.844 508.671 371.3C503.91 372.164 503.384 370.979 500.715 372.159C497.239 373.519 497.104 376.415 492.769 380.636C486.835 386.45 482.356 385.949 475.416 393.094C474.575 393.998 473.355 395.246 473.535 396.053C473.979 397.452 480.338 394.994 481.821 394.338C493.14 389.865 495.466 385.115 504.082 382.546C508.794 381.171 507.492 382.633 514.756 381.016C524.739 378.729 526.833 375.853 532.63 376.126C534.294 376.276 539.415 377.025 543.216 381.193C547.017 385.361 545.088 387.809 548.281 391.006C552.378 395.043 558.802 394.329 566.425 397.517C567.067 397.764 568.137 398.177 568.284 399.708C568.743 402.341 565.166 405.872 564.408 406.562C560.452 410.438 556.746 410.481 556.431 412.57C556.15 413.935 557.945 414.382 557.664 415.747C557.248 420.007 542.34 423.586 542.138 427.929C541.906 429.804 544.64 430.368 544.359 431.733C543.368 434.297 530.245 430.707 526.616 436.919C525.577 438.974 526.317 440.242 525.393 441.359C523.25 443.725 518.428 439.654 506.738 434.897C502.672 433.328 500.317 432.419 496.875 433.055C495.557 433.284 491.603 433.968 488.372 437.878C486.064 440.671 486.639 442.367 484.908 443.664C481.447 446.257 478.505 439.228 471.06 440.039C466.465 440.476 466.034 443.502 459.659 444.726C457.534 445.134 455.87 444.983 453.975 446.707C452.079 448.432 451.979 450.603 450.857 452.871C448.481 457.112 444.892 456.218 440.245 459.336C431.791 464.669 431.832 474.754 425.588 476.274C423.381 476.896 421.24 476.07 418.03 474.831C413.963 473.261 413.947 472.027 411.428 471.546C406.735 470.963 403.931 475.039 401.396 473.324C399.075 471.691 400.512 467.334 399.014 466.756C395.803 465.517 387.452 485.87 382.627 484.99C379.597 484.558 380.477 476.548 376.113 475.109C374.615 474.531 372.918 475.104 369.705 477.057C357.824 484.26 351.835 495.947 348.707 494.494L349.548 493.591Z" stroke="white" stroke-width="8" mask="url(#path-3-inside-3_129_318)"/>
</svg>
