<svg width="625" height="761" viewBox="0 0 625 761" fill="none" xmlns="http://www.w3.org/2000/svg">
<path d="M372.649 699.408C371.397 698.925 372.249 697.339 370.485 695.7C368.047 693.323 365.123 695.306 361.961 694.804C356.343 693.832 353.831 685.441 353.351 683.58C350.663 674.403 354.284 665.029 350.689 663.162C349.438 662.679 347.864 663.029 347.897 662.324C347.801 661.329 352.314 660.199 352.54 658.371C352.767 656.543 349.059 655.591 343.796 653.08C337.57 649.959 332.098 647.368 332.294 643.135C332.539 639.399 337.117 636.857 336.589 634.499C336.318 632.718 333.332 633.002 329.881 632.627C326.846 632.414 315.578 631.176 313.834 624.518C312.746 620.507 316.329 618.06 315.113 613.76C313.706 607.472 303.817 607.006 298.101 608.151C294.745 608.771 291.356 610.096 289.541 611.071C283.84 613.419 282.988 615.005 279.343 615.752C274.413 616.722 269.743 615.159 269.761 613.251C269.698 611.551 275.656 609.781 275.915 607.248C276.174 604.714 270.908 605.315 269.227 600.357C268.235 597.341 269.746 595.291 268.592 592.691C267.311 589.802 264.789 590.744 261.115 589.086C253.685 585.979 251.029 576.096 250.245 573.16C249.158 569.15 249.816 568.686 249.021 561.436C247.697 551.829 246.031 548.074 244.672 542.282C242.914 534.422 240.395 515.496 247 508.948C251.307 504.626 259.699 508.344 275.987 515.829C282.711 518.903 285.309 520.863 287.136 524.202C290.486 529.804 288.749 533.682 292.596 539.237C296.653 544.872 299.898 542.055 302.077 546.966C304.384 552.165 301.49 556.554 303.26 568.728C303.579 571.006 304.202 574.358 306.288 575.164C307.957 575.808 309.227 574.383 310.526 575.363C311.826 576.344 311.23 578.507 312.446 582.807C313.054 584.957 313.966 588.182 315.459 588.04C316.454 587.945 317.804 586.312 318.368 584.854C319.655 581.52 316.928 579.271 315.199 573.816C313.983 569.516 313.939 565.908 313.846 561.803C313.882 557.986 313.796 547.659 316.559 546.092C319.819 544.478 326.537 553.774 324.781 559.56C324.298 560.81 323.526 562.188 323.509 564.096C323.491 566.004 324.597 568.107 325.801 568.093C327.294 567.951 328.486 563.624 329.192 563.657C330.027 563.979 328.11 570.182 330.241 574.595C331.091 576.12 332.31 577.308 332.599 577.181C333.257 576.717 330.533 571.356 326.674 561.488C320.972 547.078 320.928 543.47 316.725 539.454C313.197 536.177 311.799 537.313 310.1 534.263C306.622 528.372 310.225 520.906 310.201 512.279C310.127 506.265 308.476 503.713 300.399 488.625C284.71 459.109 282.934 453.157 285.122 448.735C288.162 442.727 296.638 443.126 297.607 437.515C298.316 434.437 295.812 433.471 294.79 428.049C294.742 427.552 293.226 419.067 296.474 413.139C300.414 406.042 306.977 409.533 317.051 401.452C325.726 394.507 327.58 386.605 331.449 387.14C336.232 387.79 333.603 400.181 339.412 403.141C346.392 406.793 355.172 391.51 364.352 395.054C366.23 395.778 372.038 398.739 375.147 404.966C375.788 406.41 376.813 408.721 379.236 409.896C381.867 411.151 383.763 409.967 385.673 409.987C392.159 410.575 389.524 429.188 396.939 447.85C400.67 457.43 403.415 457.771 404.98 466.754C406.72 476.522 403.716 478.714 404.461 488.577C405.239 497.735 409.325 505.776 417.915 522.018C421.697 528.984 424.662 533.72 424.767 542.139C424.936 549.146 423.005 554.146 423.422 554.307C423.84 554.469 429.052 542.835 427.216 532.072C426.147 526.153 423.562 525.395 420.791 519.538C413.853 505.848 417.113 487.476 417.808 483.196C420.52 467.485 426.543 464.305 425.494 453.367C425.208 450.383 424.105 445.17 426.71 440.909C427.851 439.195 429.86 437.098 431.481 437.245C436.393 438.183 434.286 459.154 435.49 459.14C436.485 459.046 436.497 446.602 440.992 430.622C445.519 413.937 451.596 405.031 448.359 398.515C446.613 394.968 444.476 396.777 442.729 393.23C439.573 386.506 446.726 377.297 454.359 353.193C457.515 343.16 457.05 342.502 459.351 337.166C464 326.991 469.946 320.907 475.973 314.616C482.818 307.443 488.874 303.557 500.778 295.703C504.939 293 508.36 290.97 511.94 291.633C514.813 292.264 515.501 294.205 517.733 293.391C521.828 292.099 522.895 284.372 525.673 284.008C527.953 283.691 527.482 289.254 531.428 292.693C536 296.373 540.435 292.339 543.85 296.53C546.127 299.324 544.92 302.449 547.054 303.752C549.605 305.215 552.049 301.371 556.046 302.195C558.502 302.665 558.564 304.364 562.078 306.439C565.383 308.433 567.455 308.036 569.332 308.76C575.591 311.176 579.093 325.695 575.165 337.105C571.559 347.683 564.206 347.478 560.165 359.802C558.007 366.63 560.045 366.938 557.211 376.138C554.457 385.129 550.663 390.607 552.41 394.154C552.794 395.02 553.805 396.128 555.089 395.906C557.947 395.334 559.56 388.056 563.02 379.098C566.48 370.14 570.551 360.221 578.005 355.198C578.953 354.607 585.459 350.176 592.087 352.256C597.801 354.222 600.155 359.918 600.844 361.86C603.326 367.845 601.237 370.151 604.071 377.708C606.217 383.325 607.663 382.686 608.172 386.952C608.953 392.999 606.011 396.89 607.919 400.021C609.361 402.492 611.883 401.551 612.747 404.278C613.692 406.797 612.276 409.842 612.196 410.05C610.619 413.511 607.102 414.547 603.264 416.417C603.264 416.417 597.979 418.926 589.271 426.576C586.025 429.393 580.562 434.226 576.798 442.109C573.436 448.951 575.683 449.34 571.836 460.542C569.824 465.75 567.425 473.203 561.831 480.858C558.969 484.542 558.552 484.38 555.53 488.48C550.675 495.464 547.328 503.508 548.21 504.327C548.964 504.858 552.389 499.716 560.534 493.524C565.964 489.396 567.377 489.463 568.083 489.496C569.961 490.221 570.697 492.659 572.277 502.845C574.127 514.81 574.989 520.649 574.712 525.09C574.047 531.776 572.891 532.287 572.032 540.095C571.886 541.714 571.707 544.039 570.324 546.378C568.861 548.925 567.577 549.148 567.141 550.895C566.223 553.892 569.898 555.55 569.526 558.997C569.201 562.941 563.884 566.155 563.145 566.828C553.089 573 544.765 564.76 539.606 570.668C537.886 572.638 538.318 574.001 535.94 576.435C533.273 578.996 530.334 579.777 527.765 580.221C523.124 581.063 522.612 579.908 520.01 581.058C516.621 582.383 516.49 585.205 512.264 589.319C506.479 594.986 502.113 594.498 495.347 601.462C494.528 602.342 493.339 603.559 493.514 604.345C493.947 605.709 500.146 603.314 501.591 602.675C512.625 598.316 514.893 593.686 523.291 591.182C527.884 589.843 526.614 591.268 533.696 589.693C543.426 587.464 545.468 584.661 551.119 584.927C552.74 585.074 557.732 585.805 561.437 589.868C565.141 593.931 563.261 596.317 566.372 599.433C570.366 603.369 576.628 602.674 584.058 605.781C584.684 606.023 585.727 606.426 585.87 607.917C586.317 610.484 582.83 613.926 582.091 614.598C578.234 618.376 574.622 618.418 574.315 620.454C574.041 621.784 575.79 622.22 575.516 623.55C575.111 627.703 560.578 631.19 560.382 635.423C560.155 637.251 562.82 637.801 562.545 639.131C561.58 641.631 548.788 638.13 545.25 644.185C544.237 646.188 544.958 647.424 544.058 648.513C541.969 650.818 537.269 646.85 525.875 642.212C521.911 640.682 519.616 639.796 516.26 640.416C514.976 640.638 511.122 641.305 507.972 645.116C505.722 647.839 506.282 649.491 504.595 650.755C501.222 653.283 498.354 646.431 491.097 647.22C486.618 647.646 486.198 650.596 479.983 651.788C477.912 652.185 476.291 652.038 474.443 653.719C472.595 655.399 472.497 657.516 471.403 659.727C469.087 663.86 465.588 662.988 461.058 666.027C452.817 671.225 452.856 681.055 446.77 682.536C444.618 683.142 442.532 682.336 439.403 681.128C435.439 679.598 435.424 678.395 432.968 677.926C428.393 677.357 425.66 681.33 423.19 679.658C420.928 678.066 422.328 673.819 420.868 673.255C417.738 672.047 409.596 691.886 404.893 691.028C401.94 690.606 402.798 682.798 398.545 681.396C397.085 680.832 395.43 681.391 392.298 683.294C380.716 690.314 374.878 701.705 371.829 700.289L372.649 699.408Z" fill="white"/>
<path d="M370.29 669.556C368.715 670.021 368.368 667.877 365.437 667.619C361.304 667.153 359.931 671.207 356.483 673.065C350.3 676.291 341.637 670.145 339.791 668.724C330.374 661.957 326.946 650.337 322.067 651.214C320.491 651.679 319.221 653.176 318.73 652.479C317.9 651.601 321.449 647.186 320.315 645.276C319.18 643.365 314.869 645.197 307.889 646.693C299.521 648.318 292.279 649.892 289.332 645.709C286.801 641.964 289.368 636.155 287.107 634.296C285.524 632.798 282.83 635.276 279.196 637.47C276.087 639.509 264.211 646.659 257.58 641.597C253.549 638.575 255.219 633.592 250.849 630.39C244.819 625.431 234.857 632.297 230.147 637.615C227.343 640.687 225.03 644.457 223.988 646.729C220.183 653.183 220.53 655.326 217.54 658.734C213.465 663.303 207.764 665.264 206.367 663.431C205.046 661.855 209.528 655.763 207.902 653.155C206.276 650.546 201.6 655.012 196.29 651.526C193.089 649.382 193.039 646.309 189.99 644.682C186.603 642.874 184.849 645.636 180.046 646.772C170.517 649.3 160.609 641.836 157.671 639.615C153.64 636.593 153.936 635.664 147.789 629.337C139.38 621.15 134.976 618.8 129.361 614.28C121.825 608.082 105.346 591.889 106.915 580.761C107.899 573.454 118.817 570.797 140.205 565.895C149.022 563.857 153.003 563.806 157.254 565.64C164.665 568.508 165.85 573.491 173.709 575.946C181.831 578.323 182.899 573.236 188.658 576.31C194.756 579.565 195.195 585.891 205.941 596.195C207.939 598.132 211.03 600.869 213.656 600.095C215.756 599.476 215.935 597.178 217.925 597.153C219.916 597.127 220.94 599.632 225.31 602.834C227.495 604.436 230.772 606.838 232.119 605.599C233.017 604.772 233.119 602.216 232.586 600.409C231.367 596.277 227.048 596.147 221.323 592.222C216.953 589.019 214.235 585.61 211.102 581.762C208.308 578.095 200.568 568.308 202.094 564.771C204.068 560.821 217.492 564.722 220.074 571.539C220.531 573.089 220.801 574.974 222.198 576.807C223.595 578.641 226.229 579.829 227.39 578.925C228.737 577.686 226.688 572.677 227.4 572.186C228.45 571.877 231.184 579.21 236.528 581.845C238.485 582.672 240.551 582.904 240.738 582.569C241.034 581.639 234.411 578.539 223.343 571.979C207.117 562.448 204.399 559.04 197.335 558.315C191.474 557.798 190.957 559.915 187.044 558.262C179.295 555.213 177.264 545.427 170.846 537.215C166.316 531.534 162.818 530.319 143.78 521.898C106.643 505.34 100.504 500.976 99.3529 495.14C97.8554 487.161 106.394 481.276 103.177 475.207C101.585 471.747 98.4344 472.676 93.4212 468.26C93.0063 467.821 85.241 460.848 84.0061 452.792C82.5768 443.109 91.5466 441.587 95.3528 426.432C98.6418 413.393 94.5868 404.485 98.746 402.136C103.879 399.219 110.508 412.982 118.351 411.512C127.846 409.836 125.056 388.766 136.609 385.36C138.973 384.663 146.816 383.193 154.455 386.835C156.149 387.739 158.859 389.186 162.086 388.515C165.576 387.767 166.542 385.237 168.414 383.843C175.157 379.61 186.392 399.313 207.437 411.633C218.167 418.013 221.089 416.309 229.269 423.721C238.203 431.753 236.907 436.065 244.942 444.922C252.487 453.083 262.421 457.733 282.815 466.877C291.656 470.726 298.051 473.051 304.393 481.005C309.753 487.564 311.581 493.761 312.106 493.607C312.631 493.452 309.077 478.501 299.313 469.591C293.885 464.736 290.81 465.923 283.773 462.384C266.877 454.454 256.43 434.519 253.932 429.923C244.924 412.931 248.423 405.444 239.295 395.786C236.806 393.152 231.868 388.994 231.243 383.003C231.083 380.524 231.481 377.039 233.167 375.98C238.639 373.244 252.135 394.807 253.296 393.903C254.194 393.077 244.981 381.198 237.506 362.632C229.54 343.369 228.849 330.381 220.871 326.558C216.543 324.466 215.806 327.771 211.478 325.679C203.424 321.597 203.554 307.525 193.109 278.889C188.741 266.985 187.801 266.701 186.083 259.91C183.062 246.767 184.335 236.568 185.531 226.111C186.872 214.208 189.88 206.024 195.635 189.732C197.677 184.078 199.499 179.612 203.472 177.599C206.733 176.076 208.842 177.419 210.409 174.992C213.434 170.732 208.743 162.572 211.175 160.171C213.157 158.184 216.823 163.839 223.209 164.202C230.383 164.332 231.706 157.206 238.134 158.679C242.42 159.661 243.563 163.534 246.603 163.199C250.169 162.709 249.696 157.235 254.194 155.067C256.93 153.7 258.251 155.275 263.206 154.656C267.898 154.115 269.618 152.204 271.981 151.508C279.859 149.185 294.026 160.446 298.665 174.235C302.999 186.991 295.696 192.231 300.902 206.975C303.865 215.083 306.076 213.87 310.139 224.741C314.126 235.354 314.497 243.384 318.825 245.476C319.841 246.019 321.645 246.329 322.729 245.167C325.084 242.508 321.258 234.374 317.982 223.271C314.707 212.168 311.313 199.696 314.839 189.394C315.322 188.129 318.364 179.093 326.352 176.177C333.365 173.828 339.878 177.522 341.987 178.865C348.838 182.739 348.515 186.483 356.874 191.597C363.124 195.368 364.056 193.69 367.714 197.383C372.956 202.574 372.98 208.461 377.155 210.037C380.39 211.328 382.144 208.566 385.007 210.529C387.793 212.233 388.673 216.184 388.749 216.442C389.781 220.909 387.129 224.498 384.782 229.119C384.782 229.119 381.503 235.419 378.705 249.154C377.637 254.241 375.907 262.89 378.09 273.193C379.893 282.204 382.366 280.914 386.928 294.445C388.833 300.9 392.024 309.783 392.259 321.221C392.207 326.85 391.681 327.005 391.782 333.15C392.237 343.401 394.945 353.548 396.41 353.678C397.537 353.626 397.056 346.19 400.387 334.262C402.608 326.31 404.031 325.329 404.742 324.838C407.105 324.142 409.629 325.924 418.715 334.472C429.385 344.518 434.551 349.451 437.574 353.892C441.883 360.761 441.138 362.104 446.091 370.187C447.149 371.839 448.698 374.189 449.087 377.443C449.552 380.954 448.468 382.116 449.34 384.104C450.669 387.642 455.472 386.507 457.665 390.07C460.272 394.073 457.484 401.07 457.264 402.257C452.061 415.58 437.857 413.873 437.22 423.323C437.008 426.473 438.439 427.454 437.93 431.533C437.234 435.949 434.955 438.866 432.786 441.189C428.898 445.423 427.543 444.7 425.865 447.72C423.552 451.49 425.516 454.279 424.456 461.328C423.031 471.01 418.423 473.772 417.006 485.416C416.862 486.862 416.608 488.902 417.361 489.522C418.792 490.503 423.046 483.636 423.978 481.958C431.476 469.643 430.249 463.549 436.561 454.952C440.035 450.28 439.856 452.577 445.575 445.839C453.386 436.52 453.294 432.337 458.986 428.413C460.672 427.355 466.068 424.361 472.682 425.498C479.297 426.636 479.237 430.302 484.573 430.975C491.374 431.776 496.948 426.484 506.477 423.956C507.265 423.724 508.578 423.337 509.823 424.654C512.16 426.771 511.32 432.632 511.1 433.82C510.15 440.275 506.668 442.985 507.879 445.154C508.598 446.626 510.623 445.749 511.342 447.221C514.026 451.482 502.479 465.551 505.426 469.735C506.56 471.646 509.559 470.2 510.278 471.672C511.193 474.771 496.157 480.887 497.206 489.279C497.705 491.938 499.323 492.584 499.255 494.289C498.932 498.032 491.419 497.721 476.901 501.72C471.912 503.191 469.024 504.043 466.22 507.115C465.135 508.276 461.882 511.762 461.644 517.726C461.473 521.986 463.243 523.148 462.54 525.601C461.133 530.507 453.265 526.09 446.793 532.208C442.752 535.925 444.53 539.05 439.371 544.781C437.651 546.691 435.965 547.75 435.414 550.719C434.863 553.688 436.336 555.78 436.912 558.698C437.723 564.352 433.675 566.107 431.522 572.355C427.361 583.406 434.685 592.754 429.865 598.666C428.221 600.834 425.595 601.608 421.657 602.769C416.668 604.24 415.762 603.104 413.025 604.472C408.155 607.311 408.442 613.121 404.799 613.353C401.42 613.507 399.634 608.42 397.796 608.962C393.857 610.123 400.645 635.066 395.435 637.725C392.25 639.506 387.297 631.423 382.122 633.23C380.284 633.772 379.089 635.527 377.453 639.658C371.394 654.916 374.161 670.099 370.146 671.002L370.29 669.556Z" fill="white"/>
<path d="M349.438 492.735C348.154 492.239 349.028 490.612 347.218 488.931C344.717 486.492 341.718 488.527 338.473 488.012C332.71 487.016 330.131 478.408 329.639 476.499C326.88 467.085 330.594 457.467 326.906 455.552C325.622 455.057 324.008 455.416 324.041 454.692C323.944 453.672 328.573 452.512 328.805 450.637C329.037 448.762 325.233 447.785 319.833 445.21C313.446 442.008 307.832 439.351 308.033 435.008C308.283 431.175 312.979 428.567 312.438 426.148C312.16 424.321 309.096 424.612 305.555 424.228C302.443 424.01 290.882 422.741 289.092 415.911C287.976 411.796 291.651 409.285 290.403 404.874C288.959 398.423 278.814 397.946 272.95 399.121C269.507 399.757 266.031 401.117 264.169 402.118C258.32 404.527 257.446 406.154 253.706 406.921C248.649 407.917 243.858 406.313 243.876 404.356C243.811 402.612 249.923 400.795 250.189 398.197C250.455 395.598 245.052 396.214 243.327 391.128C242.309 388.034 243.859 385.93 242.675 383.264C241.36 380.3 238.773 381.267 235.003 379.566C227.38 376.379 224.655 366.241 223.851 363.229C222.734 359.114 223.41 358.638 222.593 351.201C221.234 341.345 219.525 337.492 218.13 331.551C216.325 323.487 213.74 304.071 220.515 297.353C224.932 292.918 233.543 296.732 250.253 304.409C257.152 307.562 259.818 309.573 261.693 312.998C265.13 318.745 263.348 322.723 267.296 328.422C271.458 334.203 274.787 331.313 277.022 336.35C279.39 341.684 276.421 346.187 278.239 358.676C278.566 361.013 279.205 364.452 281.346 365.278C283.058 365.939 284.36 364.477 285.694 365.483C287.027 366.488 286.416 368.708 287.663 373.119C288.287 375.324 289.223 378.633 290.755 378.487C291.776 378.39 293.161 376.714 293.739 375.218C295.06 371.798 292.262 369.491 290.488 363.894C289.24 359.484 289.194 355.782 289.098 351.57C289.135 347.655 289.045 337.06 291.879 335.453C295.224 333.796 302.117 343.333 300.316 349.269C299.821 350.551 299.029 351.965 299.011 353.922C298.993 355.88 300.128 358.037 301.363 358.022C302.895 357.877 304.117 353.437 304.842 353.471C305.698 353.801 303.733 360.165 305.919 364.692C306.791 366.257 308.042 367.476 308.338 367.345C309.014 366.869 306.219 361.37 302.258 351.246C296.408 336.463 296.361 332.762 292.05 328.642C288.429 325.28 286.995 326.446 285.252 323.318C281.683 317.274 285.379 309.614 285.354 300.763C285.277 294.594 283.583 291.976 275.295 276.498C259.197 246.219 257.374 240.113 259.618 235.576C262.736 229.412 271.432 229.82 272.425 224.064C273.152 220.906 270.584 219.915 269.535 214.353C269.486 213.843 267.929 205.138 271.261 199.056C275.302 191.775 282.035 195.356 292.369 187.064C301.269 179.939 303.17 171.831 307.139 172.381C312.046 173.047 309.351 185.759 315.31 188.795C322.471 192.541 331.478 176.861 340.895 180.495C342.822 181.239 348.781 184.275 351.971 190.663C352.628 192.145 353.68 194.516 356.166 195.721C358.866 197.008 360.811 195.794 362.771 195.813C369.424 196.416 366.723 215.512 374.332 234.656C378.161 244.484 380.977 244.834 382.583 254.049C384.37 264.071 381.288 266.32 382.054 276.438C382.853 285.833 387.045 294.082 395.859 310.744C399.74 317.89 402.783 322.748 402.89 331.385C403.065 338.575 401.085 343.704 401.513 343.87C401.941 344.035 407.287 332.1 405.403 321.058C404.305 314.986 401.654 314.208 398.809 308.199C391.69 294.155 395.033 275.307 395.745 270.916C398.526 254.798 404.705 251.534 403.627 240.313C403.334 237.253 402.202 231.904 404.874 227.533C406.045 225.774 408.105 223.622 409.768 223.773C414.807 224.735 412.648 246.25 413.883 246.235C414.904 246.138 414.915 233.372 419.525 216.978C424.167 199.86 430.401 190.723 427.08 184.038C425.288 180.4 423.095 182.255 421.303 178.617C418.065 171.718 425.402 162.271 433.23 137.541C436.467 127.248 435.99 126.572 438.35 121.098C443.119 110.659 449.218 104.417 455.4 97.9618C462.422 90.6029 468.635 86.6152 480.846 78.5571C485.114 75.7837 488.624 73.7 492.296 74.3804C495.244 75.0267 495.95 77.0184 498.241 76.1831C502.442 74.8572 503.535 66.9295 506.385 66.5557C508.724 66.2304 508.241 71.9382 512.29 75.4652C516.981 79.2399 521.53 75.1015 525.034 79.4008C527.371 82.2671 526.133 85.4731 528.322 86.8091C530.94 88.3103 533.446 84.3661 537.547 85.2116C540.066 85.6927 540.13 87.4366 543.736 89.5645C547.127 91.6099 549.252 91.2019 551.178 91.9453C557.599 94.4232 561.193 109.317 557.165 121.024C553.466 131.876 545.923 131.666 541.778 144.311C539.565 151.315 541.656 151.631 538.75 161.07C535.925 170.294 532.034 175.914 533.826 179.553C534.22 180.442 535.257 181.579 536.575 181.35C539.507 180.763 541.16 173.297 544.709 164.106C548.258 154.916 552.434 144.739 560.08 139.585C561.052 138.978 567.727 134.432 574.527 136.565C580.389 138.581 582.805 144.426 583.511 146.417C586.059 152.558 583.916 154.923 586.824 162.676C589.026 168.438 590.509 167.782 591.032 172.159C591.834 178.362 588.817 182.355 590.774 185.566C592.254 188.102 594.841 187.135 595.728 189.933C596.697 192.518 595.245 195.641 595.162 195.855C593.545 199.406 589.937 200.469 585.999 202.388C585.999 202.388 580.579 204.962 571.645 212.812C568.316 215.702 562.712 220.661 558.851 228.749C555.403 235.768 557.708 236.166 553.762 247.659C551.698 253.003 549.238 260.649 543.5 268.503C540.565 272.282 540.136 272.117 537.036 276.323C532.056 283.488 528.624 291.741 529.529 292.582C530.302 293.126 533.815 287.851 542.171 281.497C547.741 277.262 549.19 277.33 549.915 277.364C551.841 278.107 552.597 280.609 554.218 291.058C556.118 303.334 557.003 309.323 556.719 313.88C556.038 320.739 554.851 321.263 553.972 329.274C553.822 330.935 553.639 333.32 552.22 335.72C550.719 338.333 549.401 338.561 548.955 340.354C548.014 343.429 551.784 345.129 551.402 348.665C551.069 352.712 545.615 356.01 544.856 356.7C534.541 363.033 526 354.58 520.708 360.642C518.944 362.663 519.388 364.062 516.948 366.559C514.212 369.186 511.197 369.988 508.561 370.444C503.801 371.308 503.275 370.123 500.606 371.303C497.129 372.663 496.995 375.559 492.66 379.78C486.725 385.594 482.246 385.093 475.306 392.238C474.465 393.142 473.246 394.39 473.426 395.197C473.87 396.596 480.229 394.138 481.712 393.482C493.031 389.009 495.357 384.259 503.973 381.69C508.685 380.315 507.382 381.777 514.647 380.16C524.63 377.873 526.724 374.997 532.521 375.27C534.184 375.42 539.306 376.169 543.107 380.337C546.908 384.505 544.979 386.953 548.171 390.15C552.269 394.187 558.693 393.474 566.315 396.661C566.958 396.909 568.028 397.321 568.175 398.852C568.634 401.485 565.057 405.016 564.298 405.706C560.342 409.582 556.637 409.625 556.322 411.714C556.041 413.079 557.835 413.526 557.554 414.891C557.139 419.151 542.23 422.73 542.029 427.073C541.797 428.948 544.53 429.512 544.249 430.877C543.259 433.442 530.135 429.851 526.507 436.063C525.467 438.118 526.207 439.386 525.284 440.503C523.141 442.869 518.319 438.798 506.629 434.041C502.562 432.472 500.208 431.563 496.765 432.199C495.447 432.428 491.494 433.112 488.262 437.023C485.954 439.816 486.529 441.511 484.799 442.808C481.338 445.401 478.396 438.372 470.951 439.183C466.355 439.62 465.924 442.646 459.549 443.87C457.424 444.278 455.761 444.127 453.866 445.851C451.97 447.576 451.869 449.747 450.747 452.015C448.372 456.256 444.782 455.362 440.135 458.48C431.682 463.813 431.722 473.898 425.479 475.418C423.271 476.04 421.131 475.214 417.92 473.975C413.854 472.405 413.838 471.171 411.319 470.69C406.625 470.107 403.822 474.183 401.287 472.468C398.966 470.835 400.403 466.478 398.904 465.9C395.694 464.661 387.342 485.014 382.518 484.134C379.487 483.702 380.367 475.692 376.004 474.253C374.506 473.675 372.809 474.248 369.595 476.201C357.714 483.404 351.726 495.091 348.598 493.638L349.438 492.735Z" fill="white"/>
<path d="M416.013 536.062L345.192 575.773L305.178 503.54L359.389 475.429L416.013 536.062Z" fill="#1414C9"/>
<path d="M364.262 465.144L288.891 503.978L369.323 661.144L484.891 595.312L364.262 465.144ZM345.199 578.572L303.033 502.353L359.173 473.237L418.506 537.404L345.199 578.565V578.572ZM404.962 627.408C386.37 627.408 371.293 612.281 371.293 593.626C371.293 574.97 386.37 559.843 404.962 559.843C423.555 559.843 438.631 574.97 438.631 593.626C438.631 612.281 423.555 627.408 404.962 627.408Z" fill="#1414C9"/>
<path d="M404.962 563.147C388.184 563.147 374.586 576.791 374.586 593.626C374.586 610.46 388.184 624.104 404.962 624.104C421.739 624.104 435.337 610.46 435.337 593.626C435.337 576.791 421.739 563.147 404.962 563.147ZM404.962 610.433C395.712 610.433 388.211 602.906 388.211 593.626C388.211 584.345 395.712 576.818 404.962 576.818C414.211 576.818 421.712 584.345 421.712 593.626C421.712 602.906 414.211 610.433 404.962 610.433Z" fill="#1414C9"/>
<path d="M405.674 607.91C413.537 607.91 419.911 601.515 419.911 593.626C419.911 585.736 413.537 579.341 405.674 579.341C397.811 579.341 391.438 585.736 391.438 593.626C391.438 601.515 397.811 607.91 405.674 607.91Z" fill="#1414C9"/>
</svg>
