<svg width="587" height="512" viewBox="0 0 587 512" fill="none" xmlns="http://www.w3.org/2000/svg">
<path d="M34.3086 145.085C34.5927 142.816 37.6796 141.916 40.9413 140.328C50.2784 135.597 48.94 129.625 57.8893 122.674C61.5171 119.935 67.9094 114.971 75.6074 115.531C83.0813 116.108 86.3702 121.039 93.9207 119.587C96.3519 118.959 99.8704 117.802 99.9633 115.996C99.8486 114.431 97.5922 114.371 96.068 112.01C93.0195 107.287 99.6031 101.858 96.8716 95.3132C95.4894 91.817 92.5283 91.3593 93.0692 89.521C93.7522 86.5482 101.756 88.2105 107.187 82.4169C109.487 80.0001 108.542 79.3948 110.858 77.2017C114.453 74.0156 118.311 74.4077 123.397 73.136C128.691 71.6242 127.473 70.3644 135.515 66.4031C140.52 64.0132 140.121 64.7168 147.781 61.6828C157.615 57.5903 158.637 56.1665 161.614 56.8479C165.52 57.9109 165.974 61.0254 170.76 61.7992C170.76 61.7992 171.432 61.75 177.289 61.7708C177.911 61.0507 178.95 59.8505 179.059 58.2687C179.501 55.0886 177.13 53.4635 177.912 51.8324C178.485 50.4414 180.343 51.2048 185.189 49.7258C188.724 48.7925 188.899 48.1052 190.915 47.9576C194.275 47.7116 195.542 49.6423 198.296 50.34C204.027 51.7191 206.447 44.7969 216.844 42.237C219.276 41.6093 224.138 40.354 230.06 41.2694C231.885 41.5854 234.846 42.0432 238.671 41.988C241.359 41.7912 244.271 41.578 244.844 40.187C245.801 37.8686 238.37 34.8153 238.78 31.1879C239.239 28.2315 244.293 26.5125 247.811 25.3555C252.21 23.9093 256.242 23.6141 258.05 23.7066C265.475 23.6126 267.431 25.7177 271.812 24.0479C275.09 22.6837 274.528 21.1511 277.391 20.267C282.461 18.7716 284.853 23.7677 293.065 25.19C298.987 26.1054 299.495 23.8198 307.915 25.0021C311.548 25.4106 311.58 25.8578 316.35 26.408C323.633 27.4486 327.714 27.8244 329.582 25.664C331.642 23.0401 329.042 18.2841 330.337 17.5148C331.648 16.9691 333.32 21.3434 338.155 22.788C341.149 23.693 341.722 22.302 346.06 23.1086C350.398 23.9152 350.496 25.257 354.578 25.6327C357.746 25.8503 358.129 24.9231 360.451 25.8772C363.221 26.7986 363.576 28.5712 365.592 28.4236C367.608 28.276 367.941 26.6778 369.733 26.5466C371.749 26.399 374.153 28.4713 374.765 30.6749C375.508 34.6675 369.416 37.5868 370.492 39.9811C371.295 41.721 375.792 41.6167 378.895 40.9398C381.326 40.3121 381.277 39.6412 383.277 39.2699C386.38 38.5931 389.166 39.7381 392.433 41.2975C398.487 44.002 399.355 46.6365 402.956 46.5977C404.076 46.5157 405.196 46.4337 405.917 47.0555C406.911 48.3317 404.595 50.5248 405.463 53.1592C406.075 55.3628 408.861 56.5078 409.309 56.475C412.079 57.3964 413.549 55.9397 416.925 55.9174C420.078 55.9114 420.4 57.2368 424.563 58.7306C429.415 60.399 429.988 59.008 435.927 60.147C443.019 61.6514 446.368 64.329 447.602 65.8124C448.58 66.865 450.279 68.5393 449.962 70.3612C449.629 71.9594 448.094 72.5215 448.4 73.6233C448.482 74.7415 450.705 74.3538 453.268 75.5152C454.661 76.0877 457.207 77.0254 458.731 79.387C460.255 81.7486 459.026 83.4125 460.534 85.5505C461.544 87.0503 463.178 87.8301 464.107 88.2118C468.751 90.1201 471.723 87.6541 477.355 87.6913C482.092 87.7942 485.376 89.5773 488.659 91.3605C494.762 94.7359 498.515 99.8571 500.487 102.186C503.984 106.876 505.125 110.165 509.305 111.883C510.938 112.662 511.834 112.597 513.036 113.633C514.976 115.515 514.916 117.767 515.708 122.431C516.92 129.762 517.8 129.472 517.45 130.847C515.27 137.977 493.663 135.062 493.061 139.153C492.777 141.422 498.383 144.159 500.929 145.097C503.699 146.018 505.796 146.989 507.763 146.17C511.937 144.741 510.648 139.439 514.948 136.651C519.887 133.367 528.038 137.042 531.546 138.808C535.037 140.351 538.785 142.325 540.872 146.22C542.975 150.338 541.09 152.274 542.461 158.694C542.527 159.589 543.865 165.561 548.083 170.873C553.054 177.254 556.3 175.443 560.102 181.235C560.599 181.873 560.135 181.682 564.959 195.269C566.406 199.659 567.242 201.847 566.799 205.027C566.641 205.938 566.024 209.805 563.002 211.6C560.844 212.882 558.779 212.359 556.282 212.092C549.704 211.45 540.875 213.895 539.362 217.828C537.848 221.761 543.459 227.645 547.098 231.201C551.25 235.619 553.523 235.902 556.795 240.609C559.057 243.816 560.182 246.881 560.761 248.637C561.903 251.926 562.755 254.337 562.761 257.484C562.892 259.273 562.608 261.542 561.187 263.67C559.575 266.261 557.767 266.169 553.052 269.437C550.063 271.679 547.921 273.185 546.086 275.792C544.665 277.92 544.365 279.966 543.316 284.089C542.174 290.019 542.72 291.328 541.654 295.228C541.113 297.066 540.239 300.503 537.573 304.07C535.322 307.158 533.197 308.887 529.137 311.883C524.854 314.894 523.302 315.233 522.63 315.282C520.166 315.462 518.309 314.699 515.042 313.14C511.774 311.58 507.098 309.224 503.825 304.518C502.334 302.603 501.738 300.624 500.859 300.913C500.411 300.946 500.028 301.873 499.236 306.428C498.586 309.848 498.269 311.67 498.127 312.804C498.05 314.833 497.925 316.191 497.897 318.891C497.984 323.157 497.908 325.186 498.438 326.271C500.093 330.422 504.912 331.643 505.152 331.85C507.906 332.548 510.113 331.937 514.079 330.747C519.581 328.995 519.707 327.637 523.291 327.375C524.187 327.309 529.563 326.915 532.994 330.711C533.972 331.764 533.54 332.02 535.485 337.049C537.14 341.2 537.861 341.822 538.522 344.696C539.167 347.347 539.713 348.656 539.637 350.685C539.293 355.207 536.146 358.36 535.698 358.393C533.589 360.346 532.004 360.237 522.039 362.541C515.608 363.911 513.849 364.489 512.412 366.393C511.789 367.113 510.992 368.521 510.888 373.25C510.39 381.83 512.313 383.488 511.346 388.73C511.013 390.328 510.046 395.57 505.986 398.565C502.566 401.064 501.058 398.926 492.486 401.802C487.656 403.505 486.842 404.688 482.81 404.984C480.57 405.148 479.45 405.23 478.155 405.999C476.238 407.488 476.609 409.485 475.03 412.523C474.648 413.45 473.402 414.891 470.894 417.547C465.081 424.268 464.873 424.508 464.251 425.229C461.377 429.036 459.94 430.94 459.24 433.689C458.749 436.199 459.47 436.82 459.797 441.293C460.174 446.437 460.486 450.686 458.781 455.082C458.224 456.697 456.278 460.886 451.531 463.707C449.165 465.229 446.941 465.617 442.27 466.409C437.151 467.233 434.703 467.637 432.862 467.098C428.923 465.587 427.268 461.437 424.023 454.03C422.384 450.103 422.575 449.639 420.133 443.972C417.385 437.204 416.118 435.273 414.003 434.079C411.168 432.263 409.922 433.703 406.895 432.351C401.978 429.788 403.65 424.944 397.701 417.51C395.472 414.751 396.051 416.507 388.085 409.221C386.643 407.977 384.704 406.096 382.24 406.276C380.448 406.407 378.929 407.193 378.497 407.45C376.995 408.459 376.836 409.37 375.782 410.347C373.689 412.523 371.575 411.329 366.073 413.081C363.21 413.965 361.484 414.991 360.828 415.263C357.807 417.059 355.682 418.788 354.004 420.485C351.895 422.438 349.803 424.614 348 427.669C344.186 434.019 343.989 440.554 343.945 443.03C344.208 446.608 344.136 451.785 347.376 456.044C349.622 459.027 351.414 458.896 353.948 462.758C354.976 464.481 356.773 467.497 356.123 470.917C355.839 473.186 354.609 474.85 353.14 476.307C347.293 482.581 338.017 485.059 336.913 485.364C314.136 491.079 302.619 493.721 294.063 487.602C292.637 486.582 288.343 483.299 287.535 478.412C287.049 474.85 288.759 473.601 289.376 469.734C290.229 462.926 285.831 455.154 279.695 451.331C275.45 448.719 271.386 448.567 268.457 448.557C266.425 448.481 262.136 448.345 257.323 450.271C251.63 452.487 251.619 455.411 245.751 458.313C243.8 459.356 239.244 461.713 233.354 461.244C226.552 460.618 219.696 456.174 216.516 449.662C214.107 444.442 214.883 439.664 215.626 434.438C216.053 431.034 217.97 420.327 226.149 412.083C227.188 410.883 232.028 406.257 237.65 400C239.311 398.079 240.557 396.639 240.633 394.61C240.563 390.568 235.307 386.456 230.346 386.37C227.401 386.136 224.571 387.467 219.681 391.422C210.109 399.093 203.542 404.745 201.526 414.111C199.318 423.941 203 434.238 203.355 436.011C203.934 437.767 204.563 440.194 205.836 445.273C206.786 449.025 207.108 450.35 207.015 452.156C206.589 455.56 204.961 457.927 203.956 459.575C201.115 463.83 197.421 465.674 195.039 466.973C190.707 469.313 186.691 469.832 185.139 470.171C180.9 470.706 176.212 471.274 172.208 468.869C166.777 465.444 167.919 459.515 163.068 457.847C160.522 456.909 159.74 458.54 154.108 458.503C150.955 458.509 147.562 458.307 144.055 456.541C140.067 454.36 136.363 449.909 136.002 444.989C135.773 441.858 137.084 441.313 139.264 434.183C140.87 428.445 141.969 424.992 141.209 420.775C141.111 419.434 140.029 413.892 135.528 410.849C133.637 409.638 131.141 409.372 126.131 408.614C123.41 408.364 120.225 407.922 115.952 408.01C108.544 408.328 108.211 409.926 103.425 409.152C100.016 408.728 100.174 407.817 94.4429 406.437C89.8646 405.424 88.7773 405.953 87.559 404.693C84.6416 401.759 86.1989 395.35 86.5649 394.199C87.9965 389.148 90.6026 387.833 89.734 385.198C89.4281 384.096 88.7233 383.698 84.6859 380.846C76.8843 375.797 77.1246 376.004 75.6823 374.76C72.5409 371.843 72.6503 370.261 69.334 368.03C66.7226 366.198 66.0997 366.918 64.4334 365.691C59.8989 362.201 63.2973 356.331 59.8499 352.312C55.4411 347.464 46.7432 351.698 43.4216 346.32C42.1541 344.389 42.4219 341.897 42.4055 341.673C42.6733 339.18 43.9354 337.963 45.5308 335.149C48.1479 330.91 47.0115 330.768 49.2297 327.233C51.0491 324.402 53.251 320.644 57.6655 319.421C60.9763 318.504 63.9703 319.409 65.795 319.725C69.9253 320.772 69.816 322.354 72.3128 322.621C77.29 322.931 78.1588 316.347 83.5185 315.73C86.4305 315.516 89.2496 317.109 94.9205 320.741C98.9415 323.369 99.2147 324.023 100.815 324.356C105.585 324.906 110.601 319.592 112.753 315.163C114.316 311.901 116.37 306.13 114.19 304.041C112.748 302.798 110.126 303.889 107.47 304.533C105.056 305.384 96.8167 306.662 80.3389 309.217C69.2044 310.932 66.9317 310.649 64.8337 309.678C62.2714 308.517 57.1632 306.417 54.7867 301.645C54.2404 300.336 53.6941 299.027 52.5086 298.215C50.8586 297.211 48.6514 297.822 45.3897 299.41C36.6754 303.421 35.4023 307.561 28.9719 308.931C26.7482 309.319 25.4206 309.641 23.7871 308.861C17.7337 306.157 18.2859 292.176 19.6027 285.56C20.0781 282.827 21.8048 272.583 28.0661 265.829C28.6889 265.109 29.7434 264.133 30.3171 262.742C32.661 257.848 29.0553 254.74 30.2628 249.705C31.3119 245.581 33.8415 246.295 38.42 238.091C41.0043 233.405 40.8733 231.616 40.5673 230.514C40.021 229.205 39.2999 228.583 34.5905 225.781C27.7668 221.783 27.0948 221.833 26.0841 220.333C23.0848 216.281 25.3468 210.269 25.6965 208.895C28.8655 199.894 37.6781 197.225 36.4872 193.265C35.8589 190.838 31.8597 191.581 29.7728 187.687C27.7022 184.016 29.1666 179.412 29.3742 179.172C31.0789 174.775 34.4717 174.977 40.3341 168.927C43.4811 165.773 46.1965 162.876 45.7759 160.209C45.388 157.989 43.3557 157.913 39.0123 153.959C35.6469 151.058 32.7459 148.348 33.2377 145.838L34.3086 145.085Z" fill="white"/>
<path d="M388.411 332.565C397.766 320.459 405.462 306.599 410.966 291.253C437.137 218.287 403.731 139.54 336.352 115.373C268.973 91.2054 193.137 130.769 166.966 203.735C161.463 219.076 158.593 234.672 158.122 249.965" stroke="#1414C9" stroke-width="20" stroke-miterlimit="10"/>
<path d="M337.594 392.726L336.261 392.248L371.433 294.188L372.766 294.666C394.939 302.619 405.502 329.812 396.34 355.354L394.369 360.851C385.207 386.394 359.769 400.673 337.596 392.72L337.594 392.726Z" fill="#1414C9"/>
<path d="M333.959 391.422L330.162 390.06C326.542 388.762 324.817 384.323 326.313 380.152L356.065 297.204C357.561 293.033 361.713 290.702 365.334 292.001L369.131 293.363L333.959 391.422Z" fill="#1414C9"/>
<path d="M196.453 231.433L197.785 231.911L162.613 329.97L161.281 329.493C139.11 321.534 128.547 294.342 137.709 268.799L139.68 263.302C148.842 237.759 174.28 223.48 196.453 231.433Z" fill="#1414C9"/>
<path d="M200.088 232.736L203.885 234.098C207.505 235.397 209.23 239.835 207.734 244.006L177.982 326.955C176.486 331.126 172.333 333.456 168.713 332.158L164.916 330.796L200.088 232.736Z" fill="#1414C9"/>
</svg>
