<svg width="316" height="200" viewBox="0 0 316 200" fill="none" xmlns="http://www.w3.org/2000/svg">
<g clip-path="url(#clip0_1_1298)">
<path d="M170.348 189.358C162.287 189.358 154.387 187.057 148.412 182.712C138.445 175.463 136.169 164.557 133.523 151.916C133.02 149.503 132.498 147.014 131.91 144.488C124.371 112.118 108.315 85.0827 96.8583 71.7632C80.7454 53.0329 61.37 45.6426 47.2202 40.2507C36.1052 36.0088 28.7552 33.2092 29.2104 26.9406C30.0071 15.94 55.8125 10.2842 82.1774 5.43899C107.072 0.86719 144.695 -6.05179 184.678 10.3313C207.231 19.5692 219 31.2673 224.008 37.4133C228.493 42.9278 239.001 55.8325 240.139 74.148C240.898 86.4589 237.209 95.3386 231.12 108.809C197.633 182.882 187.76 185.926 182.459 187.557C178.533 188.773 174.417 189.358 170.339 189.358H170.348ZM130.222 2.83731C111.928 2.83731 95.5875 5.84433 82.699 8.21036C65.2394 11.4248 32.7479 17.3917 32.0461 27.1386C31.7426 31.3145 38.6658 33.9539 48.2349 37.6019C61.8537 42.7958 82.443 50.648 99.0207 69.9156C110.686 83.4707 127.026 110.968 134.68 143.837C135.277 146.392 135.799 148.899 136.311 151.331C138.834 163.388 141.005 173.813 150.091 180.412C158.266 186.36 170.936 188.142 181.624 184.842C186.148 183.447 195.566 180.544 228.531 107.631C234.44 94.5562 238.025 85.9499 237.304 74.2989C236.223 56.8883 226.113 44.4737 221.798 39.1761C216.961 33.2375 205.571 21.9352 183.597 12.933C164.961 5.2976 146.791 2.82788 130.222 2.82788V2.83731Z" fill="white"/>
<path d="M93.984 171.117C90.6457 171.117 87.573 171.014 85.0597 170.929C82.4707 170.844 77.0175 170.505 69.6106 169.223C53.0899 166.367 30.4521 162.455 15.5151 145.657C6.70464 135.759 3.88796 125.23 2.37055 119.574C-6.19332 87.5995 10.6309 62.1482 17.8102 51.289C26.2033 38.5822 31.6755 37.3662 35.0612 37.5736C38.9211 37.7998 43.5776 40.279 44.5924 44.4266C45.7874 49.3095 41.1687 53.7587 37.1002 57.6801C36.3889 58.3683 35.6776 59.047 35.0233 59.7162C29.0959 66.1922 18.9008 79.9924 17.5067 99.26C16.8902 107.772 15.866 122.015 24.6575 131.753C38.2762 146.854 70.9479 146.364 91.7553 136.475C93.4529 135.665 95.0177 134.826 96.5257 134.015C101.694 131.234 106.161 128.831 111.851 130.273C117.485 131.706 123.014 136.739 126.295 143.432C129.207 149.371 129.766 155.319 127.813 159.74C123.46 169.609 106.749 171.127 93.984 171.127V171.117ZM34.3594 40.3827C32.4057 40.3827 27.8345 41.2876 20.1906 52.8444C13.22 63.3925 -3.11108 88.0991 5.12085 118.857C6.57187 124.287 9.28424 134.392 17.6489 143.8C31.9221 159.853 53.0899 163.51 70.0943 166.451C77.3399 167.705 82.6414 168.035 85.1546 168.12C96.6205 168.506 120.491 169.317 125.205 158.618C126.798 155.017 126.248 149.804 123.735 144.686C120.814 138.728 115.986 134.26 111.14 133.035C106.541 131.866 102.899 133.817 97.8723 136.523C96.336 137.352 94.7427 138.2 92.9787 139.039C70.8056 149.578 37.214 149.927 22.5426 133.657C12.9545 123.024 14.0356 108.036 14.6805 99.0715C16.1315 78.9461 26.7629 64.5708 32.9653 57.7838C33.6766 57.0674 34.3973 56.3699 35.1276 55.6629C38.6555 52.2694 42.6482 48.414 41.8326 45.1053C41.1782 42.4188 37.7261 40.5712 34.9 40.411C34.7482 40.411 34.568 40.3921 34.3594 40.3921V40.3827Z" fill="white"/>
<path d="M300.209 200C300.067 200 299.915 200 299.773 200C296.766 199.915 294.348 198.954 292.973 197.295C291.437 195.447 291.816 193.628 292.575 190.008C293.02 187.868 293.627 184.937 294.187 180.695C294.566 177.782 294.737 175.652 294.86 174.096C295.116 170.901 295.23 169.44 296.89 168.488C298.815 167.385 301.888 167.818 305.311 169.694C310.433 172.503 315.715 178.291 315.981 184.908C316.208 190.461 312.879 194.306 312.216 195.023C308.763 198.709 303.832 200.009 300.2 200.009L300.209 200ZM299.403 170.703C298.938 170.703 298.568 170.788 298.322 170.929C297.99 171.118 297.895 171.909 297.705 174.313C297.582 175.897 297.402 178.074 297.013 181.053C296.444 185.399 295.818 188.396 295.363 190.574C294.642 194.014 294.557 194.759 295.164 195.485C295.998 196.484 297.705 197.097 299.858 197.163C303.661 197.276 307.711 195.673 310.129 193.081C310.452 192.732 313.316 189.537 313.135 185.012C312.917 179.498 308.356 174.586 303.936 172.164C302.03 171.118 300.456 170.703 299.393 170.703H299.403Z" fill="white"/>
<path d="M225.97 196.55C221.266 196.55 217.71 195.843 216.458 195.551C209.923 194.042 205.201 192.958 202.526 188.933C198.296 182.561 202.905 174.624 210.53 161.484C214.722 154.263 219.938 145.28 225.297 133.93C229.811 124.363 232.751 116.774 234.904 111.241C238.934 100.853 240.774 96.1116 246.104 95.5366C249.243 95.2066 252.733 96.5546 256.223 99.4674C264.654 106.509 271.369 120.809 272.185 133.478C272.773 142.546 270.316 149.522 266.912 159.165C261.904 173.37 258.291 183.636 247.773 190.46C240.224 195.362 232.106 196.559 225.97 196.559V196.55ZM246.417 98.3362C242.974 98.7133 241.552 101.975 237.559 112.25C235.397 117.83 232.429 125.465 227.876 135.127C222.471 146.59 217.217 155.63 213.006 162.898C205.684 175.51 201.644 182.457 204.907 187.378C206.955 190.47 210.995 191.394 217.103 192.798C219.796 193.42 233.851 196.107 246.227 188.076C255.929 181.779 259.23 172.409 264.237 158.213C267.651 148.532 269.899 142.131 269.349 133.638C268.476 120.083 261.164 107.272 254.393 101.617C251.519 99.2129 248.76 98.0817 246.417 98.3362Z" fill="white"/>
<path d="M270.431 199.331C265.366 199.331 260.53 198.058 258.633 194.929C256.821 191.959 258.5 189.113 261.032 184.805C263.071 181.336 265.869 176.585 268.448 169.449C269.994 165.169 270.829 161.814 271.502 159.108C272.64 154.518 273.333 151.756 276.339 150.794C278.217 150.2 280.474 150.559 282.864 151.841C287.245 154.197 291.105 159.071 292.471 163.963C293.002 165.858 292.253 169.656 290.015 180.393C288.213 189.009 286.667 194.825 281.669 197.163L281.479 197.248C278.539 198.548 274.414 199.34 270.431 199.34V199.331ZM277.202 153.49C275.761 153.952 275.286 155.649 274.262 159.787C273.579 162.549 272.726 165.99 271.123 170.401C268.448 177.782 265.584 182.665 263.488 186.228C261.108 190.281 260.169 191.988 261.07 193.458C263.375 197.257 274.196 197.361 280.284 194.665L280.464 194.58C284.258 192.808 285.548 187.812 287.226 179.799C288.896 171.806 290.1 166.027 289.73 164.698C288.583 160.56 285.197 156.29 281.517 154.31C279.848 153.415 278.321 153.123 277.212 153.471L277.202 153.49Z" fill="white"/>
</g>
<defs>
<clipPath id="clip0_1_1298">
<rect width="316" height="200" fill="white"/>
</clipPath>
</defs>
</svg>
