<svg width="316" height="205" viewBox="0 0 316 205" fill="none" xmlns="http://www.w3.org/2000/svg">
<g clip-path="url(#clip0_128_316)">
<path d="M29.456 33.615C28.566 45.8009 68.5302 44.1812 97.3836 77.3771C110.466 92.4259 125.825 119.896 133.06 150.634C136.707 166.154 137.664 179.715 149.157 187.992C158.201 194.509 171.436 195.931 182.25 192.626C187.781 190.94 197.705 186.467 230.463 114.726C236.435 101.655 240.196 92.8402 239.44 80.7579C238.339 63.2041 228.262 50.6885 223.477 44.8592C220.788 41.5914 209.524 28.4261 184.365 18.2177C145.214 2.34022 108.992 8.46145 81.7463 13.4244C62.147 16.9935 30.2503 22.7945 29.456 33.6244V33.615Z" fill="white"/>
<path d="M34.592 46.0049C38.1605 46.2018 42.2375 48.4233 43.0783 51.751C44.3004 56.5879 37.9259 61.3967 33.5947 65.6336C28.8627 70.6111 16.6905 84.7936 15.1262 105.838C14.4907 114.387 13.3957 129.057 22.8597 139.19C37.2317 154.563 71.2944 154.506 93.7519 144.214C101.534 140.652 106.589 136.462 113.472 138.149C124.324 140.802 133.104 156.428 128.949 165.521C123.679 177.032 98.4936 176.207 86.2628 175.813C84.7571 175.766 78.979 175.541 70.5318 174.135C53.2658 171.257 30.6714 167.489 15.6151 151.16C6.94297 141.749 4.02946 131.719 2.38694 125.795C-6.26559 94.608 10.8439 69.6268 18.1179 59.0251C26.1252 47.3454 31.2776 45.8268 34.592 46.0143V46.0049Z" fill="white"/>
<path d="M298.87 176.145C297.3 177.031 297.961 178.876 296.851 187.305C295.377 198.464 293.511 200.668 295.31 202.806C298.248 206.309 307.646 205.678 312.574 200.47C312.947 200.075 316.201 196.524 315.991 191.383C315.589 181.598 302.937 173.829 298.87 176.145Z" fill="white"/>
<path d="M247.058 103.444C239.977 104.207 239.776 114.613 227.201 141C212.099 172.699 198.223 185.77 204.127 194.585C206.51 198.144 210.836 199.124 217.305 200.602C219.392 201.073 234.445 204.275 247.795 195.696C257.997 189.141 261.452 179.423 266.533 165.146C270.017 155.352 272.342 148.77 271.778 140.04C270.581 121.714 257.116 102.371 247.049 103.454L247.058 103.444Z" fill="white"/>
<path d="M277.844 158.601C274.16 159.759 274.945 165.005 270.791 176.371C265.011 192.183 258.207 196.458 260.772 200.621C263.633 205.282 275.442 205.245 281.969 202.382C282.046 202.344 282.094 202.325 282.17 202.297C286.649 200.225 288.065 194.744 289.797 186.542C291.778 177.144 292.754 172.416 292.305 170.796C290.266 163.545 282.524 157.141 277.854 158.61L277.844 158.601Z" fill="white"/>
</g>
<path d="M197.394 126.412C188.684 131.448 179.129 133.699 169.759 133.445L199.377 160.957L226.344 145.366L217.281 105.971C212.826 114.218 206.107 121.375 197.397 126.411L197.394 126.412Z" fill="#1414C9"/>
<path d="M152.094 48.0582C160.805 43.0224 170.36 40.7709 179.73 41.025L150.112 13.5137L123.145 29.1048L132.208 68.4998C136.663 60.2526 143.382 53.0953 152.092 48.0595L152.094 48.0582Z" fill="#1414C9"/>
<path d="M135.601 109.103C134.004 106.342 132.755 103.475 131.835 100.556L127.151 103.263C124.382 104.865 123.435 108.406 125.036 111.176L128.534 117.226C130.136 119.996 133.677 120.943 136.447 119.341L141.131 116.633C139.058 114.377 137.198 111.866 135.602 109.105L135.601 109.103Z" fill="#1414C9"/>
<path d="M153.037 49.7881C132.657 61.5708 125.69 87.6434 137.471 108.021C149.253 128.399 175.327 135.369 195.705 123.588C216.082 111.806 223.052 85.7323 211.271 65.3543C199.489 44.9763 173.415 38.0066 153.037 49.7881ZM191.505 116.324C175.138 125.786 154.198 120.188 144.735 103.822C135.273 87.4551 140.871 66.5144 157.237 57.0521C173.604 47.5897 194.544 53.1874 204.007 69.554C213.469 85.9206 207.871 106.861 191.505 116.324Z" fill="#1414C9"/>
<path d="M195.713 81.0103L191.985 74.5632L170.249 87.1298L173.977 93.5769L195.713 81.0103Z" fill="#1414C9"/>
<path d="M167.258 68.4599L160.811 72.1873L173.377 93.9232L179.824 90.1958L167.258 68.4599Z" fill="#1414C9"/>
<defs>
<clipPath id="clip0_128_316">
<rect width="316" height="197" fill="white" transform="translate(0 8)"/>
</clipPath>
</defs>
</svg>
