<svg width="97" height="78" viewBox="0 0 97 78" fill="none" xmlns="http://www.w3.org/2000/svg">
<path d="M86.8767 31.7889L27.5866 31.6093L43.7335 15.3623C46.5314 12.5456 46.5468 7.96642 43.7644 5.13407C40.9819 2.30171 36.4585 2.28609 33.6607 5.10283L5.21911 33.7206C5.09311 33.8455 4.97738 33.9757 4.86166 34.1085C2.31067 36.9408 2.3801 41.3299 5.07768 44.0764L33.3469 72.8659C36.1294 75.6983 40.6528 75.7139 43.4506 72.8972C46.2485 70.0804 46.2639 65.5013 43.4815 62.6689L27.1855 46.0731L86.833 46.2527C90.7804 46.2657 93.9871 43.0351 94 39.0416C94.0128 35.0456 90.8215 31.7994 86.8767 31.7863V31.7889Z" stroke="white" stroke-width="5" stroke-miterlimit="10"/>
</svg>
