<svg width="62" height="55" viewBox="0 0 62 55" fill="none" xmlns="http://www.w3.org/2000/svg">
<path fill-rule="evenodd" clip-rule="evenodd" d="M33.6384 3.42646L22.5985 24.1452L12.4873 43.1212C11.2947 42.4792 9.83769 42.0463 8.24451 41.9231C3.93547 41.59 0.262237 43.6486 0.0401186 46.5213C-0.182003 49.394 3.1311 51.9929 7.44014 52.3261C11.2563 52.6212 14.5738 51.0402 15.4371 48.6793L37.2612 7.72143L53.0982 11.283L44.9407 26.5923L34.8296 45.5682C33.637 44.9261 32.1799 44.4932 30.5866 44.37C26.2776 44.0368 22.6043 46.0955 22.3822 48.9682C22.1601 51.8409 25.4732 54.4398 29.7822 54.7729C33.5977 55.068 36.9147 53.4877 37.7787 51.1275L59.6034 10.1685L59.6031 10.1681L61.5658 6.48464L35.3557 0.203542L33.6384 3.42646Z" fill="white"/>
</svg>
