<svg width="54" height="66" viewBox="0 0 54 66" fill="none" xmlns="http://www.w3.org/2000/svg">
<path d="M5.45175 43.0061C10.2804 39.6134 18.0427 40.5513 25.0094 45.2422L32.0713 0.650725C33.4028 2.78314 35.3648 5.97919 37.6697 9.92965C40.9602 15.5697 40.5371 15.1788 41.4154 16.4335C46.7114 24.0014 51.9498 23.5398 53.2107 28.4511C54.387 33.0244 51.087 38.2701 49.984 38.0958C49.2972 38.0003 49.923 35.849 48.8367 32.8911C46.8513 27.5011 41.9944 27.0554 36.7539 20.2147C35.9282 19.1385 35.1743 18.009 34.4971 16.8337C32.5072 27.3211 31.2676 35.9196 30.4899 42.0062C28.6838 56.2107 27.7491 60.3086 23.9503 62.9023C18.4238 66.6711 8.61721 65.3789 3.93771 59.6578C3.43537 59.042 -0.336582 54.2744 1.22781 48.7928C2.15787 45.5734 4.50874 43.6743 5.45175 43.0061Z" fill="white"/>
</svg>
