<svg width="38" height="73" viewBox="0 0 38 73" fill="none" xmlns="http://www.w3.org/2000/svg">
<path fill-rule="evenodd" clip-rule="evenodd" d="M1.78049 16.7358L7.68965 39.4565L13.1018 60.2659C11.7896 60.6013 10.4244 61.2695 9.16874 62.2579C5.77271 64.931 4.46436 68.9334 6.24647 71.1974C8.02858 73.4615 12.2263 73.1298 15.6223 70.4566C18.6299 68.0892 20.0001 64.6793 19.0363 62.3576L7.35477 17.4423L21.4189 9.33715L25.7853 26.1256L31.1974 46.935C29.8851 47.2703 28.5198 47.9386 27.2642 48.927C23.8681 51.6001 22.5598 55.6025 24.3419 57.8665C26.124 60.1306 30.3217 59.7989 33.7177 57.1257C36.7248 54.7588 38.095 51.3497 37.1323 49.028L25.4504 4.11145L25.4499 4.11139L24.3993 0.0720305L0.861282 13.2015L1.78049 16.7358Z" fill="white"/>
</svg>
